M48
;Layer_Color=9474304
;FILE_FORMAT=2:5
INCH,LZ
;TYPE=PLATED
T1F00S00C0.01181
T2F00S00C0.01968
T3F00S00C0.03543
T4F00S00C0.03800
T5F00S00C0.03937
T6F00S00C0.09055
%
T01
X0314764Y0280217
X0318307Y0286221
X0331496Y0284547
X0335925Y0294193
X0335925Y030502
X0348819Y0311221
X0348327Y029065
X0345965Y0286319
X034813Y0280807
X035433Y027751
X0359744Y0297244
X0380217Y030502
X0390453Y0302756
X0397146Y028937
X0397441Y0279429
X0388779Y0280709
X0380413Y0279429
X0379823Y0288878
X0415551Y0285925
X0424016Y0279921
X0450492Y0276575
X0451279Y0308465
X0428642Y0307185
X0299803Y0311319
X0287598Y0284842
X0291929Y0277067
X030502Y0276772
X0237598Y0280512
X0237008Y0288681
X0245177Y0288779
X0240453Y0335531
X0240748Y0341535
X0245472Y0342126
X0240748Y0348228
X0259744Y0347835
X0262894Y0336221
X0291043Y0328543
X0295866Y0327953
X0293307Y0322933
X0298524Y0317421
X0302362Y0336516
X0302258Y0342519
X0320866Y0336319
X0324705Y0336417
X0322342Y0332087
X0329626Y033937
X032874Y0345276
X0339764Y0350689
X0345768Y0350689
X0351772Y0350689
X0356299Y0350492
X0360827Y0342815
X0364173Y0340354
X0358071Y0334941
X0356004Y0331201
X0360531Y0330512
X0352461Y0323031
X0341339Y0321161
X0331004Y0316831
X0362697Y0316732
X0363779Y031309
X0376969Y0327067
X0384154
X0387894Y0326214
X038752Y0319173
X0396161Y0323524
X0393898Y0328051
X0399999
X0403543Y0337894
X0413878Y0338287
X0419488Y0322933
X0444291Y0325984
X0396358Y0313386
X04Y0346949
T02
X0319882Y0298524
X0292323Y0291437
T03
X0370866Y033691
Y0344783
X037874
X0386614
Y033691
X037874
T04
X0279272Y0299193
X0287146
Y0309035
X0279272
T05
X0434882Y0287992
Y0297992
Y0307992
X0444882
Y0297992
Y0287992
X0284508Y0343307
X0274508
X0264508
X0424213Y0347894
Y0337894
X0437303Y0337598
Y0347598
T06
X0268602Y0280413
Y0327815
M30
