M48
;Layer_Color=9474304
;FILE_FORMAT=2:4
INCH,LZ
;TYPE=PLATED
T1F00S00C0.0118
T2F00S00C0.0197
T3F00S00C0.0354
T4F00S00C0.0380
T5F00S00C0.0394
T6F00S00C0.0906
%
T01
X031476Y028022
X031831Y028622
X03315Y028455
X033593Y029419
X033593Y030502
X034882Y031122
X034833Y029065
X034596Y028632
X034813Y028081
X035433Y027751
X035974Y029724
X038022Y030502
X039045Y030276
X039715Y028937
X039744Y027943
X038878Y028071
X038041Y027943
X037982Y028888
X041555Y028593
X042402Y027992
X045049Y027657
X045128Y030846
X042864Y030719
X02998Y031132
X02876Y028484
X029193Y027707
X030502Y027677
X02376Y028051
X023701Y028868
X024518Y028878
X024045Y033553
X024075Y034154
X024547Y034213
X024075Y034823
X025974Y034783
X026289Y033622
X029104Y032854
X029587Y032795
X029331Y032293
X029852Y031742
X030236Y033652
X030226Y034252
X032087Y033632
X03247Y033642
X032234Y033209
X032963Y033937
X032874Y034528
X033976Y035069
X034577Y035069
X035177Y035069
X03563Y035049
X036083Y034281
X036417Y034035
X035807Y033494
X0356Y03312
X036053Y033051
X035246Y032303
X034134Y032116
X0331Y031683
X03627Y031673
X036378Y031309
X037697Y032707
X038415
X038789Y032621
X038752Y031917
X039616Y032352
X03939Y032805
X04
X040354Y033789
X041388Y033829
X041949Y032293
X044429Y032598
X039636Y031339
X04Y034695
T02
X031988Y029852
X029232Y029144
T03
X037087Y033691
Y034478
X037874
X038661
Y033691
X037874
T04
X027927Y029919
X028715
Y030904
X027927
T05
X043488Y028799
Y029799
Y030799
X044488
Y029799
Y028799
X028451Y034331
X027451
X026451
X042421Y034789
Y033789
X04373Y03376
Y03476
T06
X02686Y028041
Y032782
M30
