G04 Layer_Color=8421504*
%FSLAX24Y24*%
%MOIN*%
G70*
G01*
G75*
%ADD13O,0.0906X0.0236*%
G04:AMPARAMS|DCode=16|XSize=90.6mil|YSize=82.7mil|CornerRadius=12.4mil|HoleSize=0mil|Usage=FLASHONLY|Rotation=90.000|XOffset=0mil|YOffset=0mil|HoleType=Round|Shape=RoundedRectangle|*
%AMROUNDEDRECTD16*
21,1,0.0906,0.0579,0,0,90.0*
21,1,0.0657,0.0827,0,0,90.0*
1,1,0.0248,0.0289,0.0329*
1,1,0.0248,0.0289,-0.0329*
1,1,0.0248,-0.0289,-0.0329*
1,1,0.0248,-0.0289,0.0329*
%
%ADD16ROUNDEDRECTD16*%
%ADD17O,0.0650X0.0217*%
%ADD18O,0.0217X0.0650*%
%ADD20O,0.0531X0.0236*%
%ADD23O,0.0787X0.0394*%
G36*
X30876Y29636D02*
X30463D01*
X30591Y29911D01*
X30463Y30187D01*
X30876D01*
Y29636D01*
D02*
G37*
G36*
X31575Y29656D02*
X31398Y29774D01*
X31220Y29656D01*
Y30049D01*
X31575D01*
Y29656D01*
D02*
G37*
G36*
X41772Y30049D02*
X41850Y29872D01*
X41575D01*
Y30226D01*
X41850D01*
X41772Y30049D01*
D02*
G37*
G36*
X42480Y29262D02*
X42204D01*
X42283Y29439D01*
X42204Y29616D01*
X42480D01*
Y29262D01*
D02*
G37*
G36*
X31575Y28986D02*
X31220D01*
Y29380D01*
X31398Y29262D01*
X31575Y29380D01*
Y28986D01*
D02*
G37*
G36*
X30000Y29911D02*
X30128Y29636D01*
X29715D01*
Y30187D01*
X30128D01*
X30000Y29911D01*
D02*
G37*
G36*
X30394Y31132D02*
X30472Y30955D01*
X30197D01*
Y31309D01*
X30472D01*
X30394Y31132D01*
D02*
G37*
G36*
X31082Y30955D02*
X30807D01*
X30886Y31132D01*
X30807Y31309D01*
X31082D01*
Y30955D01*
D02*
G37*
G36*
X30394Y31742D02*
X30472Y31565D01*
X30197D01*
Y31919D01*
X30472D01*
X30394Y31742D01*
D02*
G37*
G36*
X42460Y29872D02*
X42185D01*
X42264Y30049D01*
X42185Y30226D01*
X42460D01*
Y29872D01*
D02*
G37*
G36*
X41624Y31112D02*
X41703Y30935D01*
X41427D01*
Y31289D01*
X41703D01*
X41624Y31112D01*
D02*
G37*
G36*
X42313Y30935D02*
X42037D01*
X42116Y31112D01*
X42037Y31289D01*
X42313D01*
Y30935D01*
D02*
G37*
G36*
X41791Y29439D02*
X41870Y29262D01*
X41594D01*
Y29616D01*
X41870D01*
X41791Y29439D01*
D02*
G37*
G36*
X33022Y27500D02*
X32628D01*
X32746Y27677D01*
X32628Y27854D01*
X33022D01*
Y27500D01*
D02*
G37*
G36*
X36280Y27766D02*
X35925D01*
Y28042D01*
X36102Y27963D01*
X36280Y28042D01*
Y27766D01*
D02*
G37*
G36*
Y28376D02*
X36102Y28455D01*
X35925Y28376D01*
Y28652D01*
X36280D01*
Y28376D01*
D02*
G37*
G36*
X33691Y27676D02*
X33809Y27499D01*
X33415D01*
Y27853D01*
X33809D01*
X33691Y27676D01*
D02*
G37*
G36*
X34478Y27499D02*
X34085D01*
X34203Y27676D01*
X34085Y27853D01*
X34478D01*
Y27499D01*
D02*
G37*
G36*
X32234Y27677D02*
X32352Y27500D01*
X31959D01*
Y27854D01*
X32352D01*
X32234Y27677D01*
D02*
G37*
G36*
X35551Y28868D02*
X35374Y28986D01*
X35197Y28868D01*
Y29262D01*
X35551D01*
Y28868D01*
D02*
G37*
G36*
X30256Y28898D02*
X29970Y29026D01*
X29685Y28898D01*
Y29350D01*
X30256D01*
Y28898D01*
D02*
G37*
G36*
X30846Y28927D02*
X30669Y29045D01*
X30492Y28927D01*
Y29321D01*
X30846D01*
Y28927D01*
D02*
G37*
G36*
X35551Y28199D02*
X35197D01*
Y28593D01*
X35374Y28474D01*
X35551Y28593D01*
Y28199D01*
D02*
G37*
G36*
X30256Y28189D02*
X29685D01*
Y28642D01*
X29970Y28514D01*
X30256Y28642D01*
Y28189D01*
D02*
G37*
G36*
X30846Y28258D02*
X30492D01*
Y28652D01*
X30669Y28533D01*
X30846Y28652D01*
Y28258D01*
D02*
G37*
G36*
X34754Y33947D02*
X34400D01*
Y34223D01*
X34577Y34144D01*
X34754Y34223D01*
Y33947D01*
D02*
G37*
G36*
X35354D02*
X35000D01*
Y34223D01*
X35177Y34144D01*
X35354Y34223D01*
Y33947D01*
D02*
G37*
G36*
X41053Y34291D02*
X40876Y34370D01*
X40699Y34291D01*
Y34567D01*
X41053D01*
Y34291D01*
D02*
G37*
G36*
X32490Y34055D02*
X32037D01*
X32165Y34341D01*
X32037Y34626D01*
X32490D01*
Y34055D01*
D02*
G37*
G36*
X33553Y33947D02*
X33199D01*
Y34222D01*
X33376Y34144D01*
X33553Y34222D01*
Y33947D01*
D02*
G37*
G36*
X34154Y33947D02*
X33799D01*
Y34223D01*
X33976Y34144D01*
X34154Y34223D01*
Y33947D01*
D02*
G37*
G36*
X35354Y34557D02*
X35177Y34636D01*
X35000Y34557D01*
Y34833D01*
X35354D01*
Y34557D01*
D02*
G37*
G36*
X31634Y35049D02*
X31752Y34872D01*
X31358D01*
Y35226D01*
X31752D01*
X31634Y35049D01*
D02*
G37*
G36*
X32421Y34872D02*
X32028D01*
X32146Y35049D01*
X32028Y35226D01*
X32421D01*
Y34872D01*
D02*
G37*
G36*
X33553Y34557D02*
X33376Y34636D01*
X33199Y34557D01*
Y34832D01*
X33553D01*
Y34557D01*
D02*
G37*
G36*
X34154Y34557D02*
X33976Y34636D01*
X33799Y34557D01*
Y34833D01*
X34154D01*
Y34557D01*
D02*
G37*
G36*
X34754D02*
X34577Y34636D01*
X34400Y34557D01*
Y34833D01*
X34754D01*
Y34557D01*
D02*
G37*
G36*
X31654Y34341D02*
X31781Y34055D01*
X31329D01*
Y34626D01*
X31781D01*
X31654Y34341D01*
D02*
G37*
G36*
X40285Y33199D02*
X40404Y33022D01*
X40010D01*
Y33376D01*
X40404D01*
X40285Y33199D01*
D02*
G37*
G36*
X41073Y33022D02*
X40679D01*
X40797Y33199D01*
X40679Y33376D01*
X41073D01*
Y33022D01*
D02*
G37*
G36*
X30354Y33258D02*
X30433Y33081D01*
X30157D01*
Y33435D01*
X30433D01*
X30354Y33258D01*
D02*
G37*
G36*
X31082Y31565D02*
X30807D01*
X30886Y31742D01*
X30807Y31919D01*
X31082D01*
Y31565D01*
D02*
G37*
G36*
X30285Y32470D02*
X30413Y32185D01*
X29961D01*
Y32756D01*
X30413D01*
X30285Y32470D01*
D02*
G37*
G36*
X31122Y32185D02*
X30669D01*
X30797Y32470D01*
X30669Y32756D01*
X31122D01*
Y32185D01*
D02*
G37*
G36*
X31732Y32904D02*
X31378D01*
Y33179D01*
X31555Y33100D01*
X31732Y33179D01*
Y32904D01*
D02*
G37*
G36*
Y33514D02*
X31555Y33592D01*
X31378Y33514D01*
Y33789D01*
X31732D01*
Y33514D01*
D02*
G37*
G36*
X41053Y33681D02*
X40699D01*
Y33957D01*
X40876Y33878D01*
X41053Y33957D01*
Y33681D01*
D02*
G37*
G36*
X31043Y33081D02*
X30767D01*
X30846Y33258D01*
X30767Y33435D01*
X31043D01*
Y33081D01*
D02*
G37*
G36*
X29163Y33278D02*
X29242Y33100D01*
X28967D01*
Y33455D01*
X29242D01*
X29163Y33278D01*
D02*
G37*
G36*
X29852Y33100D02*
X29577D01*
X29655Y33278D01*
X29577Y33455D01*
X29852D01*
Y33100D01*
D02*
G37*
D13*
X40728Y27917D02*
D03*
Y28417D02*
D03*
Y28917D02*
D03*
Y29417D02*
D03*
Y29917D02*
D03*
Y30417D02*
D03*
Y30917D02*
D03*
Y31417D02*
D03*
Y31917D02*
D03*
Y32417D02*
D03*
X37146Y27917D02*
D03*
Y28417D02*
D03*
Y28917D02*
D03*
Y29417D02*
D03*
Y29917D02*
D03*
Y30417D02*
D03*
Y30917D02*
D03*
Y31417D02*
D03*
Y31917D02*
D03*
Y32417D02*
D03*
D16*
X34006Y28671D02*
D03*
X32431D02*
D03*
D17*
X32411Y30413D02*
D03*
Y30728D02*
D03*
Y31043D02*
D03*
Y31358D02*
D03*
Y31673D02*
D03*
Y31988D02*
D03*
Y32303D02*
D03*
Y32618D02*
D03*
X35719D02*
D03*
Y32303D02*
D03*
Y31988D02*
D03*
Y31673D02*
D03*
Y31358D02*
D03*
Y31043D02*
D03*
Y30728D02*
D03*
Y30413D02*
D03*
D18*
X32963Y33169D02*
D03*
X33278D02*
D03*
X33593D02*
D03*
X33907D02*
D03*
X34222D02*
D03*
X34537D02*
D03*
X34852D02*
D03*
X35167D02*
D03*
Y29862D02*
D03*
X34852D02*
D03*
X34537D02*
D03*
X34222D02*
D03*
X33907D02*
D03*
X33593D02*
D03*
X33278D02*
D03*
X32963D02*
D03*
D20*
X29744Y33898D02*
D03*
X30728D02*
D03*
X29744Y34646D02*
D03*
X30728D02*
D03*
X29744Y34272D02*
D03*
D23*
X25217Y33563D02*
D03*
Y34193D02*
D03*
Y34823D02*
D03*
X23287Y33563D02*
D03*
Y34193D02*
D03*
Y34823D02*
D03*
M02*
