G04 Layer_Color=16711935*
%FSLAX24Y24*%
%MOIN*%
G70*
G01*
G75*
%ADD61C,0.0690*%
%ADD62R,0.0690X0.0690*%
%ADD63C,0.0650*%
%ADD64R,0.0650X0.0650*%
%ADD65R,0.0690X0.0690*%
%ADD66C,0.0660*%
%ADD67C,0.1241*%
%ADD68R,0.0473X0.0749*%
G04:AMPARAMS|DCode=69|XSize=41.4mil|YSize=135.9mil|CornerRadius=11.8mil|HoleSize=0mil|Usage=FLASHONLY|Rotation=180.000|XOffset=0mil|YOffset=0mil|HoleType=Round|Shape=RoundedRectangle|*
%AMROUNDEDRECTD69*
21,1,0.0414,0.1122,0,0,180.0*
21,1,0.0177,0.1359,0,0,180.0*
1,1,0.0237,-0.0089,0.0561*
1,1,0.0237,0.0089,0.0561*
1,1,0.0237,0.0089,-0.0561*
1,1,0.0237,-0.0089,-0.0561*
%
%ADD69ROUNDEDRECTD69*%
G04:AMPARAMS|DCode=70|XSize=49.3mil|YSize=135.9mil|CornerRadius=13.8mil|HoleSize=0mil|Usage=FLASHONLY|Rotation=180.000|XOffset=0mil|YOffset=0mil|HoleType=Round|Shape=RoundedRectangle|*
%AMROUNDEDRECTD70*
21,1,0.0493,0.1083,0,0,180.0*
21,1,0.0217,0.1359,0,0,180.0*
1,1,0.0276,-0.0108,0.0541*
1,1,0.0276,0.0108,0.0541*
1,1,0.0276,0.0108,-0.0541*
1,1,0.0276,-0.0108,-0.0541*
%
%ADD70ROUNDEDRECTD70*%
D61*
X43488Y30799D02*
D03*
X44488D02*
D03*
X43488Y29799D02*
D03*
Y28799D02*
D03*
X44488Y29799D02*
D03*
X43730Y34760D02*
D03*
X42421Y34789D02*
D03*
X27451Y34331D02*
D03*
X26451D02*
D03*
D62*
X44488Y28799D02*
D03*
X43730Y33760D02*
D03*
X42421Y33789D02*
D03*
D63*
X38661Y34478D02*
D03*
Y33691D02*
D03*
X37874Y34478D02*
D03*
X37087D02*
D03*
X37874Y33691D02*
D03*
D64*
X37087D02*
D03*
D65*
X28451Y34331D02*
D03*
D66*
X28715Y29919D02*
D03*
X27927D02*
D03*
X28715Y30904D02*
D03*
X27927D02*
D03*
D67*
X26860Y28041D02*
D03*
Y32782D02*
D03*
D68*
X24577Y28041D02*
D03*
X25719D02*
D03*
D69*
X32608Y28415D02*
D03*
X33789D02*
D03*
D70*
X33199D02*
D03*
M02*
