G04 Layer_Physical_Order=1*
G04 Layer_Color=255*
%FSLAX24Y24*%
%MOIN*%
G70*
G01*
G75*
%ADD10C,0.0197*%
%ADD11R,0.0354X0.0276*%
%ADD12R,0.0276X0.0354*%
%ADD13O,0.0906X0.0236*%
%ADD14R,0.0394X0.0354*%
%ADD15R,0.0354X0.0394*%
G04:AMPARAMS|DCode=16|XSize=90.6mil|YSize=82.7mil|CornerRadius=12.4mil|HoleSize=0mil|Usage=FLASHONLY|Rotation=90.000|XOffset=0mil|YOffset=0mil|HoleType=Round|Shape=RoundedRectangle|*
%AMROUNDEDRECTD16*
21,1,0.0906,0.0579,0,0,90.0*
21,1,0.0657,0.0827,0,0,90.0*
1,1,0.0248,0.0289,0.0329*
1,1,0.0248,0.0289,-0.0329*
1,1,0.0248,-0.0289,-0.0329*
1,1,0.0248,-0.0289,0.0329*
%
%ADD16ROUNDEDRECTD16*%
%ADD17O,0.0650X0.0217*%
%ADD18O,0.0217X0.0650*%
%ADD19R,0.0453X0.0571*%
%ADD20O,0.0531X0.0236*%
%ADD21R,0.0571X0.0453*%
%ADD22R,0.0413X0.0551*%
%ADD23O,0.0787X0.0394*%
%ADD24C,0.0177*%
%ADD25C,0.0394*%
%ADD26C,0.0118*%
%ADD27C,0.0157*%
%ADD28C,0.0178*%
%ADD29C,0.0630*%
%ADD30R,0.0630X0.0630*%
%ADD31C,0.0591*%
%ADD32R,0.0591X0.0591*%
%ADD33R,0.0630X0.0630*%
%ADD34C,0.0600*%
%ADD35C,0.1181*%
%ADD36C,0.0236*%
%ADD37C,0.0394*%
D10*
X43981Y34291D02*
G03*
X44158Y34445I-251J468D01*
G01*
X43516Y35246D02*
G03*
X43479Y34291I215J-486D01*
G01*
X42953Y34789D02*
G03*
X42693Y35246I-531J0D01*
G01*
X42149D02*
G03*
X41972Y35074I272J-457D01*
G01*
D02*
G03*
X41867Y35005I110J-284D01*
G01*
X41972Y35074D02*
G03*
X41867Y35005I110J-284D01*
G01*
X42672Y34321D02*
G03*
X42953Y34789I-251J468D01*
G01*
X41722Y34124D02*
G03*
X41890Y34174I0J305D01*
G01*
X41722Y34124D02*
G03*
X41890Y34174I0J305D01*
G01*
X41722Y33829D02*
G03*
X41545Y34124I-335J0D01*
G01*
X41501Y33514D02*
G03*
X41722Y33829I-113J315D01*
G01*
X43953Y33035D02*
G03*
X44044Y33228I-223J223D01*
G01*
X43953Y33035D02*
G03*
X44044Y33228I-222J223D01*
G01*
X43396Y32608D02*
G03*
X43618Y32701I0J315D01*
G01*
X43396Y32608D02*
G03*
X43619Y32701I0J315D01*
G01*
X42665Y31307D02*
G03*
X42530Y31381I-195J-195D01*
G01*
X42665Y31307D02*
G03*
X42530Y31381I-195J-195D01*
G01*
X41719Y33421D02*
G03*
X41501Y33514I-223J-222D01*
G01*
X41549Y32701D02*
G03*
X41772Y32608I223J222D01*
G01*
X41549Y32701D02*
G03*
X41772Y32608I223J223D01*
G01*
X41719Y33422D02*
G03*
X41501Y33514I-223J-223D01*
G01*
X40354Y34734D02*
G03*
X40138Y34645I0J-305D01*
G01*
X40354Y34734D02*
G03*
X40139Y34645I0J-305D01*
G01*
X39665Y34990D02*
G03*
X39585Y35185I-276J0D01*
G01*
X39665Y34990D02*
G03*
X39585Y35185I-276J0D01*
G01*
X38145Y34913D02*
G03*
X38107Y35010I-271J-50D01*
G01*
X38145Y34913D02*
G03*
X38107Y35010I-271J-50D01*
G01*
X39705Y34774D02*
G03*
X39665Y34926I-315J0D01*
G01*
X39075Y34780D02*
G03*
X38268Y34805I-413J-302D01*
G01*
X38268D02*
G03*
X38145Y34913I-394J-327D01*
G01*
X39098Y34892D02*
G03*
X39075Y34780I292J-119D01*
G01*
X41398Y32417D02*
G03*
X41181Y32730I-335J0D01*
G01*
X41632Y31612D02*
G03*
X41437Y31693I-195J-195D01*
G01*
X41311D02*
G03*
X41398Y31917I-248J224D01*
G01*
X41632Y31612D02*
G03*
X41437Y31693I-195J-195D01*
G01*
X41398Y31917D02*
G03*
X41285Y32167I-335J0D01*
G01*
D02*
G03*
X41398Y32417I-222J250D01*
G01*
X40394Y32752D02*
G03*
X40122Y32222I0J-335D01*
G01*
X39222Y32992D02*
G03*
X39438Y33081I0J305D01*
G01*
X39222Y32992D02*
G03*
X39439Y33082I0J305D01*
G01*
X39124Y32621D02*
G03*
X39094Y32759I-335J0D01*
G01*
X38720Y32294D02*
G03*
X39124Y32621I69J327D01*
G01*
X38889Y32222D02*
G03*
X38720Y32250I-137J-305D01*
G01*
Y31584D02*
G03*
X38889Y31612I32J333D01*
G01*
X44813Y31220D02*
G03*
X43988Y30979I-325J-421D01*
G01*
D02*
G03*
X43006Y31022I-500J-180D01*
G01*
X43006D02*
G03*
X42925Y31048I-141J-303D01*
G01*
X42925Y29106D02*
G03*
X43017Y29046I195J195D01*
G01*
D02*
G03*
X43957Y28548I471J-246D01*
G01*
X42925Y29106D02*
G03*
X43017Y29046I195J195D01*
G01*
X40171Y31167D02*
G03*
X40171Y30667I222J-250D01*
G01*
X40122Y31612D02*
G03*
X40171Y31167I272J-195D01*
G01*
Y30667D02*
G03*
X40171Y30167I222J-250D01*
G01*
D02*
G03*
X40171Y29667I222J-250D01*
G01*
X41398Y28917D02*
G03*
X41311Y29142I-335J0D01*
G01*
X40171Y29667D02*
G03*
X40171Y29167I222J-250D01*
G01*
D02*
G03*
X40122Y28722I222J-250D01*
G01*
X44711Y27622D02*
G03*
X44803Y27844I-223J223D01*
G01*
X44710Y27621D02*
G03*
X44803Y27844I-222J223D01*
G01*
X41285Y28667D02*
G03*
X41398Y28917I-222J250D01*
G01*
Y28417D02*
G03*
X41285Y28667I-335J0D01*
G01*
Y28167D02*
G03*
X41398Y28417I-222J250D01*
G01*
Y27917D02*
G03*
X41285Y28167I-335J0D01*
G01*
X41387Y27835D02*
G03*
X41398Y27917I-324J83D01*
G01*
X40122Y28112D02*
G03*
X40069Y27835I272J-195D01*
G01*
X37752Y30612D02*
G03*
X37964Y30702I-4J305D01*
G01*
X37752Y30612D02*
G03*
X37964Y30702I-4J305D01*
G01*
X37815Y30417D02*
G03*
X37752Y30612I-335J0D01*
G01*
X37703Y30167D02*
G03*
X37815Y30417I-222J250D01*
G01*
Y29917D02*
G03*
X37703Y30167I-335J0D01*
G01*
Y29667D02*
G03*
X37815Y29917I-222J250D01*
G01*
X36073Y30098D02*
G03*
X36162Y29883I305J0D01*
G01*
X35935Y30089D02*
G03*
X36073Y30119I0J325D01*
G01*
Y30098D02*
G03*
X36163Y29882I305J0D01*
G01*
X37815Y29417D02*
G03*
X37703Y29667I-335J0D01*
G01*
X36343Y29702D02*
G03*
X36539Y29613I216J216D01*
G01*
X36343Y29702D02*
G03*
X36539Y29613I216J215D01*
G01*
Y29613D02*
G03*
X36532Y29232I272J-196D01*
G01*
X37703Y29167D02*
G03*
X37815Y29417I-222J250D01*
G01*
X39122Y28202D02*
G03*
X39339Y28112I216J215D01*
G01*
X39123Y28202D02*
G03*
X39339Y28112I216J216D01*
G01*
X38110Y29341D02*
G03*
X38200Y29124I305J0D01*
G01*
X38110Y29341D02*
G03*
X38200Y29125I305J0D01*
G01*
X37805Y27835D02*
G03*
X37815Y27917I-324J83D01*
G01*
Y28917D02*
G03*
X37703Y29167I-335J0D01*
G01*
X36250Y29232D02*
G03*
X36027Y29140I0J-315D01*
G01*
X37703Y28667D02*
G03*
X37815Y28917I-222J250D01*
G01*
X36250Y29232D02*
G03*
X36027Y29140I0J-315D01*
G01*
X35880Y28993D02*
G03*
X35803Y28868I222J-223D01*
G01*
X35880Y28992D02*
G03*
X35803Y28868I223J-223D01*
G01*
X37703Y28167D02*
G03*
X37815Y28417I-222J250D01*
G01*
D02*
G03*
X37703Y28667I-335J0D01*
G01*
X36496Y28304D02*
G03*
X36589Y28167I315J113D01*
G01*
X37815Y27917D02*
G03*
X37703Y28167I-335J0D01*
G01*
X36589D02*
G03*
X36496Y28030I222J-250D01*
G01*
X35810Y27549D02*
G03*
X35824Y27520I292J118D01*
G01*
X35810Y27549D02*
G03*
X35824Y27520I292J118D01*
G01*
X33692Y35246D02*
G03*
X33642Y35049I284J-177D01*
G01*
X33041Y35000D02*
G03*
X32982Y34994I0J-305D01*
G01*
X33041Y35000D02*
G03*
X32982Y34994I0J-305D01*
G01*
D02*
G03*
X32825Y34910I59J-299D01*
G01*
X32982Y34994D02*
G03*
X32825Y34910I59J-299D01*
G01*
X32707Y34238D02*
G03*
X32769Y34210I167J290D01*
G01*
X32755Y34841D02*
G03*
X32707Y34817I119J-313D01*
G01*
X32769Y34210D02*
G03*
X32707Y34153I194J-273D01*
G01*
X32657Y33497D02*
G03*
X32638Y33386I305J-111D01*
G01*
X32643Y33839D02*
G03*
X32657Y33800I320J98D01*
G01*
X30876Y34311D02*
G03*
X31033Y34350I0J335D01*
G01*
X31112Y34135D02*
G03*
X30876Y34232I-236J-237D01*
G01*
X30255Y34724D02*
G03*
X30581Y34311I325J-79D01*
G01*
Y34232D02*
G03*
X30354Y33652I0J-335D01*
G01*
X35166Y32628D02*
G03*
X35177Y31976I81J-325D01*
G01*
X35010Y32669D02*
G03*
X35166Y32628I157J284D01*
G01*
X35177Y31976D02*
G03*
X35218Y31831I325J13D01*
G01*
D02*
G03*
X35218Y31516I284J-157D01*
G01*
X34380Y32669D02*
G03*
X34695Y32669I157J284D01*
G01*
X34065D02*
G03*
X34380Y32669I157J284D01*
G01*
X34695D02*
G03*
X35010Y32669I157J284D01*
G01*
X33120D02*
G03*
X33435Y32669I157J284D01*
G01*
X32953Y32628D02*
G03*
X33120Y32669I10J325D01*
G01*
X33750D02*
G03*
X34065Y32669I157J284D01*
G01*
X33435D02*
G03*
X33750Y32669I157J284D01*
G01*
X35218Y31516D02*
G03*
X35218Y31201I284J-157D01*
G01*
Y31201D02*
G03*
X35218Y30886I284J-157D01*
G01*
D02*
G03*
X35218Y30571I284J-157D01*
G01*
Y30571D02*
G03*
X35177Y30403I284J-157D01*
G01*
X32195Y32943D02*
G03*
X31949Y32830I0J-325D01*
G01*
X32912Y32461D02*
G03*
X32953Y32618I-284J157D01*
G01*
X32912Y32146D02*
G03*
X32953Y32303I-284J157D01*
G01*
D02*
G03*
X32912Y32461I-325J0D01*
G01*
X31949Y32830D02*
G03*
X31877Y32687I246J-212D01*
G01*
D02*
G03*
X31911Y32461I317J-69D01*
G01*
X32912Y31831D02*
G03*
X32953Y31988I-284J157D01*
G01*
D02*
G03*
X32912Y32146I-325J0D01*
G01*
Y31516D02*
G03*
X32953Y31673I-284J157D01*
G01*
D02*
G03*
X32912Y31831I-325J0D01*
G01*
X32953Y31358D02*
G03*
X32912Y31516I-325J0D01*
G01*
Y30571D02*
G03*
X32953Y30728I-284J157D01*
G01*
X32912Y30886D02*
G03*
X32953Y31043I-284J157D01*
G01*
X31738Y31730D02*
G03*
X31870Y31677I181J258D01*
G01*
X31738Y31730D02*
G03*
X31870Y31677I181J258D01*
G01*
X32953Y30728D02*
G03*
X32912Y30886I-325J0D01*
G01*
X32953Y31043D02*
G03*
X32912Y31201I-325J0D01*
G01*
X32953Y30413D02*
G03*
X32912Y30571I-325J0D01*
G01*
Y31201D02*
G03*
X32953Y31358I-284J157D01*
G01*
X26026Y35114D02*
G03*
X25935Y35128I-91J-291D01*
G01*
X26026Y35114D02*
G03*
X25935Y35128I-91J-291D01*
G01*
X25692D02*
G03*
X25413Y35236I-279J-305D01*
G01*
X30226Y34646D02*
G03*
X30217Y34724I-335J0D01*
G01*
X30169Y34459D02*
G03*
X30226Y34646I-278J187D01*
G01*
Y33898D02*
G03*
X30169Y34085I-335J0D01*
G01*
D02*
G03*
X30226Y34272I-278J187D01*
G01*
X30119Y33652D02*
G03*
X30226Y33898I-227J246D01*
G01*
X26238Y34990D02*
G03*
X26026Y35114I-263J-207D01*
G01*
X30226Y34272D02*
G03*
X30169Y34459I-335J0D01*
G01*
X25020Y35236D02*
G03*
X24752Y34508I0J-413D01*
G01*
X23898Y34823D02*
G03*
X23484Y35236I-413J0D01*
G01*
X23091D02*
G03*
X22943Y35209I0J-413D01*
G01*
X24722Y34498D02*
G03*
X24628Y33888I-175J-285D01*
G01*
X24752Y33878D02*
G03*
X25020Y33150I268J-315D01*
G01*
X23898Y34193D02*
G03*
X23752Y34508I-413J0D01*
G01*
D02*
G03*
X23898Y34823I-268J315D01*
G01*
X23752Y33878D02*
G03*
X23898Y34193I-268J315D01*
G01*
Y33563D02*
G03*
X23752Y33878I-413J0D01*
G01*
X28864Y32621D02*
G03*
X29318Y32596I240J233D01*
G01*
X29318D02*
G03*
X29744Y32500I269J199D01*
G01*
X26209Y33258D02*
G03*
X26205Y32311I652J-476D01*
G01*
X25413Y33150D02*
G03*
X25692Y33258I0J413D01*
G01*
X29744Y32059D02*
G03*
X29537Y31855I108J-317D01*
G01*
X26096Y32202D02*
G03*
X25974Y31909I292J-293D01*
G01*
X26095Y32202D02*
G03*
X25974Y31909I292J-292D01*
G01*
X23484Y33150D02*
G03*
X23898Y33563I0J413D01*
G01*
X22943Y33177D02*
G03*
X23091Y33150I148J386D01*
G01*
X35177Y30403D02*
G03*
X35010Y30363I-10J-325D01*
G01*
X34380D02*
G03*
X34065Y30363I-157J-284D01*
G01*
X35446Y29478D02*
G03*
X35492Y29646I-278J167D01*
G01*
X35010Y30363D02*
G03*
X34695Y30363I-157J-284D01*
G01*
X34695D02*
G03*
X34380Y30363I-157J-284D01*
G01*
X34065D02*
G03*
X33750Y30363I-157J-284D01*
G01*
X33435D02*
G03*
X33120Y30363I-157J-284D01*
G01*
X33120D02*
G03*
X32953Y30403I-157J-284D01*
G01*
X33750Y30363D02*
G03*
X33435Y30363I-157J-284D01*
G01*
X33573Y29321D02*
G03*
X33603Y29321I20J324D01*
G01*
D02*
G03*
X33573Y29309I114J-321D01*
G01*
X32638Y29646D02*
G03*
X32667Y29510I325J0D01*
G01*
X32402Y29852D02*
G03*
X32327Y30089I-413J0D01*
G01*
X31791Y29489D02*
G03*
X32402Y29852I197J364D01*
G01*
X32142Y29341D02*
G03*
X31801Y29000I0J-341D01*
G01*
X31530Y28770D02*
G03*
X31806Y28288I300J-148D01*
G01*
X34913Y28740D02*
G03*
X34980Y28765I-80J325D01*
G01*
X34633Y28299D02*
G03*
X34931Y28632I-37J333D01*
G01*
D02*
G03*
X34913Y28740I-335J0D01*
G01*
X34520Y28087D02*
G03*
X34633Y28299I-225J256D01*
G01*
X33376Y28343D02*
G03*
X33512Y28070I341J0D01*
G01*
X33256Y28462D02*
G03*
X33376Y28390I209J209D01*
G01*
X33256Y28462D02*
G03*
X33376Y28390I209J209D01*
G01*
X31806Y28288D02*
G03*
X31912Y28091I336J54D01*
G01*
X32926Y28071D02*
G03*
X33061Y28343I-205J272D01*
G01*
X29231Y28730D02*
G03*
X29469Y28804I1J413D01*
G01*
X29232Y28730D02*
G03*
X29469Y28804I0J413D01*
G01*
X27424Y28852D02*
G03*
X27717Y28730I293J292D01*
G01*
X27424Y28851D02*
G03*
X27717Y28730I292J292D01*
G01*
X26801Y29539D02*
G03*
X26903Y29373I394J126D01*
G01*
X26801Y29539D02*
G03*
X26903Y29373I394J126D01*
G01*
X27667Y28041D02*
G03*
X26801Y28846I-807J0D01*
G01*
X25974Y28514D02*
G03*
X26078Y28240I413J0D01*
G01*
X25974Y28514D02*
G03*
X26078Y28240I413J0D01*
G01*
X26078D02*
G03*
X26244Y27520I782J-199D01*
G01*
X27476D02*
G03*
X27667Y28041I-616J522D01*
G01*
X31555Y33651D02*
Y34754D01*
X44158Y34445D02*
X44234D01*
X44173Y34291D02*
Y34445D01*
X44252Y34291D02*
Y34427D01*
X44130Y34409D02*
X44269D01*
X44262Y34252D02*
X44427D01*
X44094Y34291D02*
Y34373D01*
X44262Y34173D02*
X44505D01*
X44044Y34331D02*
X44348D01*
X43981Y34291D02*
X44262D01*
X43199D02*
X43479D01*
X43386Y35165D02*
Y35246D01*
X43307Y35081D02*
Y35246D01*
X43228Y34934D02*
Y35246D01*
X42924Y34961D02*
X43238D01*
X42945Y34882D02*
X43213D01*
X42953Y34803D02*
X43201D01*
X43307Y34291D02*
Y34438D01*
X43228Y34291D02*
Y34585D01*
X43386Y34291D02*
Y34355D01*
X42933Y34646D02*
X43211D01*
X42949Y34724D02*
X43200D01*
X42953Y34252D02*
X43199D01*
X44567Y31325D02*
Y34112D01*
X44488Y31331D02*
Y34190D01*
X44409Y31325D02*
Y34269D01*
X44234Y34445D02*
X44813Y33866D01*
X44262Y33228D02*
Y34291D01*
X44331Y31307D02*
Y34348D01*
X44646Y31307D02*
Y34033D01*
X44262Y34094D02*
X44584D01*
X44724Y31275D02*
Y33954D01*
X44262Y33937D02*
X44742D01*
X44262Y34016D02*
X44663D01*
X44262Y33858D02*
X44813D01*
X43150Y33238D02*
Y35246D01*
X43071Y33238D02*
Y35246D01*
X43199Y33238D02*
Y34291D01*
X42953Y34173D02*
X43199D01*
X42953Y33258D02*
Y34321D01*
X42992Y33238D02*
Y35246D01*
X42953Y33858D02*
X43199D01*
X42953Y33937D02*
X43199D01*
X42953Y33779D02*
X43199D01*
X42953Y34094D02*
X43199D01*
X42953Y34016D02*
X43199D01*
X42835Y35124D02*
Y35246D01*
X42756Y35202D02*
Y35246D01*
X42913Y34990D02*
Y35246D01*
X42693D02*
X43516D01*
X42047Y35167D02*
Y35246D01*
X42763Y35197D02*
X43428D01*
X42839Y35118D02*
X43338D01*
X42890Y35039D02*
X43278D01*
X39524Y35246D02*
X42149D01*
X39573Y35197D02*
X42080D01*
X41968Y35072D02*
Y35246D01*
X41890Y35026D02*
Y35246D01*
X39634Y35118D02*
X42004D01*
X41811Y34949D02*
Y35246D01*
X41732Y34870D02*
Y35246D01*
X39686Y34882D02*
X41744D01*
X41596Y34734D02*
X41867Y35005D01*
X39661Y35039D02*
X41908D01*
X39665Y34961D02*
X41822D01*
X42859Y34488D02*
X43274D01*
X42904Y34567D02*
X43235D01*
X42913Y34321D02*
Y34588D01*
X42793Y34409D02*
X43331D01*
X42835Y34321D02*
Y34455D01*
X42690Y34331D02*
X43417D01*
X42756Y34321D02*
Y34376D01*
X42672Y34321D02*
X42953D01*
X41721Y33858D02*
X41890D01*
Y33258D02*
Y34174D01*
X41811Y33329D02*
Y34137D01*
X41890Y33251D02*
Y34174D01*
X41545Y34124D02*
X41722D01*
X41732Y33408D02*
Y34124D01*
X41704Y33937D02*
X41890D01*
X41665Y34016D02*
X41890D01*
X41719Y33779D02*
X41890D01*
X41591Y34094D02*
X41890D01*
X44262Y33701D02*
X44813D01*
X44262Y33779D02*
X44813D01*
X44262Y33465D02*
X44813D01*
X44262Y33307D02*
X44813D01*
X44262Y33386D02*
X44813D01*
X44044Y33228D02*
X44813D01*
X43984Y33071D02*
X44813D01*
X44026Y33150D02*
X44813D01*
X43910Y32992D02*
X44813D01*
X43752Y32835D02*
X44813D01*
X43831Y32913D02*
X44813D01*
X43674Y32756D02*
X44813D01*
X44262Y33622D02*
X44813D01*
X42953D02*
X43199D01*
X44262Y33543D02*
X44813D01*
X42953D02*
X43199D01*
X42953Y33701D02*
X43199D01*
X42953Y33465D02*
X43199D01*
X44044Y33228D02*
X44262D01*
X42953Y33307D02*
X43199D01*
X42953Y33386D02*
X43199D01*
Y33238D02*
X43265D01*
X43701Y31286D02*
Y32783D01*
X43622Y31314D02*
Y32704D01*
X44252Y31275D02*
Y33228D01*
X43619Y32701D02*
X43953Y33035D01*
X43592Y32677D02*
X44813D01*
X43753Y31260D02*
X44223D01*
X44753D02*
X44813D01*
X42530Y31417D02*
X44813D01*
X42530Y31496D02*
X44813D01*
X42628Y31339D02*
X44813D01*
X43543Y31328D02*
Y32645D01*
X43464Y31330D02*
Y32616D01*
X43307Y31299D02*
Y32608D01*
X42677Y31295D02*
Y32608D01*
X42598Y31356D02*
Y32608D01*
X43228Y31263D02*
Y32608D01*
X43386Y31321D02*
Y32608D01*
X42530Y31381D02*
Y31506D01*
X42713Y31260D02*
X43223D01*
X41902Y33238D02*
X43199D01*
X41772Y32608D02*
X43396D01*
X41890Y33258D02*
X42953D01*
X41344Y32598D02*
X44813D01*
X41397Y32441D02*
X44813D01*
X41382Y32520D02*
X44813D01*
X41393Y32362D02*
X44813D01*
X41321Y32205D02*
X44813D01*
X41370Y32283D02*
X44813D01*
X41325Y32126D02*
X44813D01*
X41697Y33701D02*
X41890D01*
X41665Y33465D02*
X41890D01*
X41562Y33543D02*
X41890D01*
X41651Y33622D02*
X41890D01*
X41833Y33307D02*
X41890D01*
X41755Y33386D02*
X41890D01*
X41719Y33421D02*
X41902Y33238D01*
X42441Y31506D02*
Y32608D01*
X42362Y31506D02*
Y32608D01*
X42520Y31506D02*
Y32608D01*
X41394Y31968D02*
X44813D01*
X41371Y32047D02*
X44813D01*
X42283Y31506D02*
Y32608D01*
X41669Y31575D02*
X44813D01*
X41579Y31653D02*
X44813D01*
X41920Y31506D02*
X42530D01*
X41380Y31811D02*
X44813D01*
X41396Y31890D02*
X44813D01*
X41342Y31732D02*
X44813D01*
X42047Y31506D02*
Y32608D01*
X41968Y31506D02*
Y32608D01*
X42126Y31506D02*
Y32608D01*
X41811Y31506D02*
Y32608D01*
X41732Y31512D02*
Y32611D01*
X41890Y31506D02*
Y32608D01*
X41821Y31506D02*
X41920D01*
X41821D02*
X41920D01*
X42205D02*
Y32608D01*
X41632Y31612D02*
X41738Y31506D01*
X41821D01*
X41653Y34792D02*
Y35246D01*
X41575Y34734D02*
Y35246D01*
X41496Y34734D02*
Y35246D01*
X41339Y34734D02*
Y35246D01*
X41181Y34783D02*
Y35246D01*
X41417Y34734D02*
Y35246D01*
X41270Y34734D02*
X41596D01*
X41260Y34783D02*
Y35246D01*
X41270Y34734D02*
Y34783D01*
X40482D02*
X41270D01*
X41024D02*
Y35246D01*
X41102Y34783D02*
Y35246D01*
X40866Y34783D02*
Y35246D01*
X40787Y34783D02*
Y35246D01*
X40945Y34783D02*
Y35246D01*
X40630Y34783D02*
Y35246D01*
X40551Y34783D02*
Y35246D01*
X40709Y34783D02*
Y35246D01*
X40472Y34734D02*
Y35246D01*
X40394Y34734D02*
Y35246D01*
X40482Y34734D02*
Y34783D01*
X40354Y34734D02*
X40482D01*
X40315Y34732D02*
Y35246D01*
X40236Y34710D02*
Y35246D01*
X40482Y34075D02*
Y34124D01*
Y34075D02*
Y34124D01*
X41653Y34032D02*
Y34124D01*
X40372Y34016D02*
X40482D01*
X40451Y34094D02*
X40482D01*
Y33593D02*
Y34075D01*
X41653Y33472D02*
Y33625D01*
X41575Y33504D02*
Y33551D01*
X40215Y33858D02*
X40482D01*
X40294Y33937D02*
X40482D01*
X40136Y33779D02*
X40482D01*
X40394Y33593D02*
Y34037D01*
X40157Y34662D02*
Y35246D01*
X40472Y33593D02*
Y34116D01*
X40079Y34585D02*
Y35246D01*
X40236Y33593D02*
Y33879D01*
X40157Y33593D02*
Y33801D01*
X40315Y33593D02*
Y33958D01*
X40057Y33701D02*
X40482D01*
X40079Y33593D02*
Y33722D01*
X39606Y35161D02*
Y35246D01*
X39685Y34883D02*
Y35246D01*
X39524D02*
X39585Y35185D01*
X38107Y35010D02*
X38980D01*
X39665Y34926D02*
Y34990D01*
X38980Y35010D02*
X39098Y34892D01*
X39055Y34805D02*
Y34935D01*
X38833Y34961D02*
X39030D01*
X38976Y34882D02*
Y35010D01*
X38976Y34882D02*
X39094D01*
X38819Y34965D02*
Y35010D01*
X38504Y34965D02*
Y35010D01*
X38898Y34932D02*
Y35010D01*
X38425Y34932D02*
Y35010D01*
X38346Y34882D02*
Y35010D01*
X38189Y34882D02*
X38347D01*
X38189Y34882D02*
Y35010D01*
X38268Y34805D02*
Y35010D01*
X38131Y34961D02*
X38490D01*
X39705Y34724D02*
X40277D01*
X40000Y34506D02*
Y35246D01*
X39921Y34427D02*
Y35246D01*
X39703Y34803D02*
X41665D01*
X39705Y34646D02*
X40139D01*
X39705Y34211D02*
X40138Y34645D01*
X39979Y33622D02*
X40482D01*
X40000Y33593D02*
Y33643D01*
X39949Y33593D02*
X40481Y34124D01*
X39705Y34567D02*
X40061D01*
X39705Y34488D02*
X39982D01*
X39949Y33593D02*
X40463D01*
X39842Y34349D02*
Y35246D01*
X39764Y34270D02*
Y35246D01*
X39705Y34409D02*
X39903D01*
X39705Y34331D02*
X39824D01*
X39705Y34252D02*
X39746D01*
X39705Y34211D02*
Y34774D01*
X41289Y32884D02*
X41366D01*
X41289Y32805D02*
Y32884D01*
X41366D02*
X41549Y32701D01*
X41289Y32835D02*
X41415D01*
X41181Y32805D02*
X41289D01*
X40463D02*
X40571D01*
X41260Y32688D02*
Y32805D01*
X41181Y32730D02*
Y32805D01*
X41274Y32677D02*
X41575D01*
X41181Y32756D02*
X41494D01*
X40571Y32752D02*
Y32805D01*
X40394Y32752D02*
X40571D01*
X40472D02*
Y32805D01*
X40551Y32752D02*
Y32805D01*
X39793D02*
Y33437D01*
X40463Y32805D02*
X40571D01*
X40394Y32752D02*
Y32805D01*
X40315Y32743D02*
Y32805D01*
X39793D02*
X40463D01*
X40236Y32713D02*
Y32805D01*
X41575Y31656D02*
Y32677D01*
X41496Y31687D02*
Y32753D01*
X41653Y31591D02*
Y32631D01*
X41339Y32607D02*
Y32884D01*
X41417Y31693D02*
Y32832D01*
X41311Y31693D02*
X41437D01*
X40157Y32654D02*
Y32805D01*
X40079Y32530D02*
Y32805D01*
X40000Y32222D02*
Y32805D01*
X39842Y32222D02*
Y32805D01*
X39764Y32222D02*
Y33407D01*
X39921Y32222D02*
Y32805D01*
X41339Y32107D02*
Y32227D01*
X40079Y32222D02*
Y32304D01*
X41339Y31693D02*
Y31727D01*
X40079Y31530D02*
Y31612D01*
X39664Y33307D02*
X39793D01*
X39742Y33386D02*
X39793D01*
X39506Y33150D02*
X39793D01*
X39427Y33071D02*
X39793D01*
X39439Y33082D02*
X39793Y33437D01*
X39096Y32756D02*
X40571D01*
X39119Y32677D02*
X40183D01*
X39123Y32598D02*
X40112D01*
X39108Y32520D02*
X40075D01*
X39001Y32362D02*
X40064D01*
X39071Y32441D02*
X40060D01*
X38720Y32283D02*
X40087D01*
X39585Y33228D02*
X39793D01*
X39142Y32992D02*
X39793D01*
X39142Y32992D02*
X39222D01*
X39094Y32944D02*
X39142Y32992D01*
X39094Y32835D02*
X39793D01*
X39094Y32913D02*
X39793D01*
X39094Y32759D02*
Y32944D01*
X39606Y32222D02*
Y33250D01*
X39527Y32222D02*
Y33171D01*
X39685Y32222D02*
Y33328D01*
X38889Y32222D02*
X40122D01*
X39370D02*
Y33030D01*
X39449Y32222D02*
Y33092D01*
X38889Y31612D02*
X40122D01*
X38720Y31575D02*
X40098D01*
X38720Y31496D02*
X40068D01*
X38720Y31339D02*
X40068D01*
X38720Y31417D02*
X40059D01*
X38720Y31260D02*
X40098D01*
X39213Y32222D02*
Y32992D01*
X39134Y32222D02*
Y32984D01*
X39291Y32222D02*
Y33000D01*
X38976Y32222D02*
Y32344D01*
X38898Y32222D02*
Y32305D01*
X39055Y32222D02*
Y32418D01*
X38740Y32252D02*
Y32290D01*
X38720Y32250D02*
Y32294D01*
X38819Y32245D02*
Y32288D01*
X44803Y31227D02*
Y33876D01*
X44173Y31227D02*
Y33228D01*
X44813Y31220D02*
Y33866D01*
X44094Y31156D02*
Y33228D01*
X43937Y31084D02*
Y33019D01*
X44016Y31043D02*
Y33125D01*
X43925Y31102D02*
X44052D01*
X43970Y31024D02*
X44006D01*
X43858Y31181D02*
X44118D01*
X43858Y31181D02*
Y32940D01*
X43779Y31244D02*
Y32862D01*
X43150Y31209D02*
Y32608D01*
X43071Y31128D02*
Y32608D01*
X42913Y31059D02*
Y32608D01*
X42756Y31217D02*
Y32608D01*
X42992Y31028D02*
Y32608D01*
X42870Y31102D02*
X43052D01*
X42791Y31181D02*
X43118D01*
X42835Y31138D02*
Y32608D01*
X42665Y31307D02*
X42925Y31048D01*
X45163Y29291D02*
X45217D01*
X45197Y27520D02*
Y29325D01*
X45217Y27520D02*
Y29345D01*
X45020Y29148D02*
X45217Y29345D01*
X45085Y29213D02*
X45217D01*
X45118Y27520D02*
Y29246D01*
X45020Y29134D02*
X45217D01*
X45020Y28268D02*
Y29148D01*
X45039Y27520D02*
Y29167D01*
X45020Y29055D02*
X45217D01*
X42868Y29163D02*
X42925Y29106D01*
X42835Y27835D02*
Y29163D01*
X42756Y27835D02*
Y29163D01*
X42697Y29134D02*
X42898D01*
X42697Y29163D02*
X42868D01*
X42697Y29045D02*
Y29163D01*
X42992Y28990D02*
Y29057D01*
X42913Y27835D02*
Y29118D01*
X42697Y29055D02*
X42996D01*
X42126Y27835D02*
Y29045D01*
X38720Y31181D02*
X40157D01*
X38720Y31102D02*
X40115D01*
X38720Y30709D02*
X40132D01*
X38720Y30630D02*
X40135D01*
X38720Y30236D02*
X40112D01*
X38720Y30157D02*
X40161D01*
X38720Y29685D02*
X40153D01*
X38720Y29606D02*
X40117D01*
X40079Y31030D02*
Y31304D01*
X38720Y31024D02*
X40076D01*
X40079Y30530D02*
Y30804D01*
X38720Y30551D02*
X40087D01*
X38720Y30787D02*
X40085D01*
X38720Y30315D02*
X40075D01*
X40079Y29530D02*
Y29804D01*
Y30030D02*
Y30304D01*
X38720Y29527D02*
X40078D01*
X38720Y30079D02*
X40101D01*
X38720Y29764D02*
X40096D01*
X41732Y27835D02*
Y29045D01*
X41575Y27835D02*
Y29045D01*
X41811Y27835D02*
Y29045D01*
X41417Y27835D02*
Y29045D01*
X41496Y27835D02*
Y29045D01*
X41988D02*
X42087D01*
X41988D02*
X42087D01*
X42047Y27835D02*
Y29045D01*
X41378D02*
X41988D01*
X41890Y27835D02*
Y29045D01*
X41968Y27835D02*
Y29045D01*
X41378D02*
Y29142D01*
X40079Y29030D02*
Y29304D01*
X38975Y29213D02*
X40129D01*
X38896Y29291D02*
X40084D01*
X41318Y29134D02*
X41378D01*
X41311Y29142D02*
X41378D01*
X41339Y29107D02*
Y29142D01*
X39054Y29134D02*
X40139D01*
X39132Y29055D02*
X40089D01*
X45020Y28504D02*
X45217D01*
X45020Y28583D02*
X45217D01*
X45020Y28425D02*
X45217D01*
X45020Y28898D02*
X45217D01*
X45020Y28976D02*
X45217D01*
X45020Y28661D02*
X45217D01*
X44803Y28268D02*
X45217D01*
X45020Y28346D02*
X45217D01*
X44803Y28189D02*
X45217D01*
X44803Y27953D02*
X45217D01*
X44803Y28110D02*
X45217D01*
X44803Y27874D02*
X45217D01*
X45020Y28740D02*
X45217D01*
X45020Y28819D02*
X45217D01*
X44803Y27844D02*
Y28268D01*
X43766Y28346D02*
X43957D01*
X43866Y28425D02*
X43957D01*
Y28268D02*
Y28548D01*
X44803Y28031D02*
X45217D01*
X44803Y28268D02*
X45020D01*
X44173Y27975D02*
Y28268D01*
X43957D02*
X44173D01*
X44173Y27975D02*
Y28268D01*
X44094Y27896D02*
Y28268D01*
X44882Y27520D02*
Y28268D01*
X44803Y27520D02*
Y27837D01*
X44961Y27520D02*
Y28268D01*
X44799Y27795D02*
X45217D01*
X44726Y27638D02*
X45217D01*
X44776Y27716D02*
X45217D01*
X44724Y27520D02*
Y27636D01*
X44609Y27520D02*
X45217D01*
X44648Y27559D02*
X45217D01*
X44609Y27520D02*
X44710Y27621D01*
X43858Y27835D02*
Y28418D01*
X43779Y27835D02*
Y28355D01*
X43937Y27835D02*
Y28514D01*
X43622Y27835D02*
Y28285D01*
X43386Y27835D02*
Y28278D01*
X43701Y27835D02*
Y28312D01*
X44033Y27835D02*
X44173Y27975D01*
X44016Y27835D02*
Y28268D01*
X44646Y27520D02*
Y27556D01*
X43464Y27835D02*
Y28268D01*
X43543Y27835D02*
Y28271D01*
X41392Y28976D02*
X42987D01*
X41397Y28898D02*
X42966D01*
X41383Y28819D02*
X42957D01*
X41292Y28661D02*
X42975D01*
X41347Y28740D02*
X42960D01*
X41354Y28583D02*
X43003D01*
X41398Y28425D02*
X43111D01*
X41386Y28504D02*
X43046D01*
X41390Y28346D02*
X43210D01*
X41308Y28189D02*
X44173D01*
X41362Y28268D02*
X44173D01*
X41336Y28110D02*
X44173D01*
X42087Y29045D02*
X42697D01*
X41339Y28607D02*
Y28727D01*
X39447Y28740D02*
X40110D01*
X39369Y28819D02*
X40074D01*
X40079Y28722D02*
Y28804D01*
X39465Y28722D02*
X40122D01*
X39339Y28112D02*
X40122D01*
X37754Y28110D02*
X40120D01*
X43071Y27835D02*
Y28470D01*
X42992Y27835D02*
Y28609D01*
X43150Y27835D02*
Y28390D01*
X42598Y27835D02*
Y29045D01*
X42520Y27835D02*
Y29045D01*
X42677Y27835D02*
Y29045D01*
X41396Y27953D02*
X44151D01*
X43228Y27835D02*
Y28336D01*
X43307Y27835D02*
Y28300D01*
X41378Y28031D02*
X44173D01*
X41395Y27874D02*
X44072D01*
X41387Y27835D02*
X44033D01*
X42362D02*
Y29045D01*
X42283Y27835D02*
Y29045D01*
X42441Y27835D02*
Y29045D01*
X41653Y27835D02*
Y29045D01*
X41339Y28107D02*
Y28227D01*
X42205Y27835D02*
Y29045D01*
X40079Y28030D02*
Y28112D01*
X37795Y28031D02*
X40079D01*
X38720Y30866D02*
X40063D01*
X38720Y30945D02*
X40060D01*
X38720Y29467D02*
Y31584D01*
X37964Y30702D02*
X38110Y30848D01*
X38050Y30787D02*
X38110D01*
X37810Y30472D02*
X38110D01*
X38720Y29842D02*
X40068D01*
X38720Y29921D02*
X40059D01*
X38739Y29449D02*
X40061D01*
X38720Y30472D02*
X40064D01*
X38720Y30394D02*
X40060D01*
X38720Y30000D02*
X40069D01*
X37850Y30630D02*
X38110D01*
X37971Y30709D02*
X38110D01*
X37814Y30394D02*
X38110D01*
X37799Y30315D02*
X38110D01*
X37795Y30531D02*
Y30616D01*
Y30031D02*
Y30304D01*
X37806Y29842D02*
X38110D01*
X37815Y29921D02*
X38110D01*
X37813Y29449D02*
X38110D01*
X37805Y30000D02*
X38110D01*
X37795Y29531D02*
Y29804D01*
X37796Y29527D02*
X38110D01*
X39921Y28722D02*
Y31612D01*
X39842Y28722D02*
Y31612D01*
X40000Y28722D02*
Y31612D01*
X39685Y28722D02*
Y31612D01*
X39606Y28722D02*
Y31612D01*
X39764Y28722D02*
Y31612D01*
X39449Y28739D02*
Y31612D01*
X39370Y28817D02*
Y31612D01*
X39527Y28722D02*
Y31612D01*
X39291Y28896D02*
Y31612D01*
X39213Y28975D02*
Y31612D01*
X38720Y29467D02*
X39465Y28722D01*
X39055Y29132D02*
Y31612D01*
X38976Y29211D02*
Y31612D01*
X39134Y29054D02*
Y31612D01*
X38819Y29369D02*
Y31589D01*
X38740Y29447D02*
Y31583D01*
X38898Y29290D02*
Y31612D01*
X38110Y29341D02*
Y30848D01*
X38110Y27835D02*
Y30848D01*
X38031Y27835D02*
Y30769D01*
X37874Y27835D02*
Y30639D01*
X37953Y27835D02*
Y30691D01*
X37787Y30551D02*
X38110D01*
X37762Y30236D02*
X38110D01*
X37778Y29764D02*
X38110D01*
X37773Y30079D02*
X38110D01*
X37721Y29685D02*
X38110D01*
X37713Y30157D02*
X38110D01*
X35492Y30079D02*
X36073D01*
X35502Y30089D02*
X35935D01*
X35492Y30000D02*
X36089D01*
X35492Y29842D02*
X36202D01*
X35492Y29921D02*
X36130D01*
X36163Y29882D02*
X36343Y29702D01*
X35492Y29764D02*
X36281D01*
X35492Y29685D02*
X36361D01*
X36378Y29232D02*
Y29672D01*
X36299Y29232D02*
Y29746D01*
X36220Y29231D02*
Y29824D01*
X37757Y29606D02*
X38110D01*
X35768Y29370D02*
X36480D01*
X35768Y29449D02*
X36478D01*
X36457Y29232D02*
Y29630D01*
X36063Y29171D02*
Y30115D01*
X35984Y29097D02*
Y30092D01*
X35905Y29018D02*
Y30089D01*
X35748Y29478D02*
Y30089D01*
X35512Y29478D02*
Y30089D01*
X35827Y28922D02*
Y30089D01*
X36142Y29213D02*
Y29905D01*
X35669Y29478D02*
Y30089D01*
X35768Y28868D02*
Y29478D01*
X35492Y29646D02*
Y30079D01*
X35590Y29478D02*
Y30089D01*
X39211Y28976D02*
X40064D01*
X39290Y28898D02*
X40060D01*
X38817Y29370D02*
X40062D01*
X37807Y28346D02*
X38978D01*
X38200Y29124D02*
X39122Y28202D01*
X39213Y27835D02*
Y28139D01*
X39134Y27835D02*
Y28191D01*
X39291Y27835D02*
Y28116D01*
X37813Y27953D02*
X40061D01*
X37812Y27874D02*
X40062D01*
X37814Y28898D02*
X38427D01*
X37812Y29370D02*
X38110D01*
X37795Y29031D02*
Y29304D01*
X37810Y28976D02*
X38348D01*
X37804Y28504D02*
X38821D01*
X37800Y28819D02*
X38506D01*
X37815Y28425D02*
X38899D01*
X37795Y28531D02*
Y28804D01*
Y28031D02*
Y28304D01*
X39527Y27835D02*
Y28112D01*
X39449Y27835D02*
Y28112D01*
X39606Y27835D02*
Y28112D01*
X39055Y27835D02*
Y28269D01*
X38976Y27835D02*
Y28348D01*
X39370Y27835D02*
Y28112D01*
X39921Y27835D02*
Y28112D01*
X39842Y27835D02*
Y28112D01*
X40000Y27835D02*
Y28112D01*
X37805Y27835D02*
X40069D01*
X39685D02*
Y28112D01*
X39764Y27835D02*
Y28112D01*
X38504Y27835D02*
Y28821D01*
X38425Y27835D02*
Y28899D01*
X38583Y27835D02*
Y28742D01*
X38268Y27835D02*
Y29057D01*
X38189Y27835D02*
Y29136D01*
X38346Y27835D02*
Y28978D01*
X38819Y27835D02*
Y28506D01*
X38740Y27835D02*
Y28584D01*
X38898Y27835D02*
Y28427D01*
X38661Y27835D02*
Y28663D01*
X37745Y29213D02*
X38138D01*
X37790Y29291D02*
X38114D01*
X36250Y29232D02*
X36532D01*
X35768Y29291D02*
X36501D01*
X37764Y28740D02*
X38584D01*
X37785Y29055D02*
X38269D01*
X37771Y28583D02*
X38742D01*
X37736Y29134D02*
X38191D01*
X37709Y28661D02*
X38663D01*
X35880Y28993D02*
X36027Y29140D01*
X35768Y29213D02*
X36140D01*
X35768Y29134D02*
X36021D01*
X35768Y29055D02*
X35942D01*
X35768Y28976D02*
X35865D01*
X35768Y28898D02*
X35815D01*
X35768Y28868D02*
X35803D01*
X35768Y28809D02*
Y28868D01*
X37725Y28189D02*
X39136D01*
X37780Y28268D02*
X39057D01*
X36535Y28107D02*
Y28228D01*
X36496Y28189D02*
X36566D01*
X36496Y28110D02*
X36538D01*
X36496Y28159D02*
Y28258D01*
Y28304D01*
Y28159D02*
Y28258D01*
Y28030D02*
Y28159D01*
X35590Y27520D02*
Y27982D01*
X35512Y27520D02*
Y27982D01*
X35709Y27549D02*
X35810D01*
X35709D02*
Y27982D01*
X35669Y27520D02*
Y27982D01*
X33622Y35049D02*
Y35246D01*
X33543Y35049D02*
Y35246D01*
X32638D02*
X33692D01*
X33307Y35049D02*
Y35246D01*
X33386Y35049D02*
Y35246D01*
X33583Y35049D02*
X33642D01*
X33583Y35049D02*
X33642D01*
X33465Y35049D02*
Y35246D01*
X32638Y35197D02*
X33667D01*
X32638Y35118D02*
X33645D01*
X32982Y35049D02*
X33583D01*
X33150D02*
Y35246D01*
X33071Y35049D02*
Y35246D01*
X33228Y35049D02*
Y35246D01*
X32992Y35049D02*
Y35246D01*
X32913Y34972D02*
Y35246D01*
X32835Y34919D02*
Y35246D01*
X32992Y34996D02*
Y35049D01*
X32982Y34994D02*
Y35049D01*
X32638Y35039D02*
X32982D01*
X32638Y34961D02*
X32891D01*
X32756Y34841D02*
Y35246D01*
X32638Y34882D02*
X32797D01*
X32677Y34843D02*
Y35246D01*
X32755Y34841D02*
X32825Y34910D01*
X32707Y34153D02*
Y34238D01*
X32638Y34843D02*
X32707D01*
X32638D02*
Y35246D01*
X32598Y32943D02*
Y33839D01*
X32283Y32943D02*
Y33839D01*
X32657Y33497D02*
Y33800D01*
X32638Y32953D02*
Y33386D01*
X32520Y32943D02*
Y33839D01*
X32362Y32943D02*
Y33839D01*
X32441Y32943D02*
Y33839D01*
X31033Y34350D02*
X31112D01*
X31102Y34144D02*
Y34350D01*
X30989Y34331D02*
X31112D01*
X31024Y34198D02*
Y34345D01*
X31066Y34173D02*
X31112D01*
X30945Y34225D02*
Y34318D01*
X30226Y34252D02*
X31112D01*
X30581Y34311D02*
X30876D01*
X30581Y34232D02*
X30876D01*
X30551Y34231D02*
Y34312D01*
X30472Y34214D02*
Y34329D01*
X30394Y34175D02*
Y34368D01*
X30221Y34331D02*
X30468D01*
X30197Y34409D02*
X30344D01*
X30787Y34232D02*
Y34311D01*
X30709Y34232D02*
Y34311D01*
X30866Y34232D02*
Y34311D01*
X30630Y34232D02*
Y34311D01*
X30212Y34173D02*
X30391D01*
X32205Y32943D02*
Y33839D01*
X32126Y32936D02*
Y33839D01*
X32047Y32907D02*
Y33839D01*
X31949Y33779D02*
X32657D01*
X31998Y33839D02*
X32643D01*
X31949Y33701D02*
X32657D01*
X31949Y33307D02*
X32638D01*
X31949Y33386D02*
X32638D01*
X31949Y33228D02*
X32638D01*
X31949Y33543D02*
X32657D01*
X31949Y33622D02*
X32657D01*
X31949Y33465D02*
X32647D01*
X31949Y33839D02*
X31998D01*
X31949D02*
X31998D01*
X31968Y32851D02*
Y33839D01*
X31112Y34135D02*
Y34350D01*
X30315Y34101D02*
Y34442D01*
X31949Y33297D02*
Y33396D01*
Y33839D01*
Y32830D02*
Y33297D01*
X30119Y33652D02*
X30354D01*
X31949Y33297D02*
Y33396D01*
X32952Y31968D02*
X35178D01*
X32952Y32598D02*
X35088D01*
X32937Y31890D02*
X35192D01*
X35197Y31784D02*
Y31877D01*
Y31469D02*
Y31562D01*
X32947Y31732D02*
X35183D01*
X32952Y31653D02*
X35178D01*
X32937Y31575D02*
X35192D01*
X35039Y32566D02*
Y32654D01*
X34961Y32478D02*
Y32647D01*
X32947Y32362D02*
X34917D01*
X32952Y32283D02*
X34912D01*
X32947Y32047D02*
X35031D01*
X35197Y31154D02*
Y31247D01*
X32937Y31260D02*
X35192D01*
X32947Y31417D02*
X35183D01*
X32937Y30945D02*
X35192D01*
X35197Y30840D02*
Y30932D01*
Y30525D02*
Y30617D01*
X32937Y30630D02*
X35192D01*
X32947Y30787D02*
X35183D01*
X34567Y30402D02*
Y32629D01*
X34252Y30402D02*
Y32629D01*
X34882Y30402D02*
Y32629D01*
X33307Y30402D02*
Y32629D01*
X32992Y30402D02*
Y32629D01*
X33622Y30402D02*
Y32629D01*
X32952Y31024D02*
X35178D01*
X32952Y31339D02*
X35178D01*
X32952Y30709D02*
X35178D01*
X32947Y31102D02*
X35183D01*
X32947Y30472D02*
X35183D01*
X32195Y32943D02*
X32628D01*
X31949Y33071D02*
X32638D01*
X31949Y33150D02*
X32638D01*
X31949Y32992D02*
X32638D01*
X32937Y32520D02*
X34991D01*
X32922Y32441D02*
X34941D01*
X32937Y32205D02*
X34926D01*
X32922Y32126D02*
X34962D01*
X31949Y32913D02*
X32059D01*
X31666Y32687D02*
X31877D01*
X31811Y32542D02*
Y32687D01*
X31666D02*
X31904Y32448D01*
X31833Y32520D02*
X31885D01*
X31755Y32598D02*
X31871D01*
X31890Y32463D02*
Y32507D01*
X31676Y32677D02*
X31875D01*
X31732Y32621D02*
Y32687D01*
X32922Y31811D02*
X35208D01*
X32922Y31181D02*
X35208D01*
X32922Y31496D02*
X35208D01*
X32922Y30866D02*
X35208D01*
X32922Y30551D02*
X35208D01*
X31811Y31658D02*
Y31692D01*
X31815Y31654D02*
X31871D01*
X31738Y31730D02*
X31815Y31654D01*
X26457Y35209D02*
Y35246D01*
X26378Y35130D02*
Y35246D01*
X26299Y35052D02*
Y35246D01*
X26142Y35073D02*
Y35246D01*
X25984Y35124D02*
Y35246D01*
X26220Y35010D02*
Y35246D01*
X26012Y35118D02*
X26366D01*
X26063Y35106D02*
Y35246D01*
X26190Y35039D02*
X26287D01*
X25590Y35197D02*
X26444D01*
X25827Y35128D02*
Y35246D01*
X25748Y35128D02*
Y35246D01*
X25905Y35128D02*
Y35246D01*
X25591Y35196D02*
Y35246D01*
X24803Y35175D02*
Y35246D01*
X25669Y35148D02*
Y35246D01*
X25020Y35236D02*
X25413D01*
X25692Y35128D02*
X25935D01*
X24882Y35213D02*
Y35246D01*
X24724Y35112D02*
Y35246D01*
X24646Y34999D02*
Y35246D01*
X30217Y34724D02*
X30255D01*
X30236Y33652D02*
Y34724D01*
X30217Y34567D02*
X30255D01*
X30217Y34724D02*
X30255D01*
X30176Y34094D02*
X30310D01*
X30187Y34488D02*
X30285D01*
X30205Y34016D02*
X30268D01*
X26238Y34990D02*
X26494Y35246D01*
X24646Y34532D02*
Y34647D01*
X24724Y34498D02*
Y34534D01*
Y33852D02*
Y33888D01*
X24628D02*
X24741D01*
X24646Y33739D02*
Y33888D01*
X23836Y35039D02*
X24668D01*
X24567Y34547D02*
Y35246D01*
X24488Y34542D02*
Y35246D01*
X22943D02*
X26494D01*
X23660Y35197D02*
X24843D01*
X23774Y35118D02*
X24730D01*
X23893Y34882D02*
X24611D01*
X23897Y34803D02*
X24607D01*
X23886Y34724D02*
X24618D01*
X23858Y34646D02*
X24646D01*
X23874Y34961D02*
X24630D01*
X23809Y34567D02*
X24695D01*
X23858Y34999D02*
Y35246D01*
X23779Y35112D02*
Y35246D01*
X24409Y34518D02*
Y35246D01*
X23622Y35213D02*
Y35246D01*
X22943Y35209D02*
Y35246D01*
X23701Y35175D02*
Y35246D01*
X23091Y35236D02*
X23484D01*
X24331Y34468D02*
Y35246D01*
X24252Y34370D02*
Y35246D01*
X23774Y34488D02*
X24357D01*
X23836Y34409D02*
X24277D01*
X23874Y34331D02*
X24234D01*
X23858Y34016D02*
X24277D01*
X23886Y34094D02*
X24234D01*
X23774Y33858D02*
X24730D01*
X23809Y33937D02*
X24358D01*
X23836Y33779D02*
X24668D01*
X23858Y34369D02*
Y34647D01*
X23779Y34482D02*
Y34533D01*
X23893Y34252D02*
X24215D01*
X23897Y34173D02*
X24215D01*
X23779Y33852D02*
Y33904D01*
X23858Y33739D02*
Y34017D01*
X30315Y33652D02*
Y33694D01*
X30205Y33779D02*
X30268D01*
X30162Y33701D02*
X30310D01*
X30157Y33652D02*
Y33694D01*
X29055Y32337D02*
Y32523D01*
X28951Y32441D02*
X29744D01*
X28872Y32520D02*
X29397D01*
X29030Y32362D02*
X29744D01*
X26142Y33149D02*
Y33258D01*
X26063Y32907D02*
Y33258D01*
X25692D02*
X26209D01*
X23897Y33543D02*
X24607D01*
X28898Y32494D02*
Y32591D01*
X28864Y32528D02*
Y32621D01*
X28976Y32415D02*
Y32545D01*
X25656Y33228D02*
X26188D01*
X25020Y33150D02*
X25413D01*
X29744Y32059D02*
Y32500D01*
X29685Y32032D02*
Y32475D01*
X29606Y31969D02*
Y32461D01*
X29108Y32283D02*
X29744D01*
X29527Y31864D02*
Y32466D01*
X28864Y32528D02*
X29537Y31855D01*
X29423Y31968D02*
X29606D01*
X29502Y31890D02*
X29552D01*
X29266Y32126D02*
X29744D01*
X29187Y32205D02*
X29744D01*
X29345Y32047D02*
X29715D01*
X29291Y32100D02*
Y32577D01*
X29213Y32179D02*
Y32538D01*
X29370Y32022D02*
Y32540D01*
X29134Y32258D02*
Y32521D01*
X26063Y32165D02*
Y32656D01*
X25984Y31999D02*
Y33258D01*
X26096Y32202D02*
X26205Y32311D01*
X26142Y32248D02*
Y32414D01*
X29449Y31943D02*
Y32490D01*
X22943Y32913D02*
X26064D01*
X22943Y32835D02*
X26055D01*
X22943Y32756D02*
X26054D01*
X22943Y33150D02*
X26142D01*
X22943Y33071D02*
X26107D01*
X22943Y32992D02*
X26081D01*
X22943Y32362D02*
X26171D01*
X22943Y32441D02*
X26129D01*
X22943Y32283D02*
X26177D01*
X22943Y32598D02*
X26074D01*
X22943Y32677D02*
X26060D01*
X22943Y32520D02*
X26097D01*
X23874Y33701D02*
X24630D01*
X23893Y33622D02*
X24611D01*
X23886Y33465D02*
X24618D01*
X23809Y33307D02*
X24695D01*
X23858Y33386D02*
X24646D01*
X23727Y33228D02*
X24777D01*
X23091Y33150D02*
X23484D01*
X22943Y31968D02*
X25979D01*
X22943Y31890D02*
X25974D01*
X22943Y31811D02*
X25974D01*
X22943Y32205D02*
X26098D01*
X22943Y32126D02*
X26036D01*
X22943Y32047D02*
X25998D01*
X22943Y31417D02*
X25974D01*
X22943Y31496D02*
X25974D01*
X22943Y31339D02*
X25974D01*
X22943Y31653D02*
X25974D01*
X22943Y31732D02*
X25974D01*
X22943Y31575D02*
X25974D01*
X22943Y30945D02*
X25974D01*
X22943Y31024D02*
X25974D01*
X22943Y30866D02*
X25974D01*
X22943Y31181D02*
X25974D01*
X22943Y31260D02*
X25974D01*
X22943Y31102D02*
X25974D01*
X22943Y30551D02*
X25974D01*
X22943Y30630D02*
X25974D01*
X22943Y30472D02*
X25974D01*
X22943Y30787D02*
X25974D01*
X22943Y30709D02*
X25974D01*
X34803Y30400D02*
Y32632D01*
X34488Y30400D02*
Y32632D01*
X34646Y30385D02*
Y32647D01*
X34331Y30385D02*
Y32647D01*
X34173Y30400D02*
Y32632D01*
X34016Y30385D02*
Y32647D01*
X35118Y30400D02*
Y31994D01*
X34932Y30394D02*
X35088D01*
X34961Y30385D02*
Y32129D01*
X34302Y30394D02*
X34458D01*
X33987D02*
X34143D01*
X34617D02*
X34773D01*
X33701Y30385D02*
Y32647D01*
X33543Y30400D02*
Y32632D01*
X33465Y30377D02*
Y32654D01*
X33386Y30385D02*
Y32647D01*
X33071Y30385D02*
Y32647D01*
X33150Y30377D02*
Y32654D01*
X33937Y30402D02*
Y32629D01*
X33858Y30400D02*
Y32632D01*
X33672Y30394D02*
X33828D01*
X33357D02*
X33513D01*
X33228Y30400D02*
Y32632D01*
X33042Y30394D02*
X33198D01*
X35039Y30377D02*
Y32040D01*
X34724Y30377D02*
Y32654D01*
X34409Y30377D02*
Y32654D01*
X34094Y30377D02*
Y32654D01*
X35490Y29606D02*
X36535D01*
X35470Y29527D02*
X36495D01*
X35446Y29478D02*
X35768D01*
X33779Y30377D02*
Y32654D01*
X32638Y29646D02*
Y30079D01*
X32667Y29341D02*
Y29510D01*
X32401Y29842D02*
X32638D01*
X32396Y29921D02*
X32638D01*
X32392Y29764D02*
X32638D01*
X32374Y30000D02*
X32638D01*
X32334Y30079D02*
X32638D01*
X32366Y29685D02*
X32638D01*
X32244Y29527D02*
X32660D01*
X32320Y29606D02*
X32640D01*
X31791Y29370D02*
X32667D01*
X32078Y29449D02*
X32667D01*
X32142Y29341D02*
X32667D01*
X32520D02*
Y30089D01*
X32362Y30029D02*
Y30089D01*
X32598Y29341D02*
Y30089D01*
X32327D02*
X32628D01*
X32205Y29341D02*
Y29500D01*
X31791Y29439D02*
Y29489D01*
X32362Y29341D02*
Y29676D01*
X31791Y29449D02*
X31899D01*
X31791Y29439D02*
Y29489D01*
X32441Y29341D02*
Y30089D01*
X32283Y29341D02*
Y29563D01*
X32126Y29340D02*
Y29463D01*
X32047Y29327D02*
Y29443D01*
X31890Y29229D02*
Y29451D01*
X31811Y29081D02*
Y29479D01*
X31968Y29293D02*
Y29439D01*
X31791Y29291D02*
X31965D01*
X31791Y29213D02*
X31876D01*
X31791Y29134D02*
X31829D01*
X31801Y28955D02*
Y29000D01*
X31791Y28954D02*
Y29439D01*
X31496Y27520D02*
Y28770D01*
X31063D02*
X31530D01*
X31339Y27520D02*
Y28770D01*
X31260Y27520D02*
Y28770D01*
X31417Y27520D02*
Y28770D01*
X31102Y27520D02*
Y28770D01*
X31181Y27520D02*
Y28770D01*
X34980Y28652D02*
Y28765D01*
X34930Y28661D02*
X34980D01*
Y28652D02*
Y28765D01*
X34913Y28740D02*
X34980D01*
X34927Y28583D02*
X34980D01*
X34906Y28504D02*
X34980D01*
X34771Y28346D02*
X34980D01*
X34860Y28425D02*
X34980D01*
X34599Y28189D02*
X34980D01*
X34627Y28268D02*
X34980D01*
X33376Y28343D02*
Y28390D01*
X34544Y28110D02*
X34980D01*
X34567Y28070D02*
Y28137D01*
X34532Y28070D02*
X34695D01*
X33386D02*
Y28262D01*
X33465Y28070D02*
Y28113D01*
X35354Y27520D02*
Y27982D01*
X35276Y27520D02*
Y27982D01*
X35433Y27520D02*
Y27982D01*
X34695Y27953D02*
X35709D01*
X34980Y27982D02*
X35709D01*
X35197Y27520D02*
Y27982D01*
X34695Y27559D02*
X35709D01*
X34695Y27638D02*
X35709D01*
X34695Y27520D02*
X35824D01*
X34695Y27795D02*
X35709D01*
X34695Y27874D02*
X35709D01*
X34695Y27716D02*
X35709D01*
X34980Y27982D02*
Y28652D01*
X34961Y27520D02*
Y28756D01*
X34882Y27520D02*
Y28457D01*
X34724Y27520D02*
Y28323D01*
X34646Y28070D02*
Y28301D01*
X34803Y27520D02*
Y28369D01*
X35039Y27520D02*
Y27982D01*
X34695Y27520D02*
Y28070D01*
X35118Y27520D02*
Y27982D01*
X34695Y28031D02*
X34980D01*
X33069Y28649D02*
X33256Y28462D01*
X33061Y28504D02*
X33214D01*
X33061Y28583D02*
X33136D01*
X33061Y28343D02*
Y28658D01*
Y28346D02*
X33376D01*
X33061Y28425D02*
X33301D01*
X33053Y28268D02*
X33384D01*
X32969Y28110D02*
X33468D01*
X33024Y28189D02*
X33413D01*
X32926Y28071D02*
X33238D01*
X31063Y28425D02*
X31560D01*
X31063Y28504D02*
X31518D01*
X31063Y28346D02*
X31641D01*
X31063Y28740D02*
X31518D01*
X31063Y28661D02*
X31498D01*
X31063Y28583D02*
X31498D01*
X31063Y28268D02*
X31810D01*
X32992Y28071D02*
Y28137D01*
X31063Y28189D02*
X31838D01*
X31063Y28110D02*
X31893D01*
X33228Y28071D02*
Y28490D01*
X33150Y28071D02*
Y28569D01*
X33307Y28070D02*
Y28422D01*
X31811Y28071D02*
Y28261D01*
X33071Y28071D02*
Y28647D01*
X33238Y28070D02*
X33512D01*
X33199D02*
X33238D01*
X31742Y28071D02*
X31900D01*
X31890D02*
Y28113D01*
X30472Y28031D02*
X31742D01*
X31732Y27520D02*
Y28302D01*
X31653Y27520D02*
Y28338D01*
X31742Y27520D02*
Y28071D01*
X27650Y27874D02*
X31742D01*
X27662Y27953D02*
X31742D01*
X31575Y27520D02*
Y28406D01*
X27599Y27716D02*
X31742D01*
X27629Y27795D02*
X31742D01*
X27559Y27638D02*
X31742D01*
X27507Y27559D02*
X31742D01*
X27476Y27520D02*
X31742D01*
X26903Y29373D02*
X27424Y28852D01*
X27165Y28789D02*
Y29110D01*
X27244Y28751D02*
Y29032D01*
X26801Y28976D02*
X27299D01*
X26801Y29055D02*
X27221D01*
X26801Y28898D02*
X27378D01*
X31063Y28711D02*
Y28770D01*
X27077Y28819D02*
X27461D01*
X26850Y28848D02*
Y29437D01*
X26801Y29370D02*
X26906D01*
X26801Y29449D02*
X26843D01*
X26801Y28846D02*
Y29539D01*
X27008Y28835D02*
Y29268D01*
X26929Y28845D02*
Y29347D01*
X27087Y28816D02*
Y29189D01*
X26801Y29213D02*
X27063D01*
X26801Y29291D02*
X26984D01*
X26801Y29134D02*
X27142D01*
X27402Y28640D02*
Y28874D01*
X27323Y28703D02*
Y28953D01*
X25974Y28514D02*
Y31909D01*
X25827Y27520D02*
Y33258D01*
X25748Y27520D02*
Y33258D01*
X25905Y27520D02*
Y33258D01*
X31063Y28711D02*
Y28770D01*
X29469Y28681D02*
Y28804D01*
Y28681D02*
Y28804D01*
X27480Y28558D02*
Y28804D01*
X29449Y27520D02*
Y28792D01*
X25591Y27520D02*
Y33189D01*
X25512Y27520D02*
Y33161D01*
X25669Y27520D02*
Y33238D01*
X24961Y27520D02*
Y33154D01*
X24882Y27520D02*
Y33173D01*
X25433Y27520D02*
Y33150D01*
X25276Y27520D02*
Y33150D01*
X25197Y27520D02*
Y33150D01*
X25354Y27520D02*
Y33150D01*
X25039Y27520D02*
Y33150D01*
X25118Y27520D02*
Y33150D01*
X22943Y30079D02*
X25974D01*
X22943Y30157D02*
X25974D01*
X22943Y30000D02*
X25974D01*
X22943Y30315D02*
X25974D01*
X22943Y30394D02*
X25974D01*
X22943Y30236D02*
X25974D01*
X22943Y29606D02*
X25974D01*
X22943Y29685D02*
X25974D01*
X22943Y29527D02*
X25974D01*
X22943Y29842D02*
X25974D01*
X22943Y29921D02*
X25974D01*
X22943Y29764D02*
X25974D01*
X22943Y29449D02*
X25974D01*
X24173Y27520D02*
Y35246D01*
X24252Y27520D02*
Y34055D01*
X22943Y29291D02*
X25974D01*
X22943Y29370D02*
X25974D01*
X22943Y29213D02*
X25974D01*
X22943Y28898D02*
X25974D01*
X22943Y28976D02*
X25974D01*
X22943Y28819D02*
X25974D01*
X22943Y29134D02*
X25974D01*
X22943Y29055D02*
X25974D01*
X24409Y27520D02*
Y33908D01*
X24331Y27520D02*
Y33957D01*
X24488Y27520D02*
Y33883D01*
X24016Y27520D02*
Y35246D01*
X23937Y27520D02*
Y35246D01*
X24094Y27520D02*
Y35246D01*
X24724Y27520D02*
Y33274D01*
X24646Y27520D02*
Y33387D01*
X24803Y27520D02*
Y33211D01*
X23858Y27520D02*
Y33387D01*
X23779Y27520D02*
Y33274D01*
X24567Y27520D02*
Y33879D01*
X23622Y27520D02*
Y33173D01*
X23543Y27520D02*
Y33154D01*
X23701Y27520D02*
Y33211D01*
X22992Y27520D02*
Y33162D01*
X22943Y27520D02*
Y33177D01*
X23071Y27520D02*
Y33150D01*
X23386Y27520D02*
Y33150D01*
X23307Y27520D02*
Y33150D01*
X23465Y27520D02*
Y33150D01*
X23150Y27520D02*
Y33150D01*
X23228Y27520D02*
Y33150D01*
X31063Y28041D02*
Y28711D01*
X31024Y27520D02*
Y28041D01*
X30945Y27520D02*
Y28041D01*
X30472D02*
X31063D01*
X30787Y27520D02*
Y28041D01*
X30709Y27520D02*
Y28041D01*
X30866Y27520D02*
Y28041D01*
X29469Y27972D02*
X30472D01*
Y28041D01*
X30472Y27520D02*
Y27972D01*
X30236Y27520D02*
Y27972D01*
X30315Y27520D02*
Y27972D01*
X29322Y28740D02*
X29469D01*
Y27972D02*
Y28681D01*
X30157Y27520D02*
Y27972D01*
X30079Y27520D02*
Y27972D01*
X30394Y27520D02*
Y27972D01*
X29921Y27520D02*
Y27972D01*
X30000Y27520D02*
Y27972D01*
X29370Y27520D02*
Y28754D01*
X29291Y27520D02*
Y28735D01*
X30551Y27520D02*
Y28041D01*
X29134Y27520D02*
Y28730D01*
X29055Y27520D02*
Y28730D01*
X29213Y27520D02*
Y28730D01*
X29842Y27520D02*
Y27972D01*
X29764Y27520D02*
Y27972D01*
X30630Y27520D02*
Y28041D01*
X29606Y27520D02*
Y27972D01*
X29527Y27520D02*
Y27972D01*
X29685Y27520D02*
Y27972D01*
X28504Y27520D02*
Y28730D01*
X28425Y27520D02*
Y28730D01*
X28583Y27520D02*
Y28730D01*
X28268Y27520D02*
Y28730D01*
X28189Y27520D02*
Y28730D01*
X28346Y27520D02*
Y28730D01*
X28898Y27520D02*
Y28730D01*
X28819Y27520D02*
Y28730D01*
X28976Y27520D02*
Y28730D01*
X28661Y27520D02*
Y28730D01*
X28740Y27520D02*
Y28730D01*
X27717D02*
X29231D01*
X27559Y28445D02*
Y28762D01*
X27638Y28258D02*
Y28738D01*
X27377Y28661D02*
X29469D01*
X27264Y28740D02*
X27627D01*
X27459Y28583D02*
X29469D01*
X27654Y28189D02*
X29469D01*
X27635Y28268D02*
X29469D01*
X27664Y28110D02*
X29469D01*
X27570Y28425D02*
X29469D01*
X27522Y28504D02*
X29469D01*
X27607Y28346D02*
X29469D01*
X22943Y28661D02*
X25974D01*
X22943Y28583D02*
X25974D01*
X22943Y28740D02*
X25974D01*
X22943Y28504D02*
X25975D01*
X22943Y28346D02*
X26010D01*
X22943Y28425D02*
X25984D01*
X26063Y28167D02*
Y28258D01*
X22943Y28268D02*
X26056D01*
X22943Y28189D02*
X26067D01*
X28031Y27520D02*
Y28730D01*
X27953Y27520D02*
Y28730D01*
X28110Y27520D02*
Y28730D01*
X27795Y27520D02*
Y28730D01*
X27716Y27520D02*
Y28730D01*
X27874Y27520D02*
Y28730D01*
X27667Y28031D02*
X29469D01*
X27638Y27520D02*
Y27825D01*
X27559Y27520D02*
Y27637D01*
X22943Y27520D02*
X26244D01*
X22943Y28110D02*
X26056D01*
X25984Y27520D02*
Y28424D01*
X26063Y27520D02*
Y27916D01*
X22943Y27953D02*
X26058D01*
X22943Y28031D02*
X26053D01*
X22943Y27874D02*
X26071D01*
X22943Y27716D02*
X26121D01*
X22943Y27795D02*
X26092D01*
X26142Y27520D02*
Y27674D01*
X22943Y27638D02*
X26161D01*
X22943Y27559D02*
X26213D01*
X32224Y34380D02*
X32264Y34341D01*
X32224Y34380D02*
Y35049D01*
X35177Y34695D02*
X35669D01*
X36083Y34281D01*
X45128Y30846D02*
Y33996D01*
X44364Y34760D02*
X45128Y33996D01*
X43730Y34760D02*
X44364D01*
X40876Y33199D02*
X41496D01*
X41772Y32923D01*
X43396D01*
X43730Y33258D01*
Y33760D01*
X38661Y33691D02*
X39055D01*
X39390Y34026D01*
Y34774D01*
X36250Y28917D02*
X37146D01*
X36102Y28770D02*
X36250Y28917D01*
X36102Y28514D02*
Y28770D01*
Y27667D02*
Y27904D01*
Y27667D02*
X36250Y27520D01*
X44163D01*
X44488Y27844D01*
Y28799D01*
X30896Y32470D02*
X31437D01*
X31919Y31988D01*
X32411D01*
X31555Y34754D02*
Y35049D01*
X28451Y34331D02*
X28927D01*
X29242Y34646D01*
X29744D01*
X28500Y33593D02*
X28750D01*
X29055Y33898D01*
X29744D01*
X30669Y30384D02*
X31053D01*
X31398Y30728D01*
X32411D01*
X30669Y29124D02*
X30679Y29134D01*
X29852Y31742D02*
X30335D01*
X29980Y31132D02*
X30335D01*
X31545Y35039D02*
X31555Y35049D01*
X26732Y35039D02*
X31545D01*
X26451Y34758D02*
X26732Y35039D01*
X26451Y34331D02*
Y34758D01*
X28451Y33543D02*
X28500Y33593D01*
X30669Y29124D02*
X30669Y29124D01*
X29970Y29124D02*
X30669D01*
X30669Y29124D02*
Y29911D01*
D11*
X40876Y33819D02*
D03*
Y34429D02*
D03*
X36102Y27904D02*
D03*
Y28514D02*
D03*
X35177Y34085D02*
D03*
Y34695D02*
D03*
X34577Y34085D02*
D03*
Y34695D02*
D03*
X33976Y34085D02*
D03*
Y34695D02*
D03*
X33376Y34695D02*
D03*
Y34085D02*
D03*
X31555Y33651D02*
D03*
Y33041D02*
D03*
D12*
X41565Y31112D02*
D03*
X42175D02*
D03*
X42323Y30049D02*
D03*
X41713D02*
D03*
X42342Y29439D02*
D03*
X41732D02*
D03*
X29714Y33278D02*
D03*
X29104D02*
D03*
X30945Y31742D02*
D03*
X30335D02*
D03*
X30945Y31132D02*
D03*
X30335D02*
D03*
X30905Y33258D02*
D03*
X30295D02*
D03*
D13*
X40728Y27917D02*
D03*
Y28417D02*
D03*
Y28917D02*
D03*
Y29417D02*
D03*
Y29917D02*
D03*
Y30417D02*
D03*
Y30917D02*
D03*
Y31417D02*
D03*
Y31917D02*
D03*
Y32417D02*
D03*
X37146Y27917D02*
D03*
Y28417D02*
D03*
Y28917D02*
D03*
Y29417D02*
D03*
Y29917D02*
D03*
Y30417D02*
D03*
Y30917D02*
D03*
Y31417D02*
D03*
Y31917D02*
D03*
Y32417D02*
D03*
D14*
X40207Y33199D02*
D03*
X40876D02*
D03*
X32156Y27677D02*
D03*
X32825D02*
D03*
X34281Y27676D02*
D03*
X33612D02*
D03*
X32224Y35049D02*
D03*
X31555D02*
D03*
D15*
X35374Y28396D02*
D03*
Y29065D02*
D03*
X31398Y29183D02*
D03*
Y29852D02*
D03*
X30669Y29124D02*
D03*
Y28455D02*
D03*
D16*
X34006Y28671D02*
D03*
X32431D02*
D03*
D17*
X32411Y30413D02*
D03*
Y30728D02*
D03*
Y31043D02*
D03*
Y31358D02*
D03*
Y31673D02*
D03*
Y31988D02*
D03*
Y32303D02*
D03*
Y32618D02*
D03*
X35719D02*
D03*
Y32303D02*
D03*
Y31988D02*
D03*
Y31673D02*
D03*
Y31358D02*
D03*
Y31043D02*
D03*
Y30728D02*
D03*
Y30413D02*
D03*
D18*
X32963Y33169D02*
D03*
X33278D02*
D03*
X33593D02*
D03*
X33907D02*
D03*
X34222D02*
D03*
X34537D02*
D03*
X34852D02*
D03*
X35167D02*
D03*
Y29862D02*
D03*
X34852D02*
D03*
X34537D02*
D03*
X34222D02*
D03*
X33907D02*
D03*
X33593D02*
D03*
X33278D02*
D03*
X32963D02*
D03*
D19*
X30896Y32470D02*
D03*
X30187D02*
D03*
X31555Y34341D02*
D03*
X32264D02*
D03*
D20*
X29744Y33898D02*
D03*
X30728D02*
D03*
X29744Y34646D02*
D03*
X30728D02*
D03*
X29744Y34272D02*
D03*
D21*
X29970Y29124D02*
D03*
Y28415D02*
D03*
D22*
X30669Y29911D02*
D03*
X29921D02*
D03*
D23*
X25217Y33563D02*
D03*
Y34193D02*
D03*
Y34823D02*
D03*
X23287Y33563D02*
D03*
Y34193D02*
D03*
Y34823D02*
D03*
D24*
X40876Y32407D02*
Y33199D01*
X40876Y34429D02*
X41722D01*
X35600Y33120D02*
X35719Y33002D01*
Y32618D02*
Y33002D01*
X36381Y33379D02*
X37146Y32615D01*
X35676Y34085D02*
X36381Y33379D01*
X36053Y33051D02*
X36381Y33379D01*
X36559Y29917D02*
X37146D01*
X36378Y30098D02*
X36559Y29917D01*
X36378Y30098D02*
Y31309D01*
X38752Y31917D02*
X40728D01*
X40876Y33819D02*
X40876Y33819D01*
Y33199D02*
Y33819D01*
X42083Y34789D02*
X42421D01*
X41722Y34429D02*
X42083Y34789D01*
X40354Y34429D02*
X40876D01*
X39222Y33297D02*
X40354Y34429D01*
X39016Y33297D02*
X39222D01*
X38789Y33071D02*
X39016Y33297D01*
X38789Y32621D02*
Y33071D01*
X38415Y29341D02*
Y32707D01*
X38051Y31220D02*
Y33071D01*
X37087Y33317D02*
X37697Y32707D01*
X37748Y30917D02*
X38051Y31220D01*
X37874Y33248D02*
X38051Y33071D01*
X35719Y31673D02*
X36270D01*
X36596Y31917D02*
X37146D01*
X36486Y32028D02*
X36596Y31917D01*
X36486Y32028D02*
Y32274D01*
X37146Y32417D02*
Y32615D01*
X36142Y32618D02*
X36486Y32274D01*
X35719Y32618D02*
X36142D01*
X39339Y28417D02*
X40728D01*
X38415Y29341D02*
X39339Y28417D01*
X37874Y33248D02*
Y33691D01*
X37087Y33317D02*
Y33691D01*
X37146Y30917D02*
X37748D01*
X35246Y32303D02*
X35719D01*
X35600Y33701D02*
X35807Y33494D01*
X35177Y34085D02*
X35676D01*
X35325Y33701D02*
X35600D01*
X35167Y33543D02*
X35325Y33701D01*
X35167Y33169D02*
Y33543D01*
X35177Y34695D02*
Y35069D01*
Y33976D02*
Y34085D01*
X34872Y33671D02*
X35177Y33976D01*
X34872Y33667D02*
Y33671D01*
X34852Y33647D02*
X34872Y33667D01*
X34852Y33169D02*
Y33647D01*
X32874Y34528D02*
X33041Y34695D01*
X33376D01*
X29587Y32795D02*
X29714Y32923D01*
Y33278D01*
X25217Y33563D02*
X26230D01*
X26289Y33622D01*
X29104Y32854D02*
Y33278D01*
X25935Y34823D02*
X25974Y34783D01*
X25217Y34823D02*
X25935D01*
X34577Y34695D02*
Y35069D01*
X24567Y34193D02*
X25217D01*
X24547Y34213D02*
X24567Y34193D01*
X33976Y34695D02*
Y35069D01*
X34577Y33789D02*
Y34085D01*
X34488Y33701D02*
X34577Y33789D01*
X34364Y33701D02*
X34488D01*
X34222Y33559D02*
X34364Y33701D01*
X34222Y33169D02*
Y33559D01*
X33976Y33730D02*
Y34085D01*
X33907Y33661D02*
X33976Y33730D01*
X33907Y33169D02*
Y33661D01*
X33110Y34085D02*
X33376D01*
X32963Y33937D02*
X33110Y34085D01*
X32963Y33169D02*
Y33937D01*
X31398Y30020D02*
Y30118D01*
X31693Y30413D01*
X32411D01*
X31693D02*
X31988Y30118D01*
Y29852D02*
Y30118D01*
D25*
X43488Y30799D02*
Y31482D01*
X26860Y32382D02*
Y32782D01*
X26388Y31909D02*
X26860Y32382D01*
X26388Y28514D02*
Y31909D01*
Y28514D02*
X26860Y28041D01*
X27717Y29144D02*
X29232D01*
X27195Y29665D02*
X27717Y29144D01*
X27195Y29665D02*
Y31240D01*
X27864Y31909D01*
Y33248D01*
X27451Y33661D02*
X27864Y33248D01*
X27451Y33661D02*
Y34331D01*
X28451Y33543D02*
Y34331D01*
X30669Y29911D02*
Y30384D01*
X30453Y30600D02*
X30669Y30384D01*
X29409Y30945D02*
Y31398D01*
Y30945D02*
X29754Y30600D01*
X30453D01*
X28451Y32356D02*
X29409Y31398D01*
X28451Y32356D02*
Y33543D01*
X29913Y29919D02*
X29921Y29911D01*
X28715Y29919D02*
X29913D01*
D26*
X43982Y30305D02*
X44488Y29799D01*
X43120Y30305D02*
X43982D01*
X42342Y29439D02*
X42982D01*
X43120Y29301D01*
X44783D01*
X42421Y33789D02*
X42854D01*
X42421Y33356D02*
Y33789D01*
X41988D02*
X42421D01*
X38661Y34478D02*
Y34892D01*
X40207Y33199D02*
Y33494D01*
Y32904D02*
Y33199D01*
X39892D02*
X40207D01*
X43488Y30799D02*
Y31232D01*
X37146Y27917D02*
X37717D01*
X36575D02*
X37146D01*
X32264Y34341D02*
X32608D01*
X32264Y33937D02*
Y34341D01*
X32224Y35049D02*
X32539D01*
X32411Y31673D02*
X32854D01*
X31969D02*
X32411D01*
X29744Y34272D02*
X30128D01*
X29360D02*
X29744D01*
X23287Y34823D02*
X23799D01*
X23287D02*
Y35138D01*
Y34193D02*
X23799D01*
X30295Y33258D02*
Y33553D01*
X29843Y32470D02*
X30187D01*
X23287Y33563D02*
X23799D01*
X23287Y33248D02*
Y33563D01*
X33593Y29862D02*
Y30305D01*
Y29419D02*
Y29862D01*
X31398Y29183D02*
X31693D01*
X31398Y28868D02*
Y29183D01*
X35079Y28396D02*
X35374D01*
Y28081D02*
Y28396D01*
X33612Y27676D02*
Y27972D01*
X32825Y27677D02*
Y27972D01*
X30669Y28455D02*
X30965D01*
X30669Y28140D02*
Y28455D01*
X29970Y28071D02*
Y28415D01*
X29567D02*
X29970D01*
X37874Y34478D02*
Y34862D01*
X37687Y35049D02*
X37874Y34862D01*
X36821Y35049D02*
X37687D01*
X36417Y34646D02*
X36821Y35049D01*
X36417Y34035D02*
Y34646D01*
X39390Y34774D02*
Y34990D01*
X39094Y35285D02*
X39390Y34990D01*
X35886Y35285D02*
X39094D01*
X35650Y35049D02*
X35886Y35285D01*
X35630Y35049D02*
X35650D01*
X45049Y29567D02*
Y30238D01*
X44488Y30799D02*
X45049Y30238D01*
X44783Y29301D02*
X45049Y29567D01*
X41711Y29417D02*
X41732Y29439D01*
X40728Y29417D02*
X41711D01*
X41713Y30049D02*
Y30266D01*
X41561Y30417D02*
X41713Y30266D01*
X40728Y30417D02*
X41561D01*
X41565Y31112D02*
Y31289D01*
X41437Y31417D02*
X41565Y31289D01*
X40728Y31417D02*
X41437D01*
X42470Y31112D02*
X42864Y30719D01*
X42175Y31112D02*
X42470D01*
X42864Y30049D02*
X43120Y30305D01*
X42323Y30049D02*
X42864D01*
X33986Y29331D02*
X34567D01*
X34833Y29065D01*
X35374D01*
X33907Y29409D02*
X33986Y29331D01*
X33907Y29409D02*
Y29862D01*
D27*
X40876Y33819D02*
X41378D01*
X41388Y33829D01*
X31280Y34754D02*
X31555D01*
X31171Y34646D02*
X31280Y34754D01*
X30728Y34646D02*
X31171D01*
X30728Y33671D02*
Y33898D01*
Y33671D02*
X30905Y33494D01*
Y33258D02*
Y33494D01*
X31309Y33041D02*
X31555D01*
X31093Y33258D02*
X31309Y33041D01*
X30905Y33258D02*
X31093D01*
X30945Y31742D02*
X31309D01*
X31693Y31358D01*
X32411D01*
X30945Y31132D02*
X31476D01*
X31565Y31043D01*
X32411D01*
X32382Y28622D02*
X32431Y28671D01*
X31831Y28622D02*
X32382D01*
X34006Y28671D02*
X34045Y28632D01*
X34596D01*
X32431Y28199D02*
Y28671D01*
X32156Y27923D02*
X32431Y28199D01*
X32156Y27677D02*
Y27923D01*
X34006Y28189D02*
Y28671D01*
Y28189D02*
X34281Y27913D01*
Y27676D02*
Y27913D01*
X32431Y28671D02*
X32963Y29203D01*
Y29862D01*
X33465Y28671D02*
X34006D01*
X33278Y28858D02*
X33465Y28671D01*
X33278Y28858D02*
Y29862D01*
D28*
X31398Y29852D02*
Y30020D01*
D29*
X43488Y30799D02*
D03*
X44488D02*
D03*
X43488Y29799D02*
D03*
Y28799D02*
D03*
X44488Y29799D02*
D03*
X43730Y34760D02*
D03*
X42421Y34789D02*
D03*
X27451Y34331D02*
D03*
X26451D02*
D03*
D30*
X44488Y28799D02*
D03*
X43730Y33760D02*
D03*
X42421Y33789D02*
D03*
D31*
X38661Y34478D02*
D03*
Y33691D02*
D03*
X37874Y34478D02*
D03*
X37087D02*
D03*
X37874Y33691D02*
D03*
D32*
X37087D02*
D03*
D33*
X28451Y34331D02*
D03*
D34*
X28715Y29919D02*
D03*
X27927D02*
D03*
X28715Y30904D02*
D03*
X27927D02*
D03*
D35*
X26860Y28041D02*
D03*
Y32782D02*
D03*
D36*
X28760Y28484D02*
D03*
X31476Y28022D02*
D03*
X30502Y27677D02*
D03*
X29193Y27707D02*
D03*
X32087Y33632D02*
D03*
X32234Y33209D02*
D03*
X32470Y33642D02*
D03*
X45049Y27657D02*
D03*
X41949Y32293D02*
D03*
X44429Y32598D02*
D03*
X40000Y34695D02*
D03*
X39390Y32805D02*
D03*
X39616Y32352D02*
D03*
X40000Y32805D02*
D03*
X40354Y33789D02*
D03*
X42402Y27992D02*
D03*
X41555Y28593D02*
D03*
X39715Y28937D02*
D03*
X39045Y30276D02*
D03*
X39636Y31339D02*
D03*
X39744Y27943D02*
D03*
X38878Y28071D02*
D03*
X37982Y28888D02*
D03*
X38022Y30502D02*
D03*
X38041Y27943D02*
D03*
X34813Y28081D02*
D03*
X35433Y27751D02*
D03*
X35974Y29724D02*
D03*
X34134Y32116D02*
D03*
X34882Y31122D02*
D03*
X33100Y31683D02*
D03*
X33593Y30502D02*
D03*
X33593Y29419D02*
D03*
X33150Y28455D02*
D03*
X23701Y28868D02*
D03*
X23760Y28051D02*
D03*
X24518Y28878D02*
D03*
X24045Y33553D02*
D03*
X24075Y34154D02*
D03*
Y34823D02*
D03*
X29331Y32293D02*
D03*
X30236Y33652D02*
D03*
X30226Y34252D02*
D03*
X41388Y33829D02*
D03*
X36083Y34281D02*
D03*
X36417Y34035D02*
D03*
X35600Y33120D02*
D03*
X36053Y33051D02*
D03*
X36378Y31309D02*
D03*
X38752Y31917D02*
D03*
X45128Y30846D02*
D03*
X38789Y32621D02*
D03*
X37697Y32707D02*
D03*
X38415D02*
D03*
X36270Y31673D02*
D03*
X35246Y32303D02*
D03*
X35807Y33494D02*
D03*
X35177Y35069D02*
D03*
X35630Y35049D02*
D03*
X32963Y33937D02*
D03*
X42864Y30719D02*
D03*
X32874Y34528D02*
D03*
X29587Y32795D02*
D03*
X26289Y33622D02*
D03*
X29104Y32854D02*
D03*
X25974Y34783D02*
D03*
X34577Y35069D02*
D03*
X24547Y34213D02*
D03*
X33976Y35069D02*
D03*
X34833Y29065D02*
D03*
X31831Y28622D02*
D03*
X34596Y28632D02*
D03*
X29852Y31742D02*
D03*
X29980Y31132D02*
D03*
D37*
X31988Y29852D02*
D03*
X29232Y29144D02*
D03*
M02*
