G04 Layer_Color=65535*
%FSLAX24Y24*%
%MOIN*%
G70*
G01*
G75*
%ADD41C,0.0236*%
%ADD42C,0.0098*%
%ADD43C,0.0070*%
%ADD44C,0.0100*%
%ADD45C,0.0079*%
%ADD46C,0.0039*%
%ADD47C,0.0071*%
D41*
X38268Y32333D02*
G03*
X38268Y32333I-118J0D01*
G01*
X33415Y30748D02*
G03*
X33415Y30748I-118J0D01*
G01*
D42*
X37195Y32752D02*
G03*
X37195Y32752I-49J0D01*
G01*
X32687Y29862D02*
G03*
X32687Y29862I-49J0D01*
G01*
X29256Y34830D02*
G03*
X29256Y34830I-49J0D01*
G01*
D43*
X41144Y32943D02*
G03*
X41145Y33454I-608J256D01*
G01*
X39937D02*
G03*
X39938Y32943I609J-255D01*
G01*
X35630Y29333D02*
G03*
X35119Y29334I-256J-608D01*
G01*
Y28126D02*
G03*
X35630Y28127I255J609D01*
G01*
X33093Y27421D02*
G03*
X33094Y27932I-608J256D01*
G01*
X31886D02*
G03*
X31886Y27421I609J-255D01*
G01*
X33344Y27932D02*
G03*
X33343Y27422I608J-256D01*
G01*
X34551D02*
G03*
X34551Y27932I-609J255D01*
G01*
X31653Y30121D02*
G03*
X31143Y30121I-256J-608D01*
G01*
Y28913D02*
G03*
X31653Y28914I255J609D01*
G01*
X31287Y35305D02*
G03*
X31286Y34795I608J-256D01*
G01*
X32494D02*
G03*
X32494Y35305I-609J255D01*
G01*
X30414Y28186D02*
G03*
X30924Y28186I256J608D01*
G01*
Y29394D02*
G03*
X30414Y29393I-255J-609D01*
G01*
X40620Y34646D02*
X41132D01*
X40620Y33602D02*
X41132D01*
X40620D02*
Y34646D01*
X41132Y33602D02*
Y34646D01*
X35846Y28730D02*
X36358D01*
X35846Y27687D02*
X36358D01*
X35846D02*
Y28730D01*
X36358Y27687D02*
Y28730D01*
X42392Y30856D02*
Y31368D01*
X41348Y30856D02*
Y31368D01*
X42392D01*
X41348Y30856D02*
X42392D01*
X41496Y29793D02*
Y30305D01*
X42539Y29793D02*
Y30305D01*
X41496Y29793D02*
X42539D01*
X41496Y30305D02*
X42539D01*
X41516Y29183D02*
Y29695D01*
X42559Y29183D02*
Y29695D01*
X41516Y29183D02*
X42559D01*
X41516Y29695D02*
X42559D01*
X39941Y33454D02*
X41141D01*
X39941Y32943D02*
X41142D01*
X34921Y34911D02*
X35433D01*
X34921Y33868D02*
X35433D01*
X34921D02*
Y34911D01*
X35433Y33868D02*
Y34911D01*
X28888Y33022D02*
Y33533D01*
X29931Y33022D02*
Y33533D01*
X28888Y33022D02*
X29931D01*
X28888Y33533D02*
X29931D01*
X34321Y34911D02*
X34833D01*
X34321Y33868D02*
X34833D01*
X34321D02*
Y34911D01*
X34833Y33868D02*
Y34911D01*
X33720D02*
X34232D01*
X33720Y33868D02*
X34232D01*
X33720D02*
Y34911D01*
X34232Y33868D02*
Y34911D01*
X33120Y33868D02*
X33632D01*
X33120Y34911D02*
X33632D01*
Y33868D02*
Y34911D01*
X33120Y33868D02*
Y34911D01*
X35119Y28130D02*
Y29330D01*
X35630Y28130D02*
Y29331D01*
X31890Y27932D02*
X33090D01*
X31890Y27421D02*
X33091D01*
X33347D02*
X34547D01*
X33346Y27932D02*
X34547D01*
X31143Y28917D02*
Y30117D01*
X31654Y28917D02*
Y30118D01*
X30118Y31486D02*
Y31998D01*
X31161Y31486D02*
Y31998D01*
X30118Y31486D02*
X31161D01*
X30118Y31998D02*
X31161D01*
X30118Y30876D02*
Y31388D01*
X31161Y30876D02*
Y31388D01*
X30118Y30876D02*
X31161D01*
X30118Y31388D02*
X31161D01*
X30079Y33002D02*
Y33514D01*
X31122Y33002D02*
Y33514D01*
X30079Y33002D02*
X31122D01*
X30079Y33514D02*
X31122D01*
X31299Y32825D02*
X31811D01*
X31299Y33868D02*
X31811D01*
Y32825D02*
Y33868D01*
X31299Y32825D02*
Y33868D01*
X31290Y34794D02*
X32490D01*
X31289Y35305D02*
X32490D01*
X30924Y28190D02*
Y29390D01*
X30413Y28189D02*
Y29390D01*
D44*
X22857Y35207D02*
G03*
X22857Y35207I-42J0D01*
G01*
X42738Y30049D02*
X42740Y31626D01*
X45260Y27965D02*
Y31626D01*
X42738Y31649D02*
X45238D01*
X42738Y27949D02*
X45238D01*
X42738D02*
X42740Y30091D01*
X43218Y33248D02*
X44242D01*
X43218Y35295D02*
X44242D01*
Y33248D02*
Y35295D01*
X43218Y33248D02*
Y35295D01*
X41909Y33278D02*
X42933D01*
X41909Y35325D02*
X42933D01*
Y33278D02*
Y35325D01*
X41909Y33278D02*
Y35325D01*
X36654Y33258D02*
X39094D01*
Y34911D01*
X36654D02*
X39094D01*
X36654Y33258D02*
Y34911D01*
X28963Y33819D02*
Y34843D01*
X25931Y33819D02*
Y34843D01*
X28963D01*
X25931Y33819D02*
X28963D01*
X27730Y27951D02*
X29305D01*
X27730Y32872D02*
X29305D01*
X22813Y27951D02*
Y32872D01*
X29305Y27951D02*
Y32872D01*
X22813Y27951D02*
X25963D01*
X22813Y32872D02*
X25963D01*
D45*
X27461Y34843D02*
Y35394D01*
X37756Y27608D02*
X40118D01*
X37756Y32726D02*
X40118D01*
Y27608D02*
Y32726D01*
X37756Y27608D02*
Y32726D01*
X34203Y28041D02*
Y28081D01*
X32234Y28041D02*
X34203D01*
X32234D02*
Y28081D01*
X34203Y29262D02*
Y29301D01*
X32234D02*
X34203D01*
X32234Y29262D02*
Y29301D01*
X35226Y30354D02*
Y32677D01*
X32904Y30354D02*
Y32677D01*
X35226D01*
X32904Y30354D02*
X35226D01*
X24272Y33553D02*
X24469D01*
X24272Y34183D02*
X24469D01*
X24272Y33317D02*
Y33809D01*
X24026Y33563D02*
X24272Y33317D01*
X24026Y33563D02*
X24272Y33809D01*
X23986Y33317D02*
Y33809D01*
X23770Y33563D02*
X24026D01*
X24272Y33937D02*
Y34429D01*
X24026Y34183D02*
X24272Y33937D01*
X24026Y34183D02*
X24272Y34429D01*
X23986Y33937D02*
Y34429D01*
X23770Y34183D02*
X24026D01*
X23760Y34823D02*
X24016D01*
X23976Y34577D02*
Y35069D01*
X24016Y34823D02*
X24262Y35069D01*
X24016Y34823D02*
X24262Y34577D01*
Y35069D01*
Y34823D02*
X24459D01*
X23110Y35226D02*
X24321D01*
X22825Y34941D02*
X23110Y35226D01*
X22825Y33189D02*
Y34941D01*
Y33189D02*
X25650D01*
Y35226D01*
X24321D02*
X25650D01*
X44419Y33376D02*
Y33586D01*
Y33481D01*
X44734D01*
Y33691D02*
X44524D01*
X44419Y33796D01*
X44524Y33901D01*
X44734D01*
X44577D01*
Y33691D01*
X44734Y34006D02*
X44419D01*
Y34163D01*
X44472Y34216D01*
X44577D01*
X44629Y34163D01*
Y34006D01*
Y34111D02*
X44734Y34216D01*
X44472Y34530D02*
X44419Y34478D01*
Y34373D01*
X44472Y34321D01*
X44682D01*
X44734Y34373D01*
Y34478D01*
X44682Y34530D01*
X44577D01*
Y34426D01*
X44419Y34845D02*
Y34635D01*
X44734D01*
Y34845D01*
X44577Y34635D02*
Y34740D01*
X44419Y34950D02*
Y35160D01*
Y35055D01*
X44734D01*
X45207Y33514D02*
X44892D01*
Y33671D01*
X44944Y33724D01*
X45049D01*
X45102Y33671D01*
Y33514D01*
X44892Y33986D02*
Y33881D01*
X44944Y33829D01*
X45154D01*
X45207Y33881D01*
Y33986D01*
X45154Y34039D01*
X44944D01*
X44892Y33986D01*
Y34144D02*
X45207D01*
X45102Y34248D01*
X45207Y34353D01*
X44892D01*
Y34668D02*
Y34458D01*
X45207D01*
Y34668D01*
X45049Y34458D02*
Y34563D01*
X45207Y34773D02*
X44892D01*
Y34931D01*
X44944Y34983D01*
X45049D01*
X45102Y34931D01*
Y34773D01*
Y34878D02*
X45207Y34983D01*
X27736Y35177D02*
X27946D01*
X27841Y35282D02*
Y35072D01*
X28261Y35335D02*
X28051D01*
Y35177D01*
X28156Y35230D01*
X28209D01*
X28261Y35177D01*
Y35072D01*
X28209Y35020D01*
X28104D01*
X28051Y35072D01*
X28366Y35335D02*
Y35125D01*
X28471Y35020D01*
X28576Y35125D01*
Y35335D01*
X26112Y35177D02*
X26322D01*
X26217Y35282D02*
Y35072D01*
X26427Y35282D02*
X26480Y35335D01*
X26584D01*
X26637Y35282D01*
Y35230D01*
X26584Y35177D01*
X26532D01*
X26584D01*
X26637Y35125D01*
Y35072D01*
X26584Y35020D01*
X26480D01*
X26427Y35072D01*
X26742Y35335D02*
Y35125D01*
X26847Y35020D01*
X26952Y35125D01*
Y35335D01*
X27057Y35282D02*
X27109Y35335D01*
X27214D01*
X27267Y35282D01*
Y35230D01*
X27214Y35177D01*
X27162D01*
X27214D01*
X27267Y35125D01*
Y35072D01*
X27214Y35020D01*
X27109D01*
X27057Y35072D01*
X40620Y34774D02*
Y35088D01*
X40778D01*
X40830Y35036D01*
Y34931D01*
X40778Y34879D01*
X40620D01*
X40725D02*
X40830Y34774D01*
X40935Y34826D02*
X40987Y34774D01*
X41092D01*
X41145Y34826D01*
Y35036D01*
X41092Y35088D01*
X40987D01*
X40935Y35036D01*
Y34984D01*
X40987Y34931D01*
X41145D01*
X35925Y28858D02*
Y29173D01*
X36083D01*
X36135Y29121D01*
Y29016D01*
X36083Y28963D01*
X35925D01*
X36030D02*
X36135Y28858D01*
X36240D02*
X36345D01*
X36293D01*
Y29173D01*
X36240Y29121D01*
X41585Y31476D02*
Y31791D01*
X41742D01*
X41795Y31739D01*
Y31634D01*
X41742Y31581D01*
X41585D01*
X41690D02*
X41795Y31476D01*
X42109D02*
X41899D01*
X42109Y31686D01*
Y31739D01*
X42057Y31791D01*
X41952D01*
X41899Y31739D01*
X41742Y30423D02*
Y30738D01*
X41900D01*
X41952Y30686D01*
Y30581D01*
X41900Y30528D01*
X41742D01*
X41847D02*
X41952Y30423D01*
X42057Y30686D02*
X42109Y30738D01*
X42214D01*
X42267Y30686D01*
Y30633D01*
X42214Y30581D01*
X42162D01*
X42214D01*
X42267Y30528D01*
Y30476D01*
X42214Y30423D01*
X42109D01*
X42057Y30476D01*
X41782Y28750D02*
Y29065D01*
X41939D01*
X41991Y29012D01*
Y28907D01*
X41939Y28855D01*
X41782D01*
X41886D02*
X41991Y28750D01*
X42254D02*
Y29065D01*
X42096Y28907D01*
X42306D01*
X42681Y32102D02*
X42891Y31787D01*
Y32102D02*
X42681Y31787D01*
X42996D02*
Y32102D01*
X43153D01*
X43206Y32050D01*
Y31945D01*
X43153Y31892D01*
X42996D01*
X43311Y31787D02*
X43416D01*
X43363D01*
Y32102D01*
X43311Y32050D01*
X43724Y33081D02*
X43619D01*
X43671D01*
Y32818D01*
X43619Y32766D01*
X43566D01*
X43514Y32818D01*
X43829Y32766D02*
X43934D01*
X43881D01*
Y33081D01*
X43829Y33028D01*
X42385Y33126D02*
X42280D01*
X42333D01*
Y32864D01*
X42280Y32811D01*
X42228D01*
X42175Y32864D01*
X42700Y32811D02*
X42490D01*
X42700Y33021D01*
Y33073D01*
X42647Y33126D01*
X42543D01*
X42490Y33073D01*
X36752Y35394D02*
X36962Y35079D01*
Y35394D02*
X36752Y35079D01*
X37067D02*
Y35394D01*
X37224D01*
X37277Y35341D01*
Y35236D01*
X37224Y35184D01*
X37067D01*
X37382Y35341D02*
X37434Y35394D01*
X37539D01*
X37592Y35341D01*
Y35289D01*
X37539Y35236D01*
X37487D01*
X37539D01*
X37592Y35184D01*
Y35131D01*
X37539Y35079D01*
X37434D01*
X37382Y35131D01*
X41250Y33002D02*
Y32739D01*
X41302Y32687D01*
X41407D01*
X41460Y32739D01*
Y33002D01*
X41775Y32687D02*
X41565D01*
X41775Y32897D01*
Y32949D01*
X41722Y33002D01*
X41617D01*
X41565Y32949D01*
X39432Y33294D02*
X39380Y33346D01*
X39275D01*
X39222Y33294D01*
Y33084D01*
X39275Y33031D01*
X39380D01*
X39432Y33084D01*
X39537Y33294D02*
X39590Y33346D01*
X39695D01*
X39747Y33294D01*
Y33241D01*
X39695Y33189D01*
X39747Y33136D01*
Y33084D01*
X39695Y33031D01*
X39590D01*
X39537Y33084D01*
Y33136D01*
X39590Y33189D01*
X39537Y33241D01*
Y33294D01*
X39590Y33189D02*
X39695D01*
X35896Y34134D02*
X35581D01*
Y34291D01*
X35633Y34344D01*
X35738D01*
X35791Y34291D01*
Y34134D01*
Y34239D02*
X35896Y34344D01*
Y34449D02*
Y34554D01*
Y34501D01*
X35581D01*
X35633Y34449D01*
X35896Y34711D02*
Y34816D01*
Y34764D01*
X35581D01*
X35633Y34711D01*
X27992Y33091D02*
Y33405D01*
X28150D01*
X28202Y33353D01*
Y33248D01*
X28150Y33196D01*
X27992D01*
X28097D02*
X28202Y33091D01*
X28307D02*
X28412D01*
X28359D01*
Y33405D01*
X28307Y33353D01*
X28779Y33405D02*
X28674Y33353D01*
X28569Y33248D01*
Y33143D01*
X28622Y33091D01*
X28727D01*
X28779Y33143D01*
Y33196D01*
X28727Y33248D01*
X28569D01*
X34744Y35049D02*
Y35364D01*
X34902D01*
X34954Y35312D01*
Y35207D01*
X34902Y35154D01*
X34744D01*
X34849D02*
X34954Y35049D01*
X35059D02*
X35164D01*
X35111D01*
Y35364D01*
X35059Y35312D01*
X35321D02*
X35374Y35364D01*
X35479D01*
X35531Y35312D01*
Y35102D01*
X35479Y35049D01*
X35374D01*
X35321Y35102D01*
Y35312D01*
X33789Y35059D02*
Y35374D01*
X33947D01*
X33999Y35321D01*
Y35216D01*
X33947Y35164D01*
X33789D01*
X33894D02*
X33999Y35059D01*
X34104D02*
X34209D01*
X34157D01*
Y35374D01*
X34104Y35321D01*
X34367D02*
X34419Y35374D01*
X34524D01*
X34577Y35321D01*
Y35269D01*
X34524Y35216D01*
X34472D01*
X34524D01*
X34577Y35164D01*
Y35112D01*
X34524Y35059D01*
X34419D01*
X34367Y35112D01*
X33120Y35049D02*
Y35364D01*
X33278D01*
X33330Y35312D01*
Y35207D01*
X33278Y35154D01*
X33120D01*
X33225D02*
X33330Y35049D01*
X33645Y35364D02*
X33540Y35312D01*
X33435Y35207D01*
Y35102D01*
X33487Y35049D01*
X33592D01*
X33645Y35102D01*
Y35154D01*
X33592Y35207D01*
X33435D01*
X35466Y29787D02*
X35413Y29734D01*
Y29629D01*
X35466Y29577D01*
X35676D01*
X35728Y29629D01*
Y29734D01*
X35676Y29787D01*
X35466Y29892D02*
X35413Y29944D01*
Y30049D01*
X35466Y30102D01*
X35518D01*
X35571Y30049D01*
Y29997D01*
Y30049D01*
X35623Y30102D01*
X35676D01*
X35728Y30049D01*
Y29944D01*
X35676Y29892D01*
X31371Y27733D02*
X31319Y27785D01*
X31214D01*
X31161Y27733D01*
Y27523D01*
X31214Y27470D01*
X31319D01*
X31371Y27523D01*
X31686Y27785D02*
X31476D01*
Y27628D01*
X31581Y27680D01*
X31634D01*
X31686Y27628D01*
Y27523D01*
X31634Y27470D01*
X31529D01*
X31476Y27523D01*
X34944Y27801D02*
X34892Y27853D01*
X34787D01*
X34734Y27801D01*
Y27591D01*
X34787Y27538D01*
X34892D01*
X34944Y27591D01*
X35259Y27853D02*
X35154Y27801D01*
X35049Y27696D01*
Y27591D01*
X35102Y27538D01*
X35207D01*
X35259Y27591D01*
Y27643D01*
X35207Y27696D01*
X35049D01*
X34888Y28556D02*
X34679D01*
X34626Y28504D01*
Y28399D01*
X34679Y28346D01*
X34888D01*
X34941Y28399D01*
Y28504D01*
X34836Y28451D02*
X34941Y28556D01*
Y28504D02*
X34888Y28556D01*
X34941Y28661D02*
X34626D01*
Y28819D01*
X34679Y28871D01*
X34784D01*
X34836Y28819D01*
Y28661D01*
Y28766D02*
X34941Y28871D01*
Y28976D02*
Y29081D01*
Y29029D01*
X34626D01*
X34679Y28976D01*
X35541Y33356D02*
Y33094D01*
X35594Y33041D01*
X35699D01*
X35751Y33094D01*
Y33356D01*
X35856Y33041D02*
X35961D01*
X35909D01*
Y33356D01*
X35856Y33304D01*
X31332Y30607D02*
X31279Y30659D01*
X31175D01*
X31122Y30607D01*
Y30397D01*
X31175Y30344D01*
X31279D01*
X31332Y30397D01*
X31594Y30344D02*
Y30659D01*
X31437Y30502D01*
X31647D01*
X31411Y32346D02*
X31358Y32293D01*
Y32188D01*
X31411Y32136D01*
X31621D01*
X31673Y32188D01*
Y32293D01*
X31621Y32346D01*
X31358Y32451D02*
Y32661D01*
X31411D01*
X31621Y32451D01*
X31673D01*
X29429Y31585D02*
Y31899D01*
X29587D01*
X29639Y31847D01*
Y31742D01*
X29587Y31690D01*
X29429D01*
X29534D02*
X29639Y31585D01*
X29744Y31847D02*
X29796Y31899D01*
X29901D01*
X29954Y31847D01*
Y31795D01*
X29901Y31742D01*
X29954Y31690D01*
Y31637D01*
X29901Y31585D01*
X29796D01*
X29744Y31637D01*
Y31690D01*
X29796Y31742D01*
X29744Y31795D01*
Y31847D01*
X29796Y31742D02*
X29901D01*
X29478Y30984D02*
Y31299D01*
X29636D01*
X29688Y31247D01*
Y31142D01*
X29636Y31089D01*
X29478D01*
X29583D02*
X29688Y30984D01*
X29793Y31299D02*
X30003D01*
Y31247D01*
X29793Y31037D01*
Y30984D01*
X29774Y32008D02*
X29459D01*
Y32165D01*
X29511Y32218D01*
X29616D01*
X29669Y32165D01*
Y32008D01*
Y32113D02*
X29774Y32218D01*
Y32323D02*
Y32428D01*
Y32375D01*
X29459D01*
X29511Y32323D01*
X29459Y32795D02*
Y32585D01*
X29616D01*
X29564Y32690D01*
Y32743D01*
X29616Y32795D01*
X29721D01*
X29774Y32743D01*
Y32638D01*
X29721Y32585D01*
X32264Y32992D02*
X31949D01*
Y33150D01*
X32001Y33202D01*
X32106D01*
X32159Y33150D01*
Y32992D01*
Y33097D02*
X32264Y33202D01*
Y33307D02*
Y33412D01*
Y33359D01*
X31949D01*
X32001Y33307D01*
X32264Y33727D02*
X31949D01*
X32106Y33569D01*
Y33779D01*
X32720Y35023D02*
X32667Y34970D01*
Y34865D01*
X32720Y34813D01*
X32930D01*
X32982Y34865D01*
Y34970D01*
X32930Y35023D01*
Y35128D02*
X32982Y35180D01*
Y35285D01*
X32930Y35338D01*
X32720D01*
X32667Y35285D01*
Y35180D01*
X32720Y35128D01*
X32772D01*
X32825Y35180D01*
Y35338D01*
X32740Y34098D02*
X32687Y34045D01*
Y33940D01*
X32740Y33888D01*
X32949D01*
X33002Y33940D01*
Y34045D01*
X32949Y34098D01*
X33002Y34203D02*
Y34308D01*
Y34255D01*
X32687D01*
X32740Y34203D01*
Y34465D02*
X32687Y34518D01*
Y34622D01*
X32740Y34675D01*
X32949D01*
X33002Y34622D01*
Y34518D01*
X32949Y34465D01*
X32740D01*
X29833Y35344D02*
Y35030D01*
X29990D01*
X30043Y35082D01*
Y35292D01*
X29990Y35344D01*
X29833D01*
X30148Y35030D02*
Y35239D01*
X30252Y35344D01*
X30357Y35239D01*
Y35030D01*
Y35187D01*
X30148D01*
X30462Y35030D02*
X30567D01*
X30515D01*
Y35344D01*
X30462Y35292D01*
X30623Y27949D02*
X30571Y28002D01*
X30466D01*
X30413Y27949D01*
Y27739D01*
X30466Y27687D01*
X30571D01*
X30623Y27739D01*
X30938Y27687D02*
X30728D01*
X30938Y27897D01*
Y27949D01*
X30886Y28002D01*
X30781D01*
X30728Y27949D01*
X29954Y27959D02*
X29902Y28012D01*
X29797D01*
X29744Y27959D01*
Y27749D01*
X29797Y27697D01*
X29902D01*
X29954Y27749D01*
X30059Y27697D02*
X30164D01*
X30111D01*
Y28012D01*
X30059Y27959D01*
X30039Y30709D02*
Y30394D01*
X30249D01*
X30354D02*
X30459D01*
X30407D01*
Y30709D01*
X30354Y30656D01*
X25778Y33681D02*
Y33471D01*
X25883Y33366D01*
X25987Y33471D01*
Y33681D01*
X26092D02*
Y33366D01*
X26250D01*
X26302Y33419D01*
Y33629D01*
X26250Y33681D01*
X26092D01*
X26407Y33366D02*
X26512D01*
X26460D01*
Y33681D01*
X26407Y33629D01*
X24557Y33730D02*
Y33415D01*
X24715D01*
X24767Y33468D01*
Y33520D01*
X24715Y33573D01*
X24557D01*
X24715D01*
X24767Y33625D01*
Y33678D01*
X24715Y33730D01*
X24557D01*
X24757Y34938D02*
X24705Y34990D01*
X24600D01*
X24547Y34938D01*
Y34728D01*
X24600Y34675D01*
X24705D01*
X24757Y34728D01*
Y34833D01*
X24652D01*
X24547Y34035D02*
Y34350D01*
X24705D01*
X24757Y34298D01*
Y34193D01*
X24705Y34140D01*
X24547D01*
X24652D02*
X24757Y34035D01*
X27087Y33701D02*
X27297Y33386D01*
Y33701D02*
X27087Y33386D01*
X27401D02*
Y33701D01*
X27559D01*
X27611Y33648D01*
Y33543D01*
X27559Y33491D01*
X27401D01*
X27874Y33386D02*
Y33701D01*
X27716Y33543D01*
X27926D01*
X28061Y27785D02*
X28271Y27470D01*
Y27785D02*
X28061Y27470D01*
X28376D02*
Y27785D01*
X28533D01*
X28586Y27733D01*
Y27628D01*
X28533Y27575D01*
X28376D01*
X28901Y27470D02*
X28691D01*
X28901Y27680D01*
Y27733D01*
X28848Y27785D01*
X28743D01*
X28691Y27733D01*
D46*
X29892Y32116D02*
X31191D01*
X29892Y32825D02*
X31191D01*
Y32116D02*
Y32825D01*
X29892Y32116D02*
Y32825D01*
X31260Y34695D02*
X32559D01*
X31260Y33986D02*
X32559D01*
X31260D02*
Y34695D01*
X32559Y33986D02*
Y34695D01*
X30325Y28120D02*
Y29419D01*
X29616Y28120D02*
Y29419D01*
X30325D01*
X29616Y28120D02*
X30325D01*
X29638Y30262D02*
X30953D01*
X29638Y29561D02*
X30953D01*
Y30262D01*
X29638Y29561D02*
Y30262D01*
D47*
X29390Y33663D02*
X31083D01*
X29390Y34880D02*
X31083D01*
X31086Y33672D02*
Y34872D01*
X29386Y33672D02*
Y34872D01*
M02*
