G04 Layer_Color=8388736*
%FSLAX24Y24*%
%MOIN*%
G70*
G01*
G75*
%ADD48R,0.0414X0.0335*%
%ADD49R,0.0335X0.0414*%
%ADD50O,0.0965X0.0296*%
%ADD51R,0.0454X0.0414*%
%ADD52R,0.0414X0.0454*%
G04:AMPARAMS|DCode=53|XSize=96.5mil|YSize=88.7mil|CornerRadius=15.4mil|HoleSize=0mil|Usage=FLASHONLY|Rotation=90.000|XOffset=0mil|YOffset=0mil|HoleType=Round|Shape=RoundedRectangle|*
%AMROUNDEDRECTD53*
21,1,0.0965,0.0579,0,0,90.0*
21,1,0.0657,0.0887,0,0,90.0*
1,1,0.0308,0.0289,0.0329*
1,1,0.0308,0.0289,-0.0329*
1,1,0.0308,-0.0289,-0.0329*
1,1,0.0308,-0.0289,0.0329*
%
%ADD53ROUNDEDRECTD53*%
%ADD54O,0.0709X0.0276*%
%ADD55O,0.0276X0.0709*%
%ADD56R,0.0513X0.0631*%
%ADD57O,0.0591X0.0296*%
%ADD58R,0.0631X0.0513*%
%ADD59R,0.0473X0.0611*%
%ADD60O,0.0847X0.0454*%
%ADD61C,0.0690*%
%ADD62R,0.0690X0.0690*%
%ADD63C,0.0650*%
%ADD64R,0.0650X0.0650*%
%ADD65R,0.0690X0.0690*%
%ADD66C,0.0660*%
%ADD67C,0.1241*%
D48*
X40876Y33819D02*
D03*
Y34429D02*
D03*
X36102Y27904D02*
D03*
Y28514D02*
D03*
X35177Y34085D02*
D03*
Y34695D02*
D03*
X34577Y34085D02*
D03*
Y34695D02*
D03*
X33976Y34085D02*
D03*
Y34695D02*
D03*
X33376Y34695D02*
D03*
Y34085D02*
D03*
X31555Y33651D02*
D03*
Y33041D02*
D03*
D49*
X41565Y31112D02*
D03*
X42175D02*
D03*
X42323Y30049D02*
D03*
X41713D02*
D03*
X42342Y29439D02*
D03*
X41732D02*
D03*
X29714Y33278D02*
D03*
X29104D02*
D03*
X30945Y31742D02*
D03*
X30335D02*
D03*
X30945Y31132D02*
D03*
X30335D02*
D03*
X30905Y33258D02*
D03*
X30295D02*
D03*
D50*
X40728Y27917D02*
D03*
Y28417D02*
D03*
Y28917D02*
D03*
Y29417D02*
D03*
Y29917D02*
D03*
Y30417D02*
D03*
Y30917D02*
D03*
Y31417D02*
D03*
Y31917D02*
D03*
Y32417D02*
D03*
X37146Y27917D02*
D03*
Y28417D02*
D03*
Y28917D02*
D03*
Y29417D02*
D03*
Y29917D02*
D03*
Y30417D02*
D03*
Y30917D02*
D03*
Y31417D02*
D03*
Y31917D02*
D03*
Y32417D02*
D03*
D51*
X40207Y33199D02*
D03*
X40876D02*
D03*
X32156Y27677D02*
D03*
X32825D02*
D03*
X34281Y27676D02*
D03*
X33612D02*
D03*
X32224Y35049D02*
D03*
X31555D02*
D03*
D52*
X35374Y28396D02*
D03*
Y29065D02*
D03*
X31398Y29183D02*
D03*
Y29852D02*
D03*
X30669Y29124D02*
D03*
Y28455D02*
D03*
D53*
X34006Y28671D02*
D03*
X32431D02*
D03*
D54*
X32411Y30413D02*
D03*
Y30728D02*
D03*
Y31043D02*
D03*
Y31358D02*
D03*
Y31673D02*
D03*
Y31988D02*
D03*
Y32303D02*
D03*
Y32618D02*
D03*
X35719D02*
D03*
Y32303D02*
D03*
Y31988D02*
D03*
Y31673D02*
D03*
Y31358D02*
D03*
Y31043D02*
D03*
Y30728D02*
D03*
Y30413D02*
D03*
D55*
X32963Y33169D02*
D03*
X33278D02*
D03*
X33593D02*
D03*
X33907D02*
D03*
X34222D02*
D03*
X34537D02*
D03*
X34852D02*
D03*
X35167D02*
D03*
Y29862D02*
D03*
X34852D02*
D03*
X34537D02*
D03*
X34222D02*
D03*
X33907D02*
D03*
X33593D02*
D03*
X33278D02*
D03*
X32963D02*
D03*
D56*
X30896Y32470D02*
D03*
X30187D02*
D03*
X31555Y34341D02*
D03*
X32264D02*
D03*
D57*
X29744Y33898D02*
D03*
X30728D02*
D03*
X29744Y34646D02*
D03*
X30728D02*
D03*
X29744Y34272D02*
D03*
D58*
X29970Y29124D02*
D03*
Y28415D02*
D03*
D59*
X30669Y29911D02*
D03*
X29921D02*
D03*
D60*
X25217Y33563D02*
D03*
Y34193D02*
D03*
Y34823D02*
D03*
X23287Y33563D02*
D03*
Y34193D02*
D03*
Y34823D02*
D03*
D61*
X43488Y30799D02*
D03*
X44488D02*
D03*
X43488Y29799D02*
D03*
Y28799D02*
D03*
X44488Y29799D02*
D03*
X43730Y34760D02*
D03*
X42421Y34789D02*
D03*
X27451Y34331D02*
D03*
X26451D02*
D03*
D62*
X44488Y28799D02*
D03*
X43730Y33760D02*
D03*
X42421Y33789D02*
D03*
D63*
X38661Y34478D02*
D03*
Y33691D02*
D03*
X37874Y34478D02*
D03*
X37087D02*
D03*
X37874Y33691D02*
D03*
D64*
X37087D02*
D03*
D65*
X28451Y34331D02*
D03*
D66*
X28715Y29919D02*
D03*
X27927D02*
D03*
X28715Y30904D02*
D03*
X27927D02*
D03*
D67*
X26860Y28041D02*
D03*
Y32782D02*
D03*
M02*
