G04 Layer_Physical_Order=2*
G04 Layer_Color=16711680*
%FSLAX24Y24*%
%MOIN*%
G70*
G01*
G75*
%ADD10C,0.0197*%
%ADD24C,0.0177*%
%ADD25C,0.0394*%
%ADD26C,0.0118*%
%ADD27C,0.0157*%
%ADD29C,0.0630*%
%ADD30R,0.0630X0.0630*%
%ADD31C,0.0591*%
%ADD32R,0.0591X0.0591*%
%ADD33R,0.0630X0.0630*%
%ADD34C,0.0600*%
%ADD35C,0.1181*%
%ADD36C,0.0236*%
%ADD37C,0.0394*%
%ADD38R,0.0413X0.0689*%
G04:AMPARAMS|DCode=39|XSize=35.4mil|YSize=129.9mil|CornerRadius=8.9mil|HoleSize=0mil|Usage=FLASHONLY|Rotation=180.000|XOffset=0mil|YOffset=0mil|HoleType=Round|Shape=RoundedRectangle|*
%AMROUNDEDRECTD39*
21,1,0.0354,0.1122,0,0,180.0*
21,1,0.0177,0.1299,0,0,180.0*
1,1,0.0177,-0.0089,0.0561*
1,1,0.0177,0.0089,0.0561*
1,1,0.0177,0.0089,-0.0561*
1,1,0.0177,-0.0089,-0.0561*
%
%ADD39ROUNDEDRECTD39*%
G04:AMPARAMS|DCode=40|XSize=43.3mil|YSize=129.9mil|CornerRadius=10.8mil|HoleSize=0mil|Usage=FLASHONLY|Rotation=180.000|XOffset=0mil|YOffset=0mil|HoleType=Round|Shape=RoundedRectangle|*
%AMROUNDEDRECTD40*
21,1,0.0433,0.1083,0,0,180.0*
21,1,0.0217,0.1299,0,0,180.0*
1,1,0.0217,-0.0108,0.0541*
1,1,0.0217,0.0108,0.0541*
1,1,0.0217,0.0108,-0.0541*
1,1,0.0217,-0.0108,-0.0541*
%
%ADD40ROUNDEDRECTD40*%
D10*
X44262Y34760D02*
G03*
X43945Y35246I-531J0D01*
G01*
X43981Y34291D02*
G03*
X44262Y34760I-251J468D01*
G01*
X43516Y35246D02*
G03*
X43479Y34291I215J-486D01*
G01*
X42953Y34789D02*
G03*
X42693Y35246I-531J0D01*
G01*
X41683Y34803D02*
G03*
X41597Y35012I-295J0D01*
G01*
X42672Y34321D02*
G03*
X42953Y34789I-251J468D01*
G01*
X42149Y35246D02*
G03*
X42170Y34321I272J-457D01*
G01*
X41722Y33829D02*
G03*
X41683Y33986I-335J0D01*
G01*
X41093D02*
G03*
X41722Y33829I295J-157D01*
G01*
X41683Y34803D02*
G03*
X41597Y35012I-295J0D01*
G01*
X36876Y35246D02*
G03*
X36791Y35039I211J-207D01*
G01*
X36876Y35246D02*
G03*
X36791Y35039I211J-207D01*
G01*
Y34896D02*
G03*
X36669Y34774I295J-418D01*
G01*
X39173Y34478D02*
G03*
X38802Y34970I-512J0D01*
G01*
X38988Y34085D02*
G03*
X39173Y34478I-327J394D01*
G01*
X36280Y34774D02*
G03*
X36071Y34687I0J-295D01*
G01*
X35965Y35049D02*
G03*
X35901Y35246I-335J0D01*
G01*
X36280Y34774D02*
G03*
X36071Y34687I0J-295D01*
G01*
X35748Y34736D02*
G03*
X35965Y35049I-119J313D01*
G01*
X35985Y34602D02*
G03*
X35787Y34124I97J-320D01*
G01*
X35673D02*
G03*
X35456Y34034I0J-305D01*
G01*
X39173Y33691D02*
G03*
X38988Y34085I-512J0D01*
G01*
X38268Y33364D02*
G03*
X39173Y33691I394J327D01*
G01*
X37995Y33194D02*
G03*
X38268Y33364I-121J497D01*
G01*
X38908Y32308D02*
G03*
X39124Y32621I-119J313D01*
G01*
D02*
G03*
X38663Y32931I-335J0D01*
G01*
X39087Y31917D02*
G03*
X38840Y32240I-335J0D01*
G01*
X38615Y31612D02*
G03*
X39087Y31917I137J305D01*
G01*
X38663Y32931D02*
G03*
X38278Y33012I-248J-225D01*
G01*
X35673Y34124D02*
G03*
X35457Y34035I0J-305D01*
G01*
X35257Y33835D02*
G03*
X35167Y33619I215J-216D01*
G01*
X35257Y33835D02*
G03*
X35167Y33619I216J-216D01*
G01*
X34724Y33839D02*
G03*
X34940Y33928I0J305D01*
G01*
X34724Y33839D02*
G03*
X34941Y33928I0J305D01*
G01*
X35167Y33248D02*
G03*
X35257Y33032I305J0D01*
G01*
X35167Y33248D02*
G03*
X35257Y33032I305J0D01*
G01*
X35167Y33002D02*
G03*
X34952Y32913I0J-305D01*
G01*
X35167Y33002D02*
G03*
X34951Y32912I0J-305D01*
G01*
X34814Y31763D02*
G03*
X35030Y31673I216J216D01*
G01*
X34813Y31763D02*
G03*
X35030Y31673I216J215D01*
G01*
X34706Y32667D02*
G03*
X34616Y32451I215J-216D01*
G01*
X34706Y32667D02*
G03*
X34616Y32451I216J-216D01*
G01*
Y32087D02*
G03*
X34706Y31871I305J0D01*
G01*
X34616Y32087D02*
G03*
X34706Y31871I305J0D01*
G01*
X45217Y31169D02*
G03*
X44920Y31109I-89J-323D01*
G01*
D02*
G03*
X43988Y30979I-432J-310D01*
G01*
D02*
G03*
X43006Y31022I-500J-180D01*
G01*
X43006D02*
G03*
X42549Y30605I-141J-303D01*
G01*
Y30423D02*
G03*
X42641Y30201I315J0D01*
G01*
X42549Y30423D02*
G03*
X42642Y30200I315J0D01*
G01*
X44882Y27854D02*
G03*
X45098Y27944I0J305D01*
G01*
X44882Y27854D02*
G03*
X45098Y27944I0J305D01*
G01*
X43912Y27944D02*
G03*
X44128Y27854I216J215D01*
G01*
X43912Y27944D02*
G03*
X44128Y27854I216J216D01*
G01*
X42963Y29879D02*
G03*
X43308Y29299I525J-80D01*
G01*
D02*
G03*
X43580Y28276I180J-500D01*
G01*
X36241Y31004D02*
G03*
X36691Y31190I137J305D01*
G01*
X35926Y31094D02*
G03*
X36142Y31004I216J215D01*
G01*
X35926Y31093D02*
G03*
X36142Y31004I216J216D01*
G01*
X35246Y29419D02*
G03*
X35125Y29712I-413J0D01*
G01*
X35246Y29419D02*
G03*
X35125Y29712I-413J0D01*
G01*
X34930Y28663D02*
G03*
X35246Y29065I-97J402D01*
G01*
X34931Y28632D02*
G03*
X34930Y28663I-335J0D01*
G01*
X34739Y28329D02*
G03*
X34931Y28632I-143J303D01*
G01*
X34692Y30144D02*
G03*
X34400Y30266I-293J-292D01*
G01*
X34692Y30145D02*
G03*
X34400Y30266I-292J-292D01*
G01*
X34419Y29065D02*
G03*
X34442Y28929I413J0D01*
G01*
X34183Y28976D02*
G03*
X33878Y29281I-305J0D01*
G01*
X34442Y28929D02*
G03*
X34294Y28775I154J-297D01*
G01*
X34380Y28100D02*
G03*
X34603Y28193I0J315D01*
G01*
X34380Y28100D02*
G03*
X34603Y28193I0J315D01*
G01*
X33878Y27549D02*
G03*
X34183Y27854I0J305D01*
G01*
X32596Y34341D02*
G03*
X32769Y34210I278J187D01*
G01*
D02*
G03*
X33276Y33818I194J-273D01*
G01*
X29404Y33417D02*
G03*
X29195Y33504I-209J-209D01*
G01*
X29404Y33417D02*
G03*
X29195Y33504I-209J-209D01*
G01*
X29921Y32795D02*
G03*
X29719Y33103I-335J0D01*
G01*
X30035Y31462D02*
G03*
X30187Y31742I-183J280D01*
G01*
X30315Y31132D02*
G03*
X30035Y31462I-335J0D01*
G01*
X30123Y30829D02*
G03*
X30315Y31132I-143J303D01*
G01*
X31988Y30266D02*
G03*
X31696Y30145I0J-413D01*
G01*
X31988Y30266D02*
G03*
X31695Y30144I0J-413D01*
G01*
X31989Y30266D02*
G03*
X31695Y30144I-1J-413D01*
G01*
X29318Y32596D02*
G03*
X29921Y32795I269J199D01*
G01*
X30187Y31742D02*
G03*
X29739Y32057I-335J0D01*
G01*
X28967Y32549D02*
G03*
X29318Y32596I137J305D01*
G01*
X29752Y30589D02*
G03*
X29975Y30681I0J315D01*
G01*
X29752Y30589D02*
G03*
X29975Y30681I0J315D01*
G01*
X29231Y29919D02*
G03*
X28871Y30411I-517J0D01*
G01*
X25665Y34911D02*
G03*
X25933Y34451I309J-128D01*
G01*
X24882Y34213D02*
G03*
X24852Y34350I-335J0D01*
G01*
X27667Y32782D02*
G03*
X27627Y33034I-807J0D01*
G01*
X25933Y34451D02*
G03*
X26123Y33912I518J-121D01*
G01*
Y33912D02*
G03*
X26235Y33292I166J-290D01*
G01*
X26235Y33292D02*
G03*
X27667Y32782I625J-510D01*
G01*
X24332Y34990D02*
G03*
X24242Y34774I215J-216D01*
G01*
X24331Y34989D02*
G03*
X24242Y34774I216J-216D01*
G01*
Y34350D02*
G03*
X24882Y34213I305J-137D01*
G01*
X28766Y32057D02*
G03*
X28543Y31965I0J-315D01*
G01*
X28766Y32057D02*
G03*
X28543Y31964I0J-315D01*
G01*
X28022Y32639D02*
G03*
X28238Y32549I216J215D01*
G01*
X28022Y32639D02*
G03*
X28238Y32549I216J216D01*
G01*
X28871Y30411D02*
G03*
X29124Y30589I-157J492D01*
G01*
X27994Y31416D02*
G03*
X27770Y30411I-67J-512D01*
G01*
X33507Y29212D02*
G03*
X33307Y29281I-200J-256D01*
G01*
X33701D02*
G03*
X33507Y29212I0J-305D01*
G01*
X33091Y29281D02*
G03*
X32890Y29212I0J-325D01*
G01*
X32890D02*
G03*
X32697Y29281I-193J-236D01*
G01*
X32520D02*
G03*
X32215Y28976I0J-305D01*
G01*
X32133Y28765D02*
G03*
X31688Y28319I-303J-143D01*
G01*
X31280Y28730D02*
G03*
X31572Y28852I0J413D01*
G01*
X31280Y28730D02*
G03*
X31572Y28851I0J413D01*
G01*
X33507Y27618D02*
G03*
X33701Y27549I193J236D01*
G01*
X33307D02*
G03*
X33507Y27618I0J325D01*
G01*
X32890D02*
G03*
X33091Y27549I200J256D01*
G01*
X31815Y28193D02*
G03*
X32037Y28100I223J223D01*
G01*
X31814Y28193D02*
G03*
X32037Y28100I223J222D01*
G01*
X32697Y27549D02*
G03*
X32890Y27618I0J305D01*
G01*
X32215Y27854D02*
G03*
X32520Y27549I305J0D01*
G01*
X28321Y29585D02*
G03*
X29231Y29919I394J334D01*
G01*
X27770Y30411D02*
G03*
X28321Y29585I157J-492D01*
G01*
X29232Y29557D02*
G03*
X29232Y28730I0J-413D01*
G01*
X29233Y29557D02*
G03*
X29233Y28730I-1J-413D01*
G01*
X27667Y28041D02*
G03*
X26167Y28455I-807J0D01*
G01*
X27476Y27520D02*
G03*
X27667Y28041I-616J522D01*
G01*
X44123Y35118D02*
X45217D01*
X44033Y35197D02*
X45217D01*
X44252Y34862D02*
Y35246D01*
X43945D02*
X45217D01*
X44260Y34803D02*
X45217D01*
X44248Y34882D02*
X45217D01*
X44261Y34724D02*
X45217D01*
X44182Y35039D02*
X45217D01*
X44222Y34961D02*
X45217D01*
X44094Y35147D02*
Y35246D01*
X44016Y35208D02*
Y35246D01*
X44173Y35054D02*
Y35246D01*
X43386Y35165D02*
Y35246D01*
X43307Y35081D02*
Y35246D01*
X43228Y34934D02*
Y35246D01*
X42953Y34803D02*
X43201D01*
X42949Y34724D02*
X43200D01*
X42924Y34961D02*
X43238D01*
X42945Y34882D02*
X43213D01*
X44567Y31325D02*
Y35246D01*
X44488Y31331D02*
Y35246D01*
X44409Y31325D02*
Y35246D01*
X44252Y34291D02*
Y34658D01*
X44226Y34567D02*
X45217D01*
X44249Y34646D02*
X45217D01*
X44187Y34488D02*
X45217D01*
X44130Y34409D02*
X45217D01*
X44044Y34331D02*
X45217D01*
X43307Y34291D02*
Y34438D01*
X43228Y34291D02*
Y34585D01*
X44173Y34291D02*
Y34466D01*
X42933Y34646D02*
X43211D01*
X43386Y34291D02*
Y34355D01*
X44094Y34291D02*
Y34373D01*
X43199Y34291D02*
X43479D01*
X42953Y33258D02*
Y34321D01*
X42913Y34990D02*
Y35246D01*
X42835Y35124D02*
Y35246D01*
X41362D02*
X42149D01*
X42693D02*
X43516D01*
X42763Y35197D02*
X43428D01*
X42839Y35118D02*
X43338D01*
X42890Y35039D02*
X43278D01*
X42756Y35202D02*
Y35246D01*
X41412Y35197D02*
X42080D01*
X42047Y35167D02*
Y35246D01*
X41968Y35068D02*
Y35246D01*
X41490Y35118D02*
X42004D01*
X41569Y35039D02*
X41952D01*
X41683Y34724D02*
X41894D01*
X41683Y34803D02*
X41890D01*
X41683Y34646D02*
X41910D01*
X41638Y34961D02*
X41918D01*
X41672Y34882D02*
X41898D01*
X42859Y34488D02*
X43274D01*
X42904Y34567D02*
X43235D01*
X42913Y34321D02*
Y34588D01*
X42835Y34321D02*
Y34455D01*
X42690Y34331D02*
X43417D01*
X42793Y34409D02*
X43331D01*
X42756Y34321D02*
Y34376D01*
X41890Y34321D02*
X42170D01*
X42672D02*
X42953D01*
X41968D02*
Y34511D01*
X41683Y33986D02*
Y34803D01*
Y34567D02*
X41939D01*
X41683Y34488D02*
X41983D01*
X42047Y34321D02*
Y34412D01*
X41890Y33258D02*
Y34321D01*
X41683Y34409D02*
X42050D01*
X41683Y34331D02*
X42153D01*
X44262Y34252D02*
X45217D01*
X43981Y34291D02*
X44262D01*
Y34173D02*
X45217D01*
X42953Y34252D02*
X43199D01*
X42953Y34094D02*
X43199D01*
X44262Y33858D02*
X45217D01*
X44262Y33937D02*
X45217D01*
X44262Y33779D02*
X45217D01*
X44262Y34094D02*
X45217D01*
X44262Y34016D02*
X45217D01*
X42953D02*
X43199D01*
X42953Y34173D02*
X43199D01*
X42953Y33937D02*
X43199D01*
X41721Y33858D02*
X41890D01*
X42953D02*
X43199D01*
X42953Y33779D02*
X43199D01*
X42953Y33701D02*
X43199D01*
X41719Y33779D02*
X41890D01*
X44262Y33543D02*
X45217D01*
X44262Y33622D02*
X45217D01*
X44262Y33465D02*
X45217D01*
X44262Y33701D02*
X45217D01*
X44262Y33228D02*
Y34291D01*
Y33307D02*
X45217D01*
X44262Y33386D02*
X45217D01*
X43543Y31328D02*
Y33228D01*
X43199D02*
X44262D01*
X43464Y31330D02*
Y33228D01*
X42953Y33465D02*
X43199D01*
X42953Y33622D02*
X43199D01*
Y33228D02*
Y34291D01*
X42953Y33543D02*
X43199D01*
X42953Y33386D02*
X43199D01*
X43386Y31321D02*
Y33228D01*
X42953Y33307D02*
X43199D01*
X41890Y33258D02*
X42953D01*
X41704Y33937D02*
X41890D01*
X41683Y34173D02*
X41890D01*
X41697Y33701D02*
X41890D01*
X41683Y34094D02*
X41890D01*
X38880Y33228D02*
X45217D01*
X38953Y32913D02*
X45217D01*
X38590Y32992D02*
X45217D01*
X39047Y32835D02*
X45217D01*
X37951Y33150D02*
X45217D01*
X37872Y33071D02*
X45217D01*
X41683Y34016D02*
X41890D01*
X41683Y34252D02*
X41890D01*
X41651Y33622D02*
X41890D01*
X41562Y33543D02*
X41890D01*
X39120Y33465D02*
X41890D01*
X39072Y33386D02*
X41890D01*
X39000Y33307D02*
X41890D01*
X39085Y31890D02*
X45217D01*
X39083Y31968D02*
X45217D01*
X39069Y31811D02*
X45217D01*
X39060Y32047D02*
X45217D01*
X39031Y31732D02*
X45217D01*
X37075Y31575D02*
X45217D01*
X38958Y31653D02*
X45217D01*
X36996Y31496D02*
X45217D01*
X36918Y31417D02*
X45217D01*
X36839Y31339D02*
X45217D01*
X39123Y32598D02*
X45217D01*
X39119Y32677D02*
X45217D01*
X39108Y32520D02*
X45217D01*
X39096Y32756D02*
X45217D01*
X39071Y32441D02*
X45217D01*
X39001Y32362D02*
X45217D01*
X39014Y32126D02*
X45217D01*
X38883Y32283D02*
X45217D01*
X38923Y32205D02*
X45217D01*
X41575Y35034D02*
Y35246D01*
X41496Y35113D02*
Y35246D01*
X41653Y34932D02*
Y35246D01*
X41417Y35191D02*
Y35246D01*
X41362D02*
X41597Y35012D01*
X38976Y34882D02*
X40892D01*
X39057Y34803D02*
X40970D01*
X38802Y34970D02*
X40803D01*
X38833Y34961D02*
X40813D01*
X36772Y34882D02*
Y35246D01*
X36693Y34805D02*
Y35246D01*
X36535Y34774D02*
Y35246D01*
X38976Y34882D02*
Y34970D01*
X38898Y34932D02*
Y34970D01*
X39055Y34805D02*
Y34970D01*
X36791Y34896D02*
Y35039D01*
X39166Y34567D02*
X41093D01*
X40803Y34970D02*
X41093Y34681D01*
Y33986D02*
Y34681D01*
X39110Y34724D02*
X41049D01*
X39145Y34646D02*
X41093D01*
X39169Y34409D02*
X41093D01*
X39173Y34488D02*
X41093D01*
X39151Y34331D02*
X41093D01*
X39120Y34252D02*
X41093D01*
X39072Y34173D02*
X41093D01*
X39134Y34675D02*
Y34970D01*
X36614Y34774D02*
Y35246D01*
X36378Y34774D02*
Y35246D01*
X36457Y34774D02*
Y35246D01*
X39055Y34018D02*
Y34151D01*
X39134Y33888D02*
Y34281D01*
X35957Y35118D02*
X36802D01*
X35964Y35039D02*
X36791D01*
X36299Y34774D02*
Y35246D01*
X35901D02*
X36876D01*
X35930Y35197D02*
X36837D01*
X35953Y34961D02*
X36791D01*
X36280Y34774D02*
X36669D01*
X35920Y34882D02*
X36772D01*
X35857Y34803D02*
X36691D01*
X36220Y34768D02*
Y35246D01*
X36142Y34739D02*
Y35246D01*
X36063Y34679D02*
Y35246D01*
X35984Y34601D02*
Y35246D01*
X35985Y34602D02*
X36071Y34687D01*
X35737Y34724D02*
X36116D01*
X35658Y34646D02*
X36029D01*
X35905Y34565D02*
Y34859D01*
X35827Y34497D02*
Y34779D01*
X35579Y34567D02*
X35908D01*
X34941Y33928D02*
X35748Y34736D01*
X35500Y34488D02*
X35819D01*
X35422Y34409D02*
X35773D01*
X35343Y34331D02*
X35752D01*
X35264Y34252D02*
X35749D01*
X35185Y34173D02*
X35766D01*
X35748Y34124D02*
Y34736D01*
X35669Y34124D02*
Y34657D01*
X35590Y34113D02*
Y34578D01*
X35512Y34078D02*
Y34500D01*
X35433Y34011D02*
Y34421D01*
X35354Y33932D02*
Y34342D01*
X35276Y33853D02*
Y34263D01*
X35197Y33750D02*
Y34185D01*
X39057Y34016D02*
X41093D01*
X39110Y33937D02*
X41071D01*
X39145Y33858D02*
X41054D01*
X39000Y34094D02*
X41093D01*
X39173Y33701D02*
X41079D01*
X39166Y33779D02*
X41057D01*
X39169Y33622D02*
X41125D01*
X39151Y33543D02*
X41213D01*
X38425Y33041D02*
Y33237D01*
X38212Y33307D02*
X38323D01*
X38346Y33034D02*
Y33288D01*
X38093Y33228D02*
X38443D01*
X38504Y33029D02*
Y33204D01*
X38031Y33012D02*
Y33204D01*
X37953Y33012D02*
Y33151D01*
X37834Y33012D02*
X38278D01*
X37874D02*
Y33072D01*
X39055Y32825D02*
Y33364D01*
X38976Y32899D02*
Y33287D01*
X38898Y32938D02*
Y33237D01*
X38976Y32166D02*
Y32344D01*
X38840Y32240D02*
X38908Y32308D01*
X39055Y32059D02*
Y32418D01*
X38583Y32997D02*
Y33185D01*
X38268Y33012D02*
Y33364D01*
X38819Y32955D02*
Y33204D01*
X38110Y33012D02*
Y33237D01*
X38189Y33012D02*
Y33287D01*
X38740Y32952D02*
Y33185D01*
X38898Y32219D02*
Y32298D01*
X38661Y32934D02*
Y33179D01*
X35673Y34124D02*
X35787D01*
X35257Y33835D02*
X35456Y34034D01*
X35107Y34094D02*
X35541D01*
X35028Y34016D02*
X35438D01*
X37820Y33018D02*
X37995Y33194D01*
X35257Y33032D02*
X35287Y33002D01*
X35167D02*
X35287D01*
X34949Y33937D02*
X35359D01*
X34832Y33858D02*
X35280D01*
X35118Y32998D02*
Y34106D01*
X35197Y33002D02*
Y33117D01*
X35167Y33248D02*
Y33619D01*
X35039Y32974D02*
Y34027D01*
X34961Y32921D02*
Y33948D01*
X34882Y32843D02*
Y33882D01*
X35030Y31673D02*
X35346D01*
X37113Y31612D02*
X38615D01*
X34706Y32667D02*
X34951Y32912D01*
X34803Y32764D02*
Y33849D01*
X34724Y32685D02*
Y33839D01*
X34646Y32582D02*
Y33839D01*
X34706Y31871D02*
X34813Y31763D01*
X34616Y32087D02*
Y32451D01*
X45118Y31181D02*
Y35246D01*
X44803Y31227D02*
Y35246D01*
X45197Y31174D02*
Y35246D01*
X44331Y31307D02*
Y35246D01*
X44724Y31275D02*
Y35246D01*
X44753Y31260D02*
X45217D01*
X44858Y31181D02*
X45122D01*
X45134D02*
X45217D01*
X44646Y31307D02*
Y35246D01*
X44252Y31275D02*
Y33228D01*
X44173Y31227D02*
Y33228D01*
X43779Y31244D02*
Y33228D01*
X43858Y31181D02*
Y33228D01*
X43701Y31286D02*
Y33228D01*
X43150Y31209D02*
Y35246D01*
X43753Y31260D02*
X44223D01*
X43622Y31314D02*
Y33228D01*
X43858Y31181D02*
X44118D01*
X43307Y31299D02*
Y33228D01*
X43228Y31263D02*
Y33228D01*
X45217Y31169D02*
Y35246D01*
X45039Y31169D02*
Y35246D01*
X44961Y31136D02*
Y35246D01*
X44882Y31156D02*
Y35246D01*
X44016Y31043D02*
Y33228D01*
X44094Y31156D02*
Y33228D01*
X43925Y31102D02*
X44052D01*
X43970Y31024D02*
X44006D01*
X43937Y31084D02*
Y33228D01*
X43071Y31128D02*
Y35246D01*
X42992Y31028D02*
Y35246D01*
X42835Y31052D02*
Y33258D01*
X42913Y31050D02*
Y33258D01*
X42835Y27520D02*
Y30007D01*
X42913Y27520D02*
Y29929D01*
X36760Y31260D02*
X43223D01*
X42756Y31035D02*
Y33258D01*
X36687Y31181D02*
X43118D01*
X36641Y31102D02*
X43052D01*
X34837Y30000D02*
X42842D01*
X36553Y31024D02*
X42727D01*
X42642Y30200D02*
X42963Y29879D01*
X34679Y30157D02*
X42685D01*
X34758Y30079D02*
X42763D01*
X42677Y30996D02*
Y33258D01*
X42598Y30922D02*
Y33258D01*
X42520Y27520D02*
Y33258D01*
X42283Y27520D02*
Y33258D01*
X42362Y27520D02*
Y33258D01*
X42549Y30423D02*
Y30605D01*
X34553Y30236D02*
X42611D01*
X42441Y27520D02*
Y33258D01*
X41968Y27520D02*
Y33258D01*
X41890Y27520D02*
Y35246D01*
X42047Y27520D02*
Y33258D01*
X41732Y27520D02*
Y35246D01*
X41811Y27520D02*
Y35246D01*
X42677Y27520D02*
Y30165D01*
X42598Y27520D02*
Y30254D01*
X42756Y27520D02*
Y30086D01*
X42126Y27520D02*
Y33258D01*
X42205Y27520D02*
Y33258D01*
X41575Y27520D02*
Y33551D01*
X41181Y27520D02*
Y33566D01*
X41653Y27520D02*
Y33625D01*
X41024Y27520D02*
Y34750D01*
X41102Y27520D02*
Y33654D01*
X41417Y27520D02*
Y33495D01*
X41496Y27520D02*
Y33512D01*
X41260Y27520D02*
Y33520D01*
X41339Y27520D02*
Y33498D01*
X45185Y28031D02*
X45217D01*
X45197Y27520D02*
Y28043D01*
X45217Y27520D02*
Y28063D01*
X45098Y27944D02*
X45217Y28063D01*
X45118Y27520D02*
Y27964D01*
X44990Y27874D02*
X45217D01*
X45107Y27953D02*
X45217D01*
X44128Y27854D02*
X44882D01*
X43580Y28276D02*
X43912Y27944D01*
X43228Y29263D02*
Y29336D01*
X43150Y29209D02*
Y29390D01*
X44803Y27520D02*
Y27854D01*
X44724Y27520D02*
Y27854D01*
X44882Y27520D02*
Y27854D01*
X44567Y27520D02*
Y27854D01*
X44646Y27520D02*
Y27854D01*
X44961Y27520D02*
Y27865D01*
X44094Y27520D02*
Y27856D01*
X45039Y27520D02*
Y27898D01*
X43937Y27520D02*
Y27922D01*
X44016Y27520D02*
Y27876D01*
X44409Y27520D02*
Y27854D01*
X44331Y27520D02*
Y27854D01*
X44488Y27520D02*
Y27854D01*
X44173Y27520D02*
Y27854D01*
X44252Y27520D02*
Y27854D01*
X43464Y27520D02*
Y28268D01*
X43386Y27520D02*
Y28278D01*
X43543Y27520D02*
Y28271D01*
X43228Y27520D02*
Y28336D01*
X43307Y27520D02*
Y28300D01*
X43779Y27520D02*
Y28076D01*
X43858Y27520D02*
Y27998D01*
X43622Y27520D02*
Y28234D01*
X43701Y27520D02*
Y28155D01*
X35245Y29449D02*
X43089D01*
X43071Y29128D02*
Y29470D01*
X35201Y29606D02*
X42993D01*
X35232Y29527D02*
X43031D01*
X35246Y29291D02*
X43287D01*
X35246Y29370D02*
X43175D01*
X35246Y29213D02*
X43154D01*
X35246Y29134D02*
X43075D01*
X35246Y29055D02*
X43022D01*
X35149Y29685D02*
X42969D01*
X35073Y29764D02*
X42958D01*
X42992Y28990D02*
Y29609D01*
X34915Y29921D02*
X42921D01*
X34994Y29842D02*
X42958D01*
X35236Y28976D02*
X42987D01*
X35211Y28898D02*
X42966D01*
X35165Y28819D02*
X42957D01*
X35088Y28740D02*
X42960D01*
X34599Y28189D02*
X43667D01*
X34678Y28268D02*
X43588D01*
X34458Y28110D02*
X43746D01*
X34183Y28031D02*
X43824D01*
X34183Y27953D02*
X43903D01*
X34177Y27795D02*
X45217D01*
X34183Y27874D02*
X44020D01*
X34150Y27716D02*
X45217D01*
X34093Y27638D02*
X45217D01*
X33955Y27559D02*
X45217D01*
X34930Y28661D02*
X42975D01*
X42992Y27520D02*
Y28609D01*
X34927Y28583D02*
X43003D01*
X34906Y28504D02*
X43046D01*
X43071Y27520D02*
Y28470D01*
X43150Y27520D02*
Y28390D01*
X34860Y28425D02*
X43111D01*
X34771Y28346D02*
X43210D01*
X39370Y27520D02*
Y34970D01*
X39291Y27520D02*
Y34970D01*
X39449Y27520D02*
Y34970D01*
X39134Y27520D02*
Y33494D01*
X39213Y27520D02*
Y34970D01*
X38976Y27520D02*
Y31669D01*
X38898Y27520D02*
Y31616D01*
X39055Y27520D02*
Y31775D01*
X38740Y27520D02*
Y31583D01*
X38819Y27520D02*
Y31589D01*
X38189Y27520D02*
Y31612D01*
X38110Y27520D02*
Y31612D01*
X38268Y27520D02*
Y31612D01*
X37953Y27520D02*
Y31612D01*
X38031Y27520D02*
Y31612D01*
X38583Y27520D02*
Y31612D01*
X38504Y27520D02*
Y31612D01*
X38661Y27520D02*
Y31595D01*
X38346Y27520D02*
Y31612D01*
X38425Y27520D02*
Y31612D01*
X40472Y27520D02*
Y34970D01*
X40394Y27520D02*
Y34970D01*
X40551Y27520D02*
Y34970D01*
X40236Y27520D02*
Y34970D01*
X40315Y27520D02*
Y34970D01*
X40866Y27520D02*
Y34907D01*
X40787Y27520D02*
Y34970D01*
X40945Y27520D02*
Y34829D01*
X40630Y27520D02*
Y34970D01*
X40709Y27520D02*
Y34970D01*
X39764Y27520D02*
Y34970D01*
X39685Y27520D02*
Y34970D01*
X39842Y27520D02*
Y34970D01*
X39527Y27520D02*
Y34970D01*
X39606Y27520D02*
Y34970D01*
X40079Y27520D02*
Y34970D01*
X40157Y27520D02*
Y34970D01*
X39921Y27520D02*
Y34970D01*
X40000Y27520D02*
Y34970D01*
X34803Y30034D02*
Y31773D01*
X34724Y30112D02*
Y31852D01*
X34882Y29955D02*
Y31711D01*
X34567Y30230D02*
Y33839D01*
X34646Y30185D02*
Y31956D01*
X36691Y31190D02*
X37113Y31612D01*
X35346Y31673D02*
X35926Y31094D01*
X35118Y29719D02*
Y31673D01*
X34961Y29876D02*
Y31681D01*
X35039Y29797D02*
Y31673D01*
X34016Y30266D02*
Y33839D01*
X33937Y30266D02*
Y33839D01*
X34094Y30266D02*
Y33839D01*
X33779Y30266D02*
Y33839D01*
X33858Y30266D02*
Y33839D01*
X34409Y30266D02*
Y33839D01*
X34331Y30266D02*
Y33839D01*
X34488Y30256D02*
Y33839D01*
X34173Y30266D02*
Y33839D01*
X34252Y30266D02*
Y33839D01*
X37401Y27520D02*
Y31612D01*
X37323Y27520D02*
Y31612D01*
X37480Y27520D02*
Y31612D01*
X37165Y27520D02*
Y31612D01*
X37244Y27520D02*
Y31612D01*
X37795Y27520D02*
Y31612D01*
X37716Y27520D02*
Y31612D01*
X37874Y27520D02*
Y31612D01*
X37559Y27520D02*
Y31612D01*
X37638Y27520D02*
Y31612D01*
X35433Y27520D02*
Y31586D01*
X35354Y27520D02*
Y31665D01*
X37087Y27520D02*
Y31586D01*
X35197Y29615D02*
Y31673D01*
X35276Y27520D02*
Y31673D01*
X36929Y27520D02*
Y31429D01*
X37008Y27520D02*
Y31507D01*
X35512Y27520D02*
Y31508D01*
X35590Y27520D02*
Y31429D01*
X36693Y27520D02*
Y31192D01*
X36850Y27520D02*
Y31350D01*
X36142Y31004D02*
X36241D01*
X36220Y27520D02*
Y31004D01*
X36614Y27520D02*
Y31072D01*
X36063Y27520D02*
Y31014D01*
X36142Y27520D02*
Y31004D01*
X35246Y29065D02*
Y29419D01*
X35984Y27520D02*
Y31048D01*
X34692Y30144D02*
X35125Y29712D01*
X34419Y29065D02*
Y29248D01*
X34603Y28193D02*
X34739Y28329D01*
X35905Y27520D02*
Y31114D01*
X35827Y27520D02*
Y31193D01*
X36772Y27520D02*
Y31271D01*
X35669Y27520D02*
Y31350D01*
X35748Y27520D02*
Y31271D01*
X36457Y27520D02*
Y30984D01*
X36378Y27520D02*
Y30974D01*
X36535Y27520D02*
Y31014D01*
X35197Y27520D02*
Y28869D01*
X36299Y27520D02*
Y30984D01*
X35039Y27520D02*
Y28707D01*
X34961Y27520D02*
Y28672D01*
X35118Y27520D02*
Y28766D01*
X34803Y27520D02*
Y28369D01*
X34882Y27520D02*
Y28457D01*
X34646Y27520D02*
Y28236D01*
X34724Y27520D02*
Y28314D01*
X34488Y27520D02*
Y28120D01*
X34567Y27520D02*
Y28162D01*
X34409Y28909D02*
Y29258D01*
X34228Y29439D02*
X34419Y29248D01*
X34071Y29213D02*
X34419D01*
X34183Y28976D02*
X34429D01*
X34183Y28898D02*
X34393D01*
X34139Y29134D02*
X34419D01*
X34173Y29055D02*
X34419D01*
X34094Y29191D02*
Y29439D01*
X34016Y29249D02*
Y29439D01*
X34173Y29054D02*
Y29439D01*
X33779Y29281D02*
Y29439D01*
X33858Y29281D02*
Y29439D01*
X34331Y28835D02*
Y29337D01*
X34183Y28819D02*
X34319D01*
X33937Y29276D02*
Y29439D01*
X34252Y28733D02*
Y29415D01*
X34183Y28740D02*
X34259D01*
X34249Y28730D02*
X34294Y28775D01*
X34409Y27520D02*
Y28102D01*
X34331Y27520D02*
Y28100D01*
X34183D02*
X34380D01*
X34252Y27520D02*
Y28100D01*
X34183Y28730D02*
X34249D01*
X34183D02*
Y28976D01*
Y27854D02*
Y28100D01*
X34173Y27520D02*
Y27777D01*
X34016Y27520D02*
Y27582D01*
X34094Y27520D02*
Y27639D01*
X33701Y27549D02*
X33878D01*
X33937Y27520D02*
Y27555D01*
X33622Y30266D02*
Y33839D01*
X33543Y30266D02*
Y33839D01*
X33701Y30266D02*
Y33839D01*
X33296D02*
X34724D01*
X33307Y30266D02*
Y33839D01*
X33258Y33779D02*
X35213D01*
X33386Y30266D02*
Y33839D01*
X33465Y30266D02*
Y33839D01*
X33200Y33701D02*
X35179D01*
X33075Y33622D02*
X35167D01*
X32756Y30266D02*
Y33674D01*
X32677Y34112D02*
Y34257D01*
X33228Y30266D02*
Y33734D01*
X33071Y30266D02*
Y33620D01*
X32992Y30266D02*
Y33604D01*
X33150Y30266D02*
Y33659D01*
X32835Y30266D02*
Y33628D01*
X32913Y30266D02*
Y33606D01*
X32205Y30266D02*
Y34341D01*
X32126Y30266D02*
Y34341D01*
X32283Y30266D02*
Y34341D01*
X32047Y30266D02*
Y34341D01*
X31968Y30265D02*
Y34341D01*
X32598Y30266D02*
Y34338D01*
X32520Y30266D02*
Y34341D01*
X32677Y30266D02*
Y33762D01*
X32362Y30266D02*
Y34341D01*
X32441Y30266D02*
Y34341D01*
X31575Y30024D02*
Y34341D01*
X31496Y29945D02*
Y34341D01*
X31417Y29866D02*
Y34341D01*
X31339Y29787D02*
Y34341D01*
X31260Y29709D02*
Y34341D01*
X31890Y30254D02*
Y34341D01*
X31811Y30226D02*
Y34341D01*
X31732Y30177D02*
Y34341D01*
X31653Y30102D02*
Y34341D01*
X29719Y34173D02*
X32725D01*
X29797Y34252D02*
X32684D01*
X29640Y34094D02*
X32667D01*
X29561Y34016D02*
X32637D01*
X29404Y33858D02*
X32637D01*
X29246Y33701D02*
X32726D01*
X29325Y33779D02*
X32667D01*
X29343Y33465D02*
X35167D01*
X29168Y33622D02*
X32850D01*
X29089Y33543D02*
X35167D01*
X29876Y34331D02*
X32603D01*
X29886Y34341D02*
X32596D01*
X29482Y33937D02*
X32628D01*
X29052Y33507D02*
X29886Y34341D01*
X29370Y33447D02*
Y33824D01*
X29291Y33488D02*
Y33746D01*
X29213Y33503D02*
Y33667D01*
X29049Y33504D02*
X29195D01*
X30236Y31348D02*
Y34341D01*
X30157Y31880D02*
Y34341D01*
X30315Y31138D02*
Y34341D01*
X30000Y32042D02*
Y34341D01*
X30079Y31989D02*
Y34341D01*
X29672Y33150D02*
X35184D01*
X29593Y33228D02*
X35168D01*
X31181Y29630D02*
Y34341D01*
X29436Y33386D02*
X35167D01*
X29515Y33307D02*
X35167D01*
X29842Y33011D02*
Y34297D01*
X29764Y33079D02*
Y34218D01*
X29921Y32802D02*
Y34341D01*
X29606Y33215D02*
Y34061D01*
X29685Y33137D02*
Y34139D01*
X29527Y33294D02*
Y33982D01*
X29449Y33373D02*
Y33903D01*
X29404Y33417D02*
X29719Y33103D01*
X29900Y32913D02*
X34952D01*
X29919Y32835D02*
X34874D01*
X29919Y32756D02*
X34795D01*
X29777Y33071D02*
X35224D01*
X29857Y32992D02*
X35090D01*
X30175Y31653D02*
X35366D01*
X30187Y31732D02*
X34849D01*
X30155Y31417D02*
X35602D01*
X30142Y31575D02*
X35445D01*
X30079Y31496D02*
X35523D01*
X29900Y32677D02*
X34716D01*
X29921Y32070D02*
Y32789D01*
X29990Y32047D02*
X34619D01*
X29857Y32598D02*
X34654D01*
X29842Y32077D02*
Y32580D01*
X30153Y31890D02*
X34688D01*
X30099Y31968D02*
X34640D01*
X30180Y31811D02*
X34765D01*
X30079Y31452D02*
Y31496D01*
X30314Y31102D02*
X35917D01*
X30311Y31181D02*
X35838D01*
X30297Y31024D02*
X36034D01*
X30244Y31339D02*
X35681D01*
X30290Y31260D02*
X35760D01*
X30258Y30945D02*
X42618D01*
X30184Y30866D02*
X42564D01*
X30081Y30787D02*
X42537D01*
X30002Y30709D02*
X42530D01*
X29908Y30630D02*
X42541D01*
X30157Y31416D02*
Y31605D01*
X29975Y30681D02*
X30123Y30829D01*
X30000Y29557D02*
Y30706D01*
X31989Y30266D02*
X34400D01*
X29776Y32520D02*
X34624D01*
X29764Y32065D02*
Y32511D01*
X27592Y32441D02*
X34616D01*
X27550Y32362D02*
X34616D01*
X27495Y32283D02*
X34616D01*
X28766Y32057D02*
X29739D01*
X27425Y32205D02*
X34616D01*
X27331Y32126D02*
X34616D01*
X29291Y32057D02*
Y32577D01*
X29213Y32057D02*
Y32538D01*
X29370Y32057D02*
Y32540D01*
X27624Y32520D02*
X29397D01*
X29606Y32057D02*
Y32461D01*
X29685Y32057D02*
Y32475D01*
X29449Y32057D02*
Y32490D01*
X29527Y32057D02*
Y32466D01*
X29047Y30315D02*
X42568D01*
X29092Y30551D02*
X42549D01*
X29122Y30236D02*
X31835D01*
X28999Y30472D02*
X42549D01*
X28919Y30394D02*
X42551D01*
X29225Y30000D02*
X31551D01*
X29231Y29921D02*
X31472D01*
X29225Y29842D02*
X31394D01*
X29173Y30157D02*
X31709D01*
X29206Y30079D02*
X31630D01*
X29213Y30057D02*
Y30589D01*
X29124D02*
X29752D01*
X29207Y29764D02*
X31315D01*
X29233Y29557D02*
X31108D01*
X29175Y29685D02*
X31236D01*
X29125Y29606D02*
X31157D01*
X24852Y34646D02*
X25669D01*
X25117Y34911D02*
X25665D01*
X24852Y34567D02*
X25719D01*
X24852Y34488D02*
X25817D01*
X24880Y34252D02*
X25925D01*
X24860Y34331D02*
X25919D01*
X24880Y34173D02*
X25943D01*
X24852Y34409D02*
X25925D01*
X24860Y34094D02*
X25975D01*
X25087Y34882D02*
X25655D01*
X24488Y35146D02*
Y35246D01*
X24852Y34647D02*
X25117Y34911D01*
X24409Y35067D02*
Y35246D01*
X24332Y34990D02*
X24588Y35246D01*
X24929Y34724D02*
X25645D01*
X25008Y34803D02*
X25640D01*
X24882Y34218D02*
Y34677D01*
X24852Y34350D02*
Y34647D01*
X29134Y33504D02*
Y33588D01*
X27656Y32913D02*
X27748D01*
X27716Y31375D02*
Y32945D01*
X27627Y33034D02*
X28022Y32639D01*
X27953Y31419D02*
Y32708D01*
X27874Y31417D02*
Y32787D01*
X27795Y31403D02*
Y32866D01*
X27666Y32835D02*
X27826D01*
X27667Y32756D02*
X27905D01*
X26063Y33868D02*
Y33967D01*
X25984Y33759D02*
Y34076D01*
X24818Y34016D02*
X26023D01*
X24737Y33937D02*
X26094D01*
X26142Y33149D02*
Y33322D01*
X26063Y32907D02*
Y33376D01*
X22943Y35118D02*
X24460D01*
X24331Y34989D02*
Y35246D01*
X24252Y34850D02*
Y35246D01*
X22943D02*
X24588D01*
X22943Y35197D02*
X24539D01*
X22943Y35039D02*
X24381D01*
X22943Y34961D02*
X24306D01*
X22943Y34882D02*
X24262D01*
X22943Y34803D02*
X24244D01*
X22943Y34724D02*
X24242D01*
Y34350D02*
Y34774D01*
X22943Y34646D02*
X24242D01*
X22943Y34567D02*
X24242D01*
X22943Y34331D02*
X24234D01*
X22943Y34252D02*
X24215D01*
X22943Y34173D02*
X24215D01*
X22943Y34488D02*
X24242D01*
X22943Y34409D02*
X24242D01*
X22943Y33228D02*
X26188D01*
X22943Y33307D02*
X26176D01*
X22943Y33150D02*
X26142D01*
X22943Y33858D02*
X26052D01*
X22943Y33386D02*
X26052D01*
X22943Y32913D02*
X26064D01*
X22943Y32835D02*
X26055D01*
X22943Y32756D02*
X26054D01*
X22943Y33071D02*
X26107D01*
X22943Y32992D02*
X26081D01*
X22943Y34016D02*
X24277D01*
X22943Y34094D02*
X24234D01*
X22943Y33937D02*
X24358D01*
X22943Y33779D02*
X25994D01*
X22943Y33543D02*
X25964D01*
X22943Y33465D02*
X25994D01*
X22943Y33701D02*
X25964D01*
X22943Y33622D02*
X25955D01*
X28898Y32057D02*
Y32549D01*
X28819Y32057D02*
Y32549D01*
X28976Y32057D02*
Y32545D01*
X28238Y32549D02*
X28967D01*
X28740Y32056D02*
Y32549D01*
X29134Y32057D02*
Y32521D01*
X29055Y32057D02*
Y32523D01*
X27195Y32047D02*
X28687D01*
X27661Y32677D02*
X27984D01*
X22943D02*
X26060D01*
X27646Y32598D02*
X28072D01*
X28661Y32039D02*
Y32549D01*
X28583Y31998D02*
Y32549D01*
X28504Y31926D02*
Y32549D01*
X22943Y32126D02*
X26389D01*
X28425Y31847D02*
Y32549D01*
X28346Y31768D02*
Y32549D01*
X28268Y31689D02*
Y32549D01*
X28189Y31611D02*
Y32553D01*
X28110Y31532D02*
Y32577D01*
X28031Y31453D02*
Y32630D01*
X29055Y30308D02*
Y30515D01*
X28976Y30365D02*
Y30458D01*
X29134Y30221D02*
Y30589D01*
X27994Y31416D02*
X28543Y31964D01*
X27638Y31331D02*
Y32565D01*
X27559Y31266D02*
Y32378D01*
X27480Y31163D02*
Y32265D01*
Y30178D02*
Y30645D01*
X27716Y30391D02*
Y30432D01*
X27638Y30347D02*
Y30476D01*
X27559Y30282D02*
Y30541D01*
X22943Y31811D02*
X28389D01*
X22943Y31732D02*
X28310D01*
X22943Y31653D02*
X28232D01*
X22943Y31968D02*
X28547D01*
X22943Y31890D02*
X28468D01*
X22943Y31417D02*
X27873D01*
X22943Y31339D02*
X27649D01*
X22943Y31260D02*
X27553D01*
X22943Y31575D02*
X28153D01*
X22943Y31496D02*
X28074D01*
X22943Y32362D02*
X26171D01*
X22943Y32441D02*
X26129D01*
X22943Y32283D02*
X26225D01*
X22943Y32598D02*
X26074D01*
X22943Y32520D02*
X26097D01*
X22943Y31181D02*
X27492D01*
X22943Y31102D02*
X27450D01*
X22943Y32205D02*
X26296D01*
X22943Y32047D02*
X26525D01*
X22943Y30472D02*
X27643D01*
X22943Y30551D02*
X27550D01*
X22943Y30394D02*
X27723D01*
X22943Y30709D02*
X27449D01*
X22943Y30630D02*
X27489D01*
X22943Y30157D02*
X27469D01*
X22943Y29685D02*
X27467D01*
X22943Y29606D02*
X27516D01*
X22943Y30315D02*
X27595D01*
X22943Y30236D02*
X27519D01*
X22943Y30787D02*
X27424D01*
X22943Y30866D02*
X27412D01*
X22943Y30079D02*
X27436D01*
X22943Y31024D02*
X27425D01*
X22943Y30945D02*
X27412D01*
X22943Y29842D02*
X27416D01*
X22943Y29764D02*
X27435D01*
X22943Y30000D02*
X27417D01*
X22943Y29921D02*
X27411D01*
X33701Y29281D02*
Y29439D01*
X33386Y29272D02*
Y29439D01*
X33622Y29271D02*
Y29439D01*
X32159D02*
X34228D01*
X33228Y29281D02*
Y29439D01*
X33091Y29281D02*
X33307D01*
X33307D02*
Y29439D01*
X33701Y29281D02*
X33878D01*
X32090Y29370D02*
X34297D01*
X32012Y29291D02*
X34376D01*
X33150Y29281D02*
Y29439D01*
X33071Y29281D02*
Y29439D01*
X32992Y29266D02*
Y29439D01*
X32756Y29276D02*
Y29439D01*
X32835Y29249D02*
Y29439D01*
X32520Y29281D02*
X32697D01*
X32598D02*
Y29439D01*
X32677Y29281D02*
Y29439D01*
X32520Y29281D02*
Y29439D01*
X32441Y29271D02*
Y29439D01*
X33543Y29238D02*
Y29439D01*
X33465Y29241D02*
Y29439D01*
X32362Y29238D02*
Y29439D01*
X32913Y29229D02*
Y29439D01*
X32283Y29169D02*
Y29439D01*
X32215Y28730D02*
Y28976D01*
X32205Y28730D02*
Y29439D01*
X32047Y28877D02*
Y29327D01*
X32126Y28780D02*
Y29405D01*
X32158Y28740D02*
X32215D01*
X32133Y28765D02*
X32168Y28730D01*
X32021Y28898D02*
X32215D01*
X32101Y28819D02*
X32215D01*
X30709Y29557D02*
Y34341D01*
X30630Y29557D02*
Y34341D01*
X30787Y29557D02*
Y34341D01*
X30472Y29557D02*
Y34341D01*
X30551Y29557D02*
Y34341D01*
X31102Y29557D02*
Y34341D01*
X31024Y29557D02*
Y34341D01*
X31108Y29557D02*
X31695Y30144D01*
X30866Y29557D02*
Y34341D01*
X30945Y29557D02*
Y34341D01*
X30315Y29557D02*
Y31126D01*
X30236Y29557D02*
Y30916D01*
X30394Y29557D02*
Y34341D01*
X29842Y29557D02*
Y30602D01*
X30157Y29557D02*
Y30848D01*
X29685Y29557D02*
Y30589D01*
X29606Y29557D02*
Y30589D01*
X29764Y29557D02*
Y30589D01*
X29449Y29557D02*
Y30589D01*
X29527Y29557D02*
Y30589D01*
X31933Y29213D02*
X32326D01*
X31890Y28951D02*
Y29169D01*
X31968Y28927D02*
Y29248D01*
X31854Y29134D02*
X32258D01*
X31572Y28852D02*
X32159Y29439D01*
X31776Y29055D02*
X32225D01*
X31811Y28956D02*
Y29091D01*
X31732Y28942D02*
Y29012D01*
X31697Y28976D02*
X32215D01*
X31496Y27520D02*
Y28792D01*
X29921Y29557D02*
Y30638D01*
X30079Y29557D02*
Y30785D01*
X31369Y28740D02*
X31518D01*
X31417Y27520D02*
Y28754D01*
X30394Y27520D02*
Y28730D01*
X31339Y27520D02*
Y28735D01*
X33543Y27520D02*
Y27593D01*
X33386Y27559D02*
X33624D01*
X33465Y27520D02*
Y27590D01*
X33622Y27520D02*
Y27560D01*
X32774Y27559D02*
X33011D01*
X33091Y27549D02*
X33307D01*
X32037Y28100D02*
X32215D01*
X32168Y28730D02*
X32215D01*
X31688Y28319D02*
X31814Y28193D01*
X32520Y27549D02*
X32697D01*
X32835Y27520D02*
Y27582D01*
X32215Y27854D02*
Y28100D01*
X32362Y27520D02*
Y27593D01*
X32283Y27520D02*
Y27661D01*
X32913Y27520D02*
Y27602D01*
X32126Y27520D02*
Y28100D01*
X32205Y27520D02*
Y28100D01*
X33071Y27520D02*
Y27550D01*
X32992Y27520D02*
Y27564D01*
X33386Y27520D02*
Y27559D01*
X32441Y27520D02*
Y27560D01*
X32756Y27520D02*
Y27555D01*
X31653Y27520D02*
Y28338D01*
X31575Y27520D02*
Y28406D01*
X31732Y27520D02*
Y28275D01*
X31181Y27520D02*
Y28730D01*
X31260Y27520D02*
Y28730D01*
X31968Y27520D02*
Y28108D01*
X32047Y27520D02*
Y28100D01*
X31811Y27520D02*
Y28196D01*
X31890Y27520D02*
Y28137D01*
X27667Y28031D02*
X32215D01*
X27664Y28110D02*
X31960D01*
X27662Y27953D02*
X32215D01*
X27635Y28268D02*
X31740D01*
X27654Y28189D02*
X31818D01*
X27629Y27795D02*
X32220D01*
X27650Y27874D02*
X32215D01*
X27599Y27716D02*
X32247D01*
X27559Y27638D02*
X32305D01*
X27507Y27559D02*
X32443D01*
X30551Y27520D02*
Y28730D01*
X30472Y27520D02*
Y28730D01*
X30630Y27520D02*
Y28730D01*
X29233D02*
X31280D01*
X27377Y28661D02*
X31498D01*
X27570Y28425D02*
X31560D01*
X27607Y28346D02*
X31641D01*
X27459Y28583D02*
X31498D01*
X27522Y28504D02*
X31518D01*
X30709Y27520D02*
Y28730D01*
X30315Y27520D02*
Y28730D01*
X30787Y27520D02*
Y28730D01*
X30157Y27520D02*
Y28730D01*
X30236Y27520D02*
Y28730D01*
X31024Y27520D02*
Y28730D01*
X30945Y27520D02*
Y28730D01*
X31102Y27520D02*
Y28730D01*
X27476Y27520D02*
X45217D01*
X30866D02*
Y28730D01*
X29685Y27520D02*
Y28730D01*
X29606Y27520D02*
Y28730D01*
X29764Y27520D02*
Y28730D01*
X29449Y27520D02*
Y28730D01*
X29527Y27520D02*
Y28730D01*
X30000Y27520D02*
Y28730D01*
X30079Y27520D02*
Y28730D01*
X29842Y27520D02*
Y28730D01*
X29921Y27520D02*
Y28730D01*
X29370Y29557D02*
Y30589D01*
X29291Y29557D02*
Y30589D01*
X27244Y28751D02*
Y32072D01*
X29213Y29557D02*
Y29782D01*
X29134Y29545D02*
Y29618D01*
X28264Y29527D02*
X28378D01*
X27087Y28816D02*
Y32007D01*
X26614Y28810D02*
Y32013D01*
X27165Y28789D02*
Y32034D01*
X26535Y28780D02*
Y32043D01*
X26457Y28740D02*
Y32083D01*
X26929Y28845D02*
Y31977D01*
X26850Y28848D02*
Y31974D01*
X27008Y28835D02*
Y31988D01*
X26772Y28844D02*
Y31979D01*
X26693Y28831D02*
Y31992D01*
X27480Y28558D02*
Y29660D01*
X28346Y27520D02*
Y29557D01*
X27323Y28703D02*
Y32120D01*
X27402Y28640D02*
Y32183D01*
X28268Y27520D02*
Y29531D01*
X28189Y27520D02*
Y29474D01*
X28425Y27520D02*
Y29491D01*
X27559Y28445D02*
Y29557D01*
X27638Y28258D02*
Y29491D01*
X25984Y28602D02*
Y33485D01*
X25905Y28602D02*
Y34456D01*
X26063Y28602D02*
Y32656D01*
X25748Y28602D02*
Y34537D01*
X25827Y28602D02*
Y34483D01*
X26378Y28688D02*
Y32134D01*
X26299Y28621D02*
Y32201D01*
X26142Y28602D02*
Y32414D01*
X26220Y28533D02*
Y32290D01*
X25512Y28602D02*
Y34911D01*
X25433Y28602D02*
Y34911D01*
X25591Y28602D02*
Y34911D01*
X25354Y28602D02*
Y34911D01*
X25197Y27520D02*
Y34911D01*
X24961Y28602D02*
Y34755D01*
X24882Y28602D02*
Y34207D01*
X25669Y28602D02*
Y34646D01*
X22943Y29527D02*
X27591D01*
X22943Y29449D02*
X27714D01*
X24724Y28602D02*
Y33929D01*
X24331Y28602D02*
Y33957D01*
X24803Y28602D02*
Y33997D01*
X24173Y28602D02*
Y35246D01*
X24252Y28602D02*
Y34055D01*
X24567Y28602D02*
Y33879D01*
X24646Y28602D02*
Y33893D01*
X24409Y28602D02*
Y33908D01*
X24488Y28602D02*
Y33883D01*
X24016Y27520D02*
Y35246D01*
X23937Y27520D02*
Y35246D01*
X24094Y27520D02*
Y35246D01*
X23622Y27520D02*
Y35246D01*
X23858Y27520D02*
Y35246D01*
X25118Y27520D02*
Y34911D01*
X25039Y27520D02*
Y34834D01*
X25276Y27520D02*
Y34911D01*
X23701Y27520D02*
Y35246D01*
X23779Y27520D02*
Y35246D01*
X23150Y27520D02*
Y35246D01*
X23071Y27520D02*
Y35246D01*
X23228Y27520D02*
Y35246D01*
X22943Y27520D02*
Y35246D01*
X22992Y27520D02*
Y35246D01*
X23465Y27520D02*
Y35246D01*
X23543Y27520D02*
Y35246D01*
X23307Y27520D02*
Y35246D01*
X23386Y27520D02*
Y35246D01*
X28898Y29386D02*
Y29436D01*
X28819Y27520D02*
Y29413D01*
X28740Y27520D02*
Y29403D01*
X28140Y29449D02*
X28501D01*
X28583Y27520D02*
Y29420D01*
X27264Y28740D02*
X29143D01*
X27077Y28819D02*
X28977D01*
X29370Y27520D02*
Y28730D01*
X26142Y28583D02*
X26262D01*
X26142Y28504D02*
X26199D01*
X25295Y28602D02*
X26142D01*
Y28455D02*
Y28602D01*
X25000Y28189D02*
X25295D01*
X25000Y28110D02*
X25295D01*
X25000Y27638D02*
X25295D01*
X25000Y27874D02*
X25295D01*
X25000Y27559D02*
X25295D01*
X25000Y28031D02*
X25295D01*
X25000Y27953D02*
X25295D01*
X28661Y27520D02*
Y29406D01*
X28504Y27520D02*
Y29448D01*
X28898Y27520D02*
Y28901D01*
X28031Y27520D02*
Y29413D01*
X28110Y27520D02*
Y29436D01*
X29213Y27520D02*
Y28731D01*
X29134Y27520D02*
Y28742D01*
X29291Y27520D02*
Y28730D01*
X28976Y27520D02*
Y28819D01*
X29055Y27520D02*
Y28770D01*
X27874Y27520D02*
Y29406D01*
X27795Y27520D02*
Y29420D01*
X27953Y27520D02*
Y29403D01*
X25295Y27520D02*
Y28602D01*
X27716Y27520D02*
Y29448D01*
X27559Y27520D02*
Y27637D01*
X27638Y27520D02*
Y27825D01*
X25000Y27520D02*
X25295D01*
X22943Y29213D02*
X28825D01*
X22943Y29134D02*
X28819D01*
X22943Y29055D02*
X28829D01*
X22943Y29370D02*
X28886D01*
X22943Y29291D02*
X28846D01*
X22943Y28819D02*
X26644D01*
X22943Y28740D02*
X26456D01*
X22943Y28661D02*
X26344D01*
X22943Y28976D02*
X28854D01*
X22943Y28898D02*
X28900D01*
X25000Y28583D02*
X25295D01*
X24154Y28602D02*
X25000D01*
Y28504D02*
X25295D01*
X22943Y28583D02*
X24154D01*
X22943Y28504D02*
X24154D01*
X25000Y28425D02*
X25295D01*
X25000Y28346D02*
X25295D01*
X22943Y28425D02*
X24154D01*
X22943Y28346D02*
X24154D01*
X25000Y28268D02*
X25295D01*
X25000Y27520D02*
Y28602D01*
X22943Y28268D02*
X24154D01*
X22943Y28110D02*
X24154D01*
X25000Y27795D02*
X25295D01*
X25000Y27716D02*
X25295D01*
X22943Y28031D02*
X24154D01*
X22943Y27953D02*
X24154D01*
X22943Y28189D02*
X24154D01*
Y27520D02*
Y28602D01*
X22943Y27874D02*
X24154D01*
X22943Y27795D02*
X24154D01*
X22943Y27559D02*
X24154D01*
X22943Y27520D02*
X24154D01*
X22943Y27716D02*
X24154D01*
X22943Y27638D02*
X24154D01*
X42864Y30423D02*
X43488Y29799D01*
X42864Y30423D02*
Y30719D01*
X31831Y28622D02*
X32037Y28415D01*
X32608D01*
X34380D02*
X34596Y28632D01*
X33789Y28415D02*
X34380D01*
X27927Y30904D02*
X28766Y31742D01*
X29852D01*
X28715Y30904D02*
X29752D01*
X29980Y31132D01*
D24*
X36201Y33819D02*
X36417Y34035D01*
X35673Y33819D02*
X36201D01*
X35472Y33619D02*
X35673Y33819D01*
X35472Y33248D02*
Y33619D01*
Y33248D02*
X35600Y33120D01*
X34921Y32087D02*
X35030Y31978D01*
X34921Y32087D02*
Y32451D01*
X35699Y32697D02*
X36053Y33051D01*
X35167Y32697D02*
X35699D01*
X34921Y32451D02*
X35167Y32697D01*
X35030Y31978D02*
X35472D01*
X36142Y31309D01*
X36378D01*
X36986Y31917D01*
X38752D01*
X43488Y28799D02*
X44128Y28159D01*
X44882D01*
X45128Y28406D01*
Y30846D01*
X38520Y32352D02*
X38789Y32621D01*
X37510Y32352D02*
X38520D01*
X37185Y32677D02*
X37510Y32352D01*
X36722Y32677D02*
X37185D01*
X36270Y32224D02*
X36722Y32677D01*
X37402Y33031D02*
X37874Y33504D01*
X36654Y33031D02*
X37402D01*
X37697Y32707D02*
X38415D01*
X35925Y32303D02*
X36654Y33031D01*
X36270Y31673D02*
Y32224D01*
X37874Y33504D02*
Y33691D01*
X35246Y32303D02*
X35925D01*
X36644Y33691D02*
X37087D01*
X36447Y33494D02*
X36644Y33691D01*
X35807Y33494D02*
X36447D01*
X34724Y34144D02*
X35630Y35049D01*
X33169Y34144D02*
X34724D01*
X32963Y33937D02*
X33169Y34144D01*
X26112Y34921D02*
X33563D01*
X24990Y35217D02*
X33829D01*
X24547Y34774D02*
X24990Y35217D01*
X33829D02*
X33976Y35069D01*
X25974Y34783D02*
X26112Y34921D01*
X33563D02*
X33770Y34715D01*
X28238Y32854D02*
X29104D01*
X27470Y33622D02*
X28238Y32854D01*
X26289Y33622D02*
X27470D01*
X33770Y34715D02*
X34222D01*
X34577Y35069D01*
X24547Y34213D02*
Y34774D01*
D25*
X25719Y28041D02*
X26860D01*
X34833Y29065D02*
Y29419D01*
X34400Y29852D02*
X34833Y29419D01*
X31988Y29852D02*
X34400D01*
X31280Y29144D02*
X31988Y29852D01*
X29232Y29144D02*
X31280D01*
D26*
X42421Y33789D02*
X42854D01*
X41988D02*
X42421D01*
Y33356D02*
Y33789D01*
X38661Y34478D02*
X39075D01*
X43488Y30799D02*
Y31232D01*
X27509Y29919D02*
X27927D01*
X33199Y28415D02*
Y29183D01*
Y27648D02*
Y28415D01*
X27927Y29501D02*
Y29919D01*
X24577Y28041D02*
Y28504D01*
Y28041D02*
X24902D01*
X24252D02*
X24577D01*
D27*
X41388Y33829D02*
Y34803D01*
X40925Y35266D02*
X41388Y34803D01*
X37313Y35266D02*
X40925D01*
X37087Y35039D02*
X37313Y35266D01*
X37087Y34478D02*
Y35039D01*
X36083Y34281D02*
X36280Y34478D01*
X37087D01*
X34537Y34429D02*
X35177Y35069D01*
X32972Y34429D02*
X34537D01*
X32874Y34528D02*
X32972Y34429D01*
X27781Y33716D02*
X28288Y33209D01*
X27451Y34045D02*
X27781Y33716D01*
X28844D01*
X29764Y34636D01*
X32766D01*
X32874Y34528D01*
X27451Y34045D02*
Y34331D01*
X28288Y33209D02*
X29195D01*
X29587Y32817D01*
Y32795D02*
Y32817D01*
D29*
X43488Y30799D02*
D03*
X44488D02*
D03*
X43488Y29799D02*
D03*
Y28799D02*
D03*
X44488Y29799D02*
D03*
X43730Y34760D02*
D03*
X42421Y34789D02*
D03*
X27451Y34331D02*
D03*
X26451D02*
D03*
D30*
X44488Y28799D02*
D03*
X43730Y33760D02*
D03*
X42421Y33789D02*
D03*
D31*
X38661Y34478D02*
D03*
Y33691D02*
D03*
X37874Y34478D02*
D03*
X37087D02*
D03*
X37874Y33691D02*
D03*
D32*
X37087D02*
D03*
D33*
X28451Y34331D02*
D03*
D34*
X28715Y29919D02*
D03*
X27927D02*
D03*
X28715Y30904D02*
D03*
X27927D02*
D03*
D35*
X26860Y28041D02*
D03*
Y32782D02*
D03*
D36*
X28760Y28484D02*
D03*
X31476Y28022D02*
D03*
X30502Y27677D02*
D03*
X29193Y27707D02*
D03*
X32087Y33632D02*
D03*
X32234Y33209D02*
D03*
X32470Y33642D02*
D03*
X45049Y27657D02*
D03*
X41949Y32293D02*
D03*
X44429Y32598D02*
D03*
X40000Y34695D02*
D03*
X39390Y32805D02*
D03*
X39616Y32352D02*
D03*
X40000Y32805D02*
D03*
X40354Y33789D02*
D03*
X42402Y27992D02*
D03*
X41555Y28593D02*
D03*
X39715Y28937D02*
D03*
X39045Y30276D02*
D03*
X39636Y31339D02*
D03*
X39744Y27943D02*
D03*
X38878Y28071D02*
D03*
X37982Y28888D02*
D03*
X38022Y30502D02*
D03*
X38041Y27943D02*
D03*
X34813Y28081D02*
D03*
X35433Y27751D02*
D03*
X35974Y29724D02*
D03*
X34134Y32116D02*
D03*
X34882Y31122D02*
D03*
X33100Y31683D02*
D03*
X33593Y30502D02*
D03*
X33593Y29419D02*
D03*
X33150Y28455D02*
D03*
X23701Y28868D02*
D03*
X23760Y28051D02*
D03*
X24518Y28878D02*
D03*
X24045Y33553D02*
D03*
X24075Y34154D02*
D03*
Y34823D02*
D03*
X29331Y32293D02*
D03*
X30236Y33652D02*
D03*
X30226Y34252D02*
D03*
X41388Y33829D02*
D03*
X36083Y34281D02*
D03*
X36417Y34035D02*
D03*
X35600Y33120D02*
D03*
X36053Y33051D02*
D03*
X36378Y31309D02*
D03*
X38752Y31917D02*
D03*
X45128Y30846D02*
D03*
X38789Y32621D02*
D03*
X37697Y32707D02*
D03*
X38415D02*
D03*
X36270Y31673D02*
D03*
X35246Y32303D02*
D03*
X35807Y33494D02*
D03*
X35177Y35069D02*
D03*
X35630Y35049D02*
D03*
X32963Y33937D02*
D03*
X42864Y30719D02*
D03*
X32874Y34528D02*
D03*
X29587Y32795D02*
D03*
X26289Y33622D02*
D03*
X29104Y32854D02*
D03*
X25974Y34783D02*
D03*
X34577Y35069D02*
D03*
X24547Y34213D02*
D03*
X33976Y35069D02*
D03*
X34833Y29065D02*
D03*
X31831Y28622D02*
D03*
X34596Y28632D02*
D03*
X29852Y31742D02*
D03*
X29980Y31132D02*
D03*
D37*
X31988Y29852D02*
D03*
X29232Y29144D02*
D03*
D38*
X24577Y28041D02*
D03*
X25719D02*
D03*
D39*
X32608Y28415D02*
D03*
X33789D02*
D03*
D40*
X33199D02*
D03*
M02*
